SplineFontDB: 3.0
FontName: NovaRound
FullName: Nova Round
FamilyName: Nova Round
Weight: Book
Copyright: Copyright (c) 2011, wmk69 (wmk69@o2.pl)\nwith Reserved Font Names 'NovaRound' and 'Nova Round'.\n\nThis Font Software is licensed under the SIL Open Font License, Version 1.1.\nThis license is available with a FAQ at:\nhttp://scripts.sil.org/OFL
Version: 2.000
ItalicAngle: 0
UnderlinePosition: -81
UnderlineWidth: 122
Ascent: 1638
Descent: 410
LayerCount: 2
Layer: 0 1 "Warstwa t+AUIA-a"  1
Layer: 1 1 "Plan pierwszy"  0
XUID: [1021 783 23647091 8360855]
FSType: 0
OS2Version: 3
OS2_WeightWidthSlopeOnly: 0
OS2_UseTypoMetrics: 1
CreationTime: 1260698820
ModificationTime: 1313257974
PfmFamily: 33
TTFWeight: 400
TTFWidth: 5
LineGap: 0
VLineGap: 0
Panose: 2 12 5 4 2 4 4 6 2 4
OS2TypoAscent: 1966
OS2TypoAOffset: 0
OS2TypoDescent: -506
OS2TypoDOffset: 0
OS2TypoLinegap: 0
OS2WinAscent: 1966
OS2WinAOffset: 0
OS2WinDescent: 506
OS2WinDOffset: 0
HheadAscent: 1966
HheadAOffset: 0
HheadDescent: -506
HheadDOffset: 0
OS2SubXSize: 1434
OS2SubYSize: 1331
OS2SubXOff: 0
OS2SubYOff: 287
OS2SupXSize: 1434
OS2SupYSize: 1331
OS2SupXOff: 0
OS2SupYOff: 977
OS2StrikeYSize: 102
OS2StrikeYPos: 512
OS2Vendor: '    '
OS2CodePages: 20000093.00000000
OS2UnicodeRanges: 8000002f.4000204b.00000000.00000000
Lookup: 258 0 0 "'kern' Kerning poziomy w tablicy 0"  {"Podtablica 'kern' Kerning poziomy w tablicy 0"  } ['kern' ('DFLT' <'dflt' > 'grek' <'dflt' > 'latn' <'dflt' > ) ]
DEI: 91125
KernClass2: 28 18 "Podtablica 'kern' Kerning poziomy w tablicy 0" 
 380 A C G M N O Q S Agrave Aacute Acircumflex Atilde Adieresis Aring Ccedilla Ntilde Ograve Oacute Ocircumflex Otilde Odieresis Oslash Amacron Abreve Aogonek Cacute Ccircumflex Cdotaccent Ccaron Gcircumflex Gbreve Gdotaccent Gcommaaccent Nacute Ncommaaccent Ncaron Eng Omacron Obreve Ohungarumlaut OE Sacute Scircumflex Scedilla Scaron uni01E4 Scommaaccent uni1E40 uni1E60 Oslashacute
 20 B germandbls uni1E02
 27 D Eth Dcaron Dcroat uni1E0A

StartChar: .notdef
Encoding: 65536 -1 0
Width: 894
Flags: W
HStem: 0 118<268 626> 1392 118<268 626>
VStem: 150 118<118 1392> 626 118<118 1392>
LayerCount: 2
Fore
SplineSet
150 0 m 1,0,-1
 150 1510 l 1,1,-1
 744 1510 l 1,2,-1
 744 0 l 1,3,-1
 150 0 l 1,0,-1
268 1392 m 1,4,-1
 268 118 l 1,5,-1
 626 118 l 1,6,-1
 626 1392 l 1,7,-1
 268 1392 l 1,4,-1
EndSplineSet
Validated: 3073
EndChar

StartChar: exclam
Encoding: 33 33 4
Width: 600
GlyphClass: 2
Flags: W
HStem: -20 245<216.097 383.903> 1530 20G<347.778 400>
VStem: 180 240<17.1285 187.871> 200 200<510 1460>
LayerCount: 2
Fore
SplineSet
180 102.5 m 128,-1,1
 180 153 180 153 215 189 c 128,-1,2
 250 225 250 225 300 225 c 128,-1,3
 350 225 350 225 385 189 c 128,-1,4
 420 153 420 153 420 102.5 c 128,-1,5
 420 52 420 52 385 16 c 128,-1,6
 350 -20 350 -20 300 -20 c 128,-1,7
 250 -20 250 -20 215 16 c 128,-1,0
 180 52 180 52 180 102.5 c 128,-1,1
390 1550 m 1,8,-1
 400 1550 l 1,9,-1
 400 510 l 1,10,-1
 210 420 l 1,11,-1
 200 420 l 1,12,-1
 200 1460 l 1,13,-1
 390 1550 l 1,8,-1
EndSplineSet
Validated: 1
EndChar

StartChar: quotedbl
Encoding: 34 34 5
Width: 747
GlyphClass: 2
Flags: W
HStem: 992 558
VStem: 150 166<1066 1476> 431 166<1066 1476>
LayerCount: 2
Fore
SplineSet
587 1550 m 1,0,-1
 597 1550 l 1,1,-1
 597 1066 l 1,2,-1
 441 992 l 1,3,-1
 431 992 l 1,4,-1
 431 1476 l 1,5,-1
 587 1550 l 1,0,-1
306 1550 m 1,6,-1
 316 1550 l 1,7,-1
 316 1066 l 1,8,-1
 160 992 l 1,9,-1
 150 992 l 1,10,-1
 150 1476 l 1,11,-1
 306 1550 l 1,6,-1
EndSplineSet
Validated: 3073
EndChar

StartChar: numbersign
Encoding: 35 35 6
Width: 1368
GlyphClass: 2
Flags: W
HStem: 520 182<231 448 630 738 920 1137> 810 182<231 448 630 738 920 1137>
VStem: 448 182<303 520 702 810 992 1209> 738 182<303 520 702 810 992 1209>
LayerCount: 2
Fore
SplineSet
458 222 m 1,0,-1
 448 222 l 1,1,-1
 448 520 l 1,2,-1
 150 520 l 1,3,-1
 150 530 l 1,4,-1
 231 702 l 1,5,-1
 448 702 l 1,6,-1
 448 810 l 1,7,-1
 150 810 l 1,8,-1
 150 820 l 1,9,-1
 231 992 l 1,10,-1
 448 992 l 1,11,-1
 448 1209 l 1,12,-1
 620 1290 l 1,13,-1
 630 1290 l 1,14,-1
 630 992 l 1,15,-1
 738 992 l 1,16,-1
 738 1209 l 1,17,-1
 910 1290 l 1,18,-1
 920 1290 l 1,19,-1
 920 992 l 1,20,-1
 1218 992 l 1,21,-1
 1218 982 l 1,22,-1
 1137 810 l 1,23,-1
 920 810 l 1,24,-1
 920 702 l 1,25,-1
 1218 702 l 1,26,-1
 1218 692 l 1,27,-1
 1137 520 l 1,28,-1
 920 520 l 1,29,-1
 920 303 l 1,30,-1
 748 222 l 1,31,-1
 738 222 l 1,32,-1
 738 520 l 1,33,-1
 630 520 l 1,34,-1
 630 303 l 1,35,-1
 458 222 l 1,0,-1
630 702 m 1,36,-1
 738 702 l 1,37,-1
 738 810 l 1,38,-1
 630 810 l 1,39,-1
 630 702 l 1,36,-1
EndSplineSet
Validated: 3073
EndChar

StartChar: dollar
Encoding: 36 36 7
Width: 1329
GlyphClass: 2
Flags: W
HStem: 748 181<723 855.385>
VStem: 160 200<301.379 460> 250 200<1000.85 1293.45> 607 116<-190 -12.9773 165 748 936 1365 1521.04 1700> 880 200<1157 1292.64> 969 200<299.872 638.234>
LayerCount: 2
Fore
SplineSet
160 460 m 1,0,-1
 350 550 l 1,1,-1
 360 550 l 1,2,-1
 360 468 l 2,3,4
 360 346 360 346 432 263 c 0,5,6
 502 182 502 182 607 165 c 1,7,-1
 607 754 l 1,8,9
 461 771 461 771 350 871 c 0,10,11
 250 961 250 961 250 1132 c 0,12,13
 250 1334 250 1334 374 1434 c 0,14,15
 472 1513 472 1513 607 1527 c 1,16,-1
 607 1700 l 1,17,-1
 713 1750 l 1,18,-1
 723 1750 l 1,19,-1
 723 1527 l 1,20,21
 858 1513 858 1513 956 1434 c 0,22,23
 1080 1334 1080 1334 1080 1157 c 1,24,-1
 890 1067 l 1,25,-1
 880 1067 l 1,26,-1
 880 1147 l 2,27,28
 880 1260 880 1260 815 1317 c 0,29,30
 774 1353 774 1353 723 1365 c 1,31,-1
 723 929 l 1,32,33
 923 917 923 917 1035 817 c 0,34,35
 1169 697 1169 697 1169 472 c 0,36,37
 1169 267 1169 267 1035 125 c 0,38,39
 916 -1 916 -1 723 -18 c 1,40,-1
 723 -190 l 1,41,-1
 617 -240 l 1,42,-1
 607 -240 l 1,43,-1
 607 -18 l 1,44,45
 414 -1 414 -1 295 125 c 0,46,47
 160 268 160 268 160 460 c 1,0,-1
607 936 m 1,48,-1
 607 1366 l 1,49,50
 549 1353 549 1353 509 1311 c 0,51,52
 450 1249 450 1249 450 1147 c 0,53,54
 450 1048 450 1048 495 998 c 0,55,56
 538 950 538 950 607 936 c 1,48,-1
723 748 m 1,57,-1
 723 165 l 1,58,59
 827 182 827 182 898 263 c 128,-1,60
 969 344 969 344 969 470 c 0,61,62
 969 588 969 588 911 657 c 0,63,64
 846 734 846 734 723 748 c 1,57,-1
EndSplineSet
Validated: 1
EndChar

StartChar: percent
Encoding: 37 37 8
Width: 2144
GlyphClass: 2
Flags: W
HStem: -40 21G<746.529 807.317> -20 178<1438.31 1720.19> 602 178<1437.81 1719.69> 730 178<424.306 706.186> 1352 178<423.814 705.694> 1530 20G<1346.68 1407.47>
VStem: 150 200<979.483 1280.02> 780 200<979.983 1280.52> 1164 200<229.483 530.017> 1794 200<229.983 530.517>
DStem2: 647 28 798 -40 0.422266 0.906472<2.12205 1679.04>
LayerCount: 2
Fore
SplineSet
1164 380 m 0,0,1
 1164 545 1164 545 1288 667 c 0,2,3
 1404 780 1404 780 1579 780 c 0,4,5
 1752 780 1752 780 1870 667 c 0,6,7
 1994 547 1994 547 1994 380 c 0,8,9
 1994 215 1994 215 1870 93 c 0,10,11
 1754 -20 1754 -20 1579 -20 c 0,12,13
 1406 -20 1406 -20 1288 93 c 0,14,15
 1164 213 1164 213 1164 380 c 0,0,1
1794 380 m 128,-1,17
 1794 495 1794 495 1731.5 548.5 c 128,-1,18
 1669 602 1669 602 1579 602 c 128,-1,19
 1489 602 1489 602 1426.5 548.5 c 128,-1,20
 1364 495 1364 495 1364 380 c 128,-1,21
 1364 265 1364 265 1426.5 211.5 c 128,-1,22
 1489 158 1489 158 1579 158 c 128,-1,23
 1669 158 1669 158 1731.5 211.5 c 128,-1,16
 1794 265 1794 265 1794 380 c 128,-1,17
150 1130 m 0,24,25
 150 1295 150 1295 274 1417 c 0,26,27
 390 1530 390 1530 565 1530 c 0,28,29
 738 1530 738 1530 856 1417 c 0,30,31
 980 1297 980 1297 980 1130 c 0,32,33
 980 965 980 965 856 843 c 0,34,35
 740 730 740 730 565 730 c 0,36,37
 392 730 392 730 274 843 c 0,38,39
 150 963 150 963 150 1130 c 0,24,25
780 1130 m 128,-1,41
 780 1245 780 1245 717.5 1298.5 c 128,-1,42
 655 1352 655 1352 565 1352 c 128,-1,43
 475 1352 475 1352 412.5 1298.5 c 128,-1,44
 350 1245 350 1245 350 1130 c 128,-1,45
 350 1015 350 1015 412.5 961.5 c 128,-1,46
 475 908 475 908 565 908 c 128,-1,47
 655 908 655 908 717.5 961.5 c 128,-1,40
 780 1015 780 1015 780 1130 c 128,-1,41
788 -40 m 1,48,-1
 647 28 l 1,49,-1
 1356 1550 l 1,50,-1
 1366 1550 l 1,51,-1
 1507 1482 l 1,52,-1
 798 -40 l 1,53,-1
 788 -40 l 1,48,-1
EndSplineSet
Validated: 1
EndChar

StartChar: ampersand
Encoding: 38 38 9
Width: 1720
GlyphClass: 2
Flags: W
HStem: -40 191<485.197 752.726> 768 146<545.11 709> 1372 158<527.462 799.771>
VStem: 160 200<284.008 625.718> 250 200<999.819 1291.57> 880 200<1137 1293.63>
DStem2: 830 914 709 768 0.641913 -0.766778<2.95957 470.664 660.238 1081.99> 1132 553 1248 411 0.714542 0.699593<0 389.512>
LayerCount: 2
Fore
SplineSet
160 468 m 0,0,1
 160 669 160 669 308 801 c 0,2,3
 354 842 354 842 389 859 c 1,4,5
 250 976 250 976 250 1137 c 0,6,7
 250 1333 250 1333 374 1434 c 0,8,9
 492 1530 492 1530 665 1530 c 0,10,11
 842 1530 842 1530 956 1434 c 0,12,13
 1080 1330 1080 1330 1080 1137 c 1,14,-1
 890 1047 l 1,15,-1
 880 1047 l 9,16,-1
 880 1145 l 18,17,18
 880 1258 880 1258 815 1317 c 0,19,20
 753 1372 753 1372 665 1372 c 0,21,22
 567 1372 567 1372 509 1311 c 0,23,24
 450 1250 450 1250 450 1137 c 0,25,26
 450 1046 450 1046 495 998 c 0,27,28
 557 932 557 932 653 923 c 128,-1,29
 749 914 749 914 830 914 c 1,30,-1
 1132 553 l 1,31,-1
 1402 834 l 1,32,-1
 1412 834 l 1,33,-1
 1584 752 l 1,34,-1
 1248 411 l 1,35,-1
 1560 42 l 1,36,-1
 1386 -40 l 1,37,-1
 1376 -40 l 1,38,-1
 1106 284 l 1,39,-1
 766 -40 l 1,40,41
 402 -40 402 -40 277 122 c 24,42,43
 160 274 160 274 160 468 c 0,0,1
994 428 m 9,44,-1
 709 768 l 17,45,46
 575 766 575 766 460 685 c 24,47,48
 360 615 360 615 360 454 c 0,49,50
 360 332 360 332 432 243 c 0,51,52
 506 151 506 151 634 151 c 0,53,54
 768 151 768 151 994 428 c 9,44,-1
EndSplineSet
Validated: 1
EndChar

StartChar: quotesingle
Encoding: 39 39 10
Width: 466
GlyphClass: 2
Flags: W
HStem: 992 558
VStem: 150 166<1066 1476>
LayerCount: 2
Fore
SplineSet
306 1550 m 1,0,-1
 316 1550 l 1,1,-1
 316 1066 l 1,2,-1
 160 992 l 1,3,-1
 150 992 l 1,4,-1
 150 1476 l 1,5,-1
 306 1550 l 1,0,-1
EndSplineSet
Validated: 3073
EndChar

StartChar: parenleft
Encoding: 40 40 11
Width: 755
GlyphClass: 2
Flags: W
HStem: -240 180<539.998 705> 1570 180<539.998 705>
VStem: 200 200<85.2461 1424.75>
LayerCount: 2
Fore
SplineSet
705 -240 m 17,0,1
 477 -240 477 -240 335 -95 c 0,2,3
 200 43 200 43 200 260 c 2,4,-1
 200 1250 l 2,5,6
 200 1467 200 1467 335 1605 c 0,7,8
 477 1750 477 1750 705 1750 c 9,9,-1
 705 1570 l 17,10,11
 559 1569 559 1569 472 1467 c 0,12,13
 400 1382 400 1382 400 1250 c 2,14,-1
 400 260 l 2,15,16
 400 128 400 128 472 43 c 0,17,18
 559 -59 559 -59 705 -60 c 9,19,-1
 705 -240 l 17,0,1
EndSplineSet
Validated: 1
EndChar

StartChar: parenright
Encoding: 41 41 12
Width: 755
GlyphClass: 2
Flags: W
HStem: -240 180<50 215.002> 1570 180<50 215.002>
VStem: 355 200<85.2461 1424.75>
LayerCount: 2
Fore
SplineSet
50 -240 m 9,0,1
 50 -60 l 17,2,3
 196 -59 196 -59 283 43 c 0,4,5
 355 128 355 128 355 260 c 2,6,-1
 355 1250 l 2,7,8
 355 1382 355 1382 283 1467 c 0,9,10
 196 1569 196 1569 50 1570 c 9,11,-1
 50 1750 l 17,12,13
 278 1750 278 1750 420 1605 c 0,14,15
 555 1467 555 1467 555 1250 c 2,16,-1
 555 260 l 2,17,18
 555 43 555 43 420 -95 c 0,19,20
 278 -240 278 -240 50 -240 c 9,0,1
EndSplineSet
Validated: 1
EndChar

StartChar: asterisk
Encoding: 42 42 13
Width: 1183
GlyphClass: 2
Flags: W
HStem: 1530 20G<629.531 682>
VStem: 500 182<717 955 1231 1469>
LayerCount: 2
Fore
SplineSet
682 1550 m 1,0,-1
 682 1231 l 1,1,-1
 871 1360 l 1,2,-1
 1028 1251 l 1,3,-1
 1033 1243 l 1,4,-1
 753 1093 l 1,5,-1
 1033 943 l 1,6,-1
 1028 935 l 1,7,-1
 871 826 l 1,8,-1
 682 955 l 1,9,-1
 682 717 l 1,10,-1
 510 636 l 1,11,-1
 500 636 l 1,12,-1
 500 955 l 1,13,-1
 311 826 l 1,14,-1
 155 935 l 1,15,-1
 150 943 l 1,16,-1
 429 1093 l 1,17,-1
 150 1243 l 1,18,-1
 155 1251 l 1,19,-1
 311 1360 l 1,20,-1
 500 1231 l 1,21,-1
 500 1469 l 1,22,-1
 672 1550 l 1,23,-1
 682 1550 l 1,0,-1
EndSplineSet
Validated: 1
EndChar

StartChar: plus
Encoding: 43 43 14
Width: 1214
GlyphClass: 2
Flags: W
HStem: 664 182<231 516 698 983>
VStem: 516 182<379 664 846 1131>
LayerCount: 2
Fore
SplineSet
698 1212 m 1,0,-1
 698 846 l 1,1,-1
 1064 846 l 1,2,-1
 1064 836 l 1,3,-1
 983 664 l 1,4,-1
 698 664 l 1,5,-1
 698 379 l 1,6,-1
 526 298 l 1,7,-1
 516 298 l 1,8,-1
 516 664 l 1,9,-1
 150 664 l 1,10,-1
 150 674 l 1,11,-1
 231 846 l 1,12,-1
 516 846 l 1,13,-1
 516 1131 l 1,14,-1
 688 1212 l 1,15,-1
 698 1212 l 1,0,-1
EndSplineSet
Validated: 3073
EndChar

StartChar: comma
Encoding: 44 44 15
Width: 609
GlyphClass: 2
Flags: W
HStem: -286 564
VStem: 284 175<-116.943 108.616>
LayerCount: 2
Fore
SplineSet
340 278 m 1,0,-1
 350 278 l 1,1,2
 459 171 459 171 459 34 c 0,3,4
 459 -157 459 -157 214 -286 c 1,5,-1
 171 -236 l 1,6,7
 284 -121 284 -121 284 -20 c 0,8,9
 284 101 284 101 150 188 c 1,10,-1
 340 278 l 1,0,-1
EndSplineSet
Validated: 1
EndChar

StartChar: hyphen
Encoding: 45 45 16
Width: 1214
GlyphClass: 2
Flags: W
HStem: 664 182<231 983>
LayerCount: 2
Fore
SplineSet
150 664 m 1,0,-1
 150 674 l 1,1,-1
 231 846 l 1,2,-1
 1064 846 l 1,3,-1
 1064 836 l 1,4,-1
 983 664 l 1,5,-1
 150 664 l 1,0,-1
EndSplineSet
Validated: 3073
EndChar

StartChar: period
Encoding: 46 46 17
Width: 600
GlyphClass: 2
Flags: W
HStem: -20 245<216.097 383.903>
VStem: 180 240<17.1285 187.871>
LayerCount: 2
Fore
SplineSet
180 102.5 m 128,-1,1
 180 153 180 153 215 189 c 128,-1,2
 250 225 250 225 300 225 c 128,-1,3
 350 225 350 225 385 189 c 128,-1,4
 420 153 420 153 420 102.5 c 128,-1,5
 420 52 420 52 385 16 c 128,-1,6
 350 -20 350 -20 300 -20 c 128,-1,7
 250 -20 250 -20 215 16 c 128,-1,0
 180 52 180 52 180 102.5 c 128,-1,1
EndSplineSet
Validated: 1
EndChar

StartChar: slash
Encoding: 47 47 18
Width: 974
GlyphClass: 2
Flags: W
DStem2: 10 -72 161 -140 0.422626 0.906304<2.18787 1899.6>
LayerCount: 2
Fore
SplineSet
151 -140 m 1,0,-1
 10 -72 l 1,1,-1
 812 1650 l 1,2,-1
 822 1650 l 1,3,-1
 964 1582 l 1,4,-1
 161 -140 l 1,5,-1
 151 -140 l 1,0,-1
EndSplineSet
Validated: 3073
EndChar

StartChar: zero
Encoding: 48 48 19
Width: 1410
GlyphClass: 2
Flags: W
HStem: -20 180<539.842 870.158> 1350 180<539.842 870.158>
VStem: 200 200<305.246 1204.75> 1010 200<305.246 1205.25>
LayerCount: 2
Fore
SplineSet
400 480 m 2,0,1
 400 346 400 346 472 263 c 0,2,3
 561 160 561 160 705 160 c 128,-1,4
 849 160 849 160 938 263 c 0,5,6
 1010 346 1010 346 1010 480 c 2,7,-1
 1010 1030 l 2,8,9
 1010 1164 1010 1164 938 1247 c 0,10,11
 849 1350 849 1350 705 1350 c 128,-1,12
 561 1350 561 1350 472 1247 c 0,13,14
 400 1164 400 1164 400 1030 c 2,15,-1
 400 480 l 2,0,1
200 480 m 2,16,-1
 200 1030 l 2,17,18
 200 1247 200 1247 335 1385 c 0,19,20
 477 1530 477 1530 705 1530 c 128,-1,21
 933 1530 933 1530 1075 1385 c 0,22,23
 1210 1248 1210 1248 1210 1030 c 2,24,-1
 1210 480 l 2,25,26
 1210 263 1210 263 1075 125 c 0,27,28
 933 -20 933 -20 705 -20 c 128,-1,29
 477 -20 477 -20 335 125 c 0,30,31
 200 263 200 263 200 480 c 2,16,-1
EndSplineSet
Validated: 1
EndChar

StartChar: one
Encoding: 49 49 20
Width: 714
GlyphClass: 2
Flags: W
HStem: -40 21G<264 316.222> 1138 21G<20 56.4179> 1530 20G<412.068 464>
VStem: 264 200<50 1272>
LayerCount: 2
Fore
SplineSet
264 -40 m 1,0,-1
 264 1272 l 1,1,-1
 20 1138 l 1,2,-1
 20 1343 l 1,3,-1
 454 1550 l 1,4,-1
 464 1550 l 1,5,-1
 464 50 l 1,6,-1
 274 -40 l 1,7,-1
 264 -40 l 1,0,-1
EndSplineSet
Validated: 1
EndChar

StartChar: two
Encoding: 50 50 21
Width: 1333
GlyphClass: 2
Flags: W
HStem: 0 182<472 1092> 1350 180<502.621 832.25>
VStem: 160 200<895.151 1210.02> 964 205<896.487 1215.76>
DStem2: 231 182 472 182 0.718264 0.695771<173.102 1020.18>
LayerCount: 2
Fore
SplineSet
150 0 m 1,0,-1
 150 10 l 1,1,-1
 231 182 l 1,2,-1
 710 646 l 17,3,4
 964 880 964 880 964 1043 c 0,5,6
 964 1167 964 1167 898 1247 c 0,7,8
 813 1350 813 1350 665 1350 c 0,9,10
 525 1350 525 1350 432 1247 c 0,11,12
 360 1167 360 1167 360 1047 c 0,13,14
 360 980 360 980 399 914 c 1,15,-1
 231 833 l 1,16,-1
 221 833 l 1,17,18
 160 941 160 941 160 1070 c 0,19,20
 160 1242 160 1242 295 1385 c 0,21,22
 432 1530 432 1530 665 1530 c 128,-1,23
 898 1530 898 1530 1035 1385 c 0,24,25
 1169 1243 1169 1243 1169 1037 c 0,26,27
 1168 812 1168 812 899 564 c 9,28,-1
 472 182 l 1,29,-1
 1173 182 l 1,30,-1
 1173 172 l 1,31,-1
 1092 0 l 1,32,-1
 150 0 l 1,0,-1
EndSplineSet
Validated: 1
EndChar

StartChar: three
Encoding: 51 51 22
Width: 1330
GlyphClass: 2
Flags: W
HStem: -20 180<502.267 829.056> 751 159<740 849.255> 1328 182<330 773>
VStem: 161 200<302.437 480> 970 200<300.12 635.896>
DStem2: 442 707 740 910 0.470367 0.882471<319.311 703.706>
LayerCount: 2
Fore
SplineSet
161 480 m 1,0,-1
 351 570 l 1,1,-1
 361 570 l 9,2,-1
 361 480 l 18,3,4
 361 348 361 348 433 263 c 0,5,6
 520 160 520 160 666 160 c 0,7,8
 809 160 809 160 899 263 c 0,9,10
 970 344 970 344 970 470 c 0,11,12
 970 588 970 588 911 657 c 0,13,14
 829 751 829 751 664 751 c 0,15,16
 527 751 527 751 442 707 c 1,17,-1
 773 1328 l 1,18,-1
 249 1328 l 1,19,-1
 249 1338 l 1,20,-1
 330 1510 l 1,21,-1
 1083 1510 l 1,22,-1
 740 910 l 1,23,24
 916 909 916 909 1034 805 c 0,25,26
 1170 685 1170 685 1170 472 c 0,27,28
 1170 268 1170 268 1036 125 c 0,29,30
 899 -20 899 -20 666 -20 c 128,-1,31
 433 -20 433 -20 296 125 c 0,32,33
 161 268 161 268 161 480 c 1,0,-1
EndSplineSet
Validated: 1
EndChar

StartChar: four
Encoding: 52 52 23
Width: 1188
GlyphClass: 2
Flags: W
HStem: -40 21G<738 790.222> 358 182<303 738 938 1007> 1530 20G<885.778 938>
VStem: 738 200<50 358 540 1186>
LayerCount: 2
Fore
SplineSet
738 540 m 1,0,-1
 738 1186 l 1,1,-1
 303 540 l 1,2,-1
 738 540 l 1,0,-1
738 -40 m 1,3,-1
 738 358 l 1,4,-1
 5 358 l 1,5,-1
 5 368 l 1,6,-1
 86 540 l 1,7,-1
 738 1460 l 1,8,-1
 928 1550 l 1,9,-1
 938 1550 l 1,10,-1
 938 540 l 1,11,-1
 1088 540 l 1,12,-1
 1088 530 l 1,13,-1
 1007 358 l 1,14,-1
 938 358 l 1,15,-1
 938 50 l 1,16,-1
 748 -40 l 1,17,-1
 738 -40 l 1,3,-1
EndSplineSet
Validated: 1
EndChar

StartChar: five
Encoding: 53 53 24
Width: 1330
GlyphClass: 2
Flags: W
HStem: -20 180<502.267 829.056> 751 185<450.5 845.363> 1328 182<552 1012>
VStem: 161 200<302.437 480> 970 200<300.12 625.771>
LayerCount: 2
Fore
SplineSet
161 480 m 1,0,1
 351 570 l 1,2,-1
 361 570 l 9,3,-1
 361 480 l 18,4,5
 361 348 361 348 433 263 c 0,6,7
 520 160 520 160 666 160 c 0,8,9
 809 160 809 160 899 263 c 0,10,11
 970 344 970 344 970 470 c 0,12,13
 970 580 970 580 904 657 c 0,14,15
 822 751 822 751 664 751 c 0,16,17
 527 751 527 751 442 707 c 1,18,-1
 233 808 l 1,19,-1
 400 1510 l 1,20,-1
 1093 1510 l 1,21,-1
 1093 1500 l 1,22,-1
 1012 1328 l 1,23,-1
 552 1328 l 1,24,-1
 430 882 l 1,25,26
 541 936 541 936 664 936 c 0,27,28
 891 936 891 936 1028 817 c 0,29,30
 1170 694 1170 694 1170 472 c 0,31,32
 1170 268 1170 268 1036 125 c 0,33,34
 899 -20 899 -20 666 -20 c 128,-1,35
 433 -20 433 -20 296 125 c 0,36,37
 161 268 161 268 161 480 c 1,0,1
EndSplineSet
Validated: 1
EndChar

StartChar: six
Encoding: 54 54 25
Width: 1410
GlyphClass: 2
Flags: W
HStem: -20 180<541.493 867.605> 782 180<540.694 868.507> 1350 180<541.777 852.153>
VStem: 200 200<304.543 640.63 844 1207.96> 990 194<1118 1206.54> 1010 200<300.12 638.873>
LayerCount: 2
Fore
SplineSet
1184 1118 m 1,0,-1
 1000 1030 l 1,1,-1
 990 1030 l 1,2,3
 990 1163 990 1163 918 1247 c 0,4,5
 828 1350 828 1350 706 1350 c 0,6,7
 561 1350 561 1350 472 1247 c 0,8,9
 400 1164 400 1164 400 1030 c 2,10,-1
 400 844 l 1,11,12
 530 962 530 962 705 962 c 0,13,14
 938 962 938 962 1075 817 c 0,15,16
 1210 674 1210 674 1210 472 c 0,17,18
 1210 268 1210 268 1075 125 c 0,19,20
 938 -20 938 -20 705 -20 c 128,-1,21
 472 -20 472 -20 335 125 c 0,22,23
 200 268 200 268 200 470 c 2,24,-1
 200 1030 l 18,25,26
 200 1242 200 1242 335 1385 c 0,27,28
 472 1530 472 1530 705 1530 c 0,29,30
 926 1530 926 1530 1055 1395.5 c 128,-1,31
 1184 1261 1184 1261 1184 1118 c 1,0,-1
705 782 m 0,32,33
 562 782 562 782 472 679 c 0,34,35
 400 596 400 596 400 470 c 0,36,37
 400 347 400 347 472 263 c 0,38,39
 560 160 560 160 705 160 c 0,40,41
 846 160 846 160 938 263 c 0,42,43
 1010 344 1010 344 1010 470 c 0,44,45
 1010 595 1010 595 938 679 c 0,46,47
 850 782 850 782 705 782 c 0,32,33
EndSplineSet
Validated: 1
EndChar

StartChar: seven
Encoding: 55 55 26
Width: 1047
GlyphClass: 2
Flags: W
HStem: -40 21G<405.647 465> 1328 182<131 726>
DStem2: 268 45 458 -40 0.33035 0.943858<0 1362.27>
LayerCount: 2
Fore
SplineSet
458 -40 m 1,0,-1
 448 -40 l 1,1,-1
 268 45 l 1,2,-1
 726 1328 l 1,3,-1
 50 1328 l 1,4,-1
 50 1338 l 1,5,-1
 131 1510 l 1,6,-1
 997 1510 l 1,7,-1
 997 1500 l 1,8,-1
 458 -40 l 1,0,-1
EndSplineSet
Validated: 1
EndChar

StartChar: eight
Encoding: 56 56 27
Width: 1328
GlyphClass: 2
Flags: W
HStem: -20 180<500.709 827.056> 751 180<519.5 808.5> 1372 158<526.583 801.417>
VStem: 160 200<300.12 638.87> 249 200<998.484 1293.07> 879 200<998.484 1293.32> 968 200<300.12 638.87>
LayerCount: 2
Fore
SplineSet
160 472 m 0,0,1
 160 668 160 668 312 810 c 0,2,3
 344 840 344 840 388 863 c 1,4,5
 249 975 249 975 249 1132 c 0,6,7
 249 1332 249 1332 373 1434 c 0,8,9
 491 1530 491 1530 664 1530 c 128,-1,10
 837 1530 837 1530 955 1434 c 0,11,12
 1079 1333 1079 1333 1079 1132 c 0,13,14
 1079 975 1079 975 940 863 c 1,15,16
 984 840 984 840 1016 810 c 0,17,18
 1168 668 1168 668 1168 472 c 0,19,20
 1168 268 1168 268 1034 125 c 0,21,22
 897 -20 897 -20 664 -20 c 0,23,24
 430 -20 430 -20 294 125 c 0,25,26
 160 268 160 268 160 472 c 0,0,1
664 160 m 128,-1,28
 807 160 807 160 897 263 c 0,29,30
 968 344 968 344 968 470 c 0,31,32
 968 589 968 589 910 657 c 0,33,34
 830 751 830 751 664 751 c 128,-1,35
 498 751 498 751 418 657 c 0,36,37
 360 589 360 589 360 470 c 0,38,39
 360 344 360 344 431 263 c 0,40,27
 521 160 521 160 664 160 c 128,-1,28
664 1372 m 128,-1,42
 567 1372 567 1372 508 1311 c 128,-1,43
 449 1250 449 1250 449 1147 c 0,44,45
 449 1048 449 1048 494 998 c 0,46,47
 554 931 554 931 664 931 c 128,-1,48
 774 931 774 931 834 998 c 0,49,50
 879 1048 879 1048 879 1147 c 0,51,52
 879 1250 879 1250 820 1311 c 128,-1,41
 761 1372 761 1372 664 1372 c 128,-1,42
EndSplineSet
Validated: 1
EndChar

StartChar: nine
Encoding: 57 57 28
Width: 1410
GlyphClass: 2
Flags: W
HStem: -20 180<540.01 868.223> 548 180<541.493 870.306> 1350 180<542.395 868.507>
VStem: 200 200<303.455 392 871.127 1209.88> 1010 200<302.042 666 869.37 1205.46>
LayerCount: 2
Fore
SplineSet
206 392 m 1,0,-1
 390 480 l 1,1,-1
 400 480 l 1,2,3
 400 347 400 347 472 263 c 0,4,5
 562 160 562 160 704 160 c 0,6,7
 849 160 849 160 938 263 c 0,8,9
 1010 346 1010 346 1010 480 c 2,10,-1
 1010 666 l 1,11,12
 884 548 884 548 705 548 c 0,13,14
 472 548 472 548 335 693 c 0,15,16
 200 836 200 836 200 1038 c 0,17,18
 200 1242 200 1242 335 1385 c 0,19,20
 472 1530 472 1530 705 1530 c 128,-1,21
 938 1530 938 1530 1075 1385 c 0,22,23
 1210 1242 1210 1242 1210 1040 c 2,24,-1
 1210 480 l 18,25,26
 1210 268 1210 268 1075 125 c 0,27,28
 938 -20 938 -20 705 -20 c 0,29,30
 464 -20 464 -20 335 114.5 c 128,-1,31
 206 249 206 249 206 392 c 1,0,-1
705 728 m 0,32,33
 848 728 848 728 938 831 c 0,34,35
 1010 914 1010 914 1010 1040 c 0,36,37
 1010 1163 1010 1163 938 1247 c 0,38,39
 850 1350 850 1350 705 1350 c 0,40,41
 564 1350 564 1350 472 1247 c 0,42,43
 400 1166 400 1166 400 1040 c 0,44,45
 400 915 400 915 472 831 c 0,46,47
 560 728 560 728 705 728 c 0,32,33
EndSplineSet
Validated: 1
EndChar

StartChar: colon
Encoding: 58 58 29
Width: 600
GlyphClass: 2
Flags: W
HStem: -20 245<216.097 383.903> 631 245<216.097 383.903>
VStem: 180 240<17.1285 187.871 668.129 838.871>
LayerCount: 2
Fore
SplineSet
180 753.5 m 128,-1,1
 180 804 180 804 215 840 c 128,-1,2
 250 876 250 876 300 876 c 128,-1,3
 350 876 350 876 385 840 c 128,-1,4
 420 804 420 804 420 753.5 c 128,-1,5
 420 703 420 703 385 667 c 128,-1,6
 350 631 350 631 300 631 c 128,-1,7
 250 631 250 631 215 667 c 128,-1,0
 180 703 180 703 180 753.5 c 128,-1,1
180 102.5 m 128,-1,9
 180 153 180 153 215 189 c 128,-1,10
 250 225 250 225 300 225 c 128,-1,11
 350 225 350 225 385 189 c 128,-1,12
 420 153 420 153 420 102.5 c 128,-1,13
 420 52 420 52 385 16 c 128,-1,14
 350 -20 350 -20 300 -20 c 128,-1,15
 250 -20 250 -20 215 16 c 128,-1,8
 180 52 180 52 180 102.5 c 128,-1,9
EndSplineSet
Validated: 1
EndChar

StartChar: semicolon
Encoding: 59 59 30
Width: 600
GlyphClass: 2
Flags: W
HStem: 631 245<216.097 383.903>
VStem: 180 240<668.129 838.871> 275 175<-116.943 108.616>
LayerCount: 2
Fore
SplineSet
205 -286 m 1,0,1
 162 -236 l 1,2,3
 275 -121 275 -121 275 -20 c 0,4,5
 275 101 275 101 141 188 c 1,6,7
 331 278 l 1,8,-1
 341 278 l 1,9,10
 450 171 450 171 450 34 c 0,11,12
 450 -157 450 -157 205 -286 c 1,0,1
180 753.5 m 128,-1,14
 180 804 180 804 215 840 c 128,-1,15
 250 876 250 876 300 876 c 128,-1,16
 350 876 350 876 385 840 c 128,-1,17
 420 804 420 804 420 753.5 c 128,-1,18
 420 703 420 703 385 667 c 128,-1,19
 350 631 350 631 300 631 c 128,-1,20
 250 631 250 631 215 667 c 128,-1,13
 180 703 180 703 180 753.5 c 128,-1,14
EndSplineSet
Validated: 1
EndChar

StartChar: less
Encoding: 60 60 31
Width: 1338
GlyphClass: 2
Flags: W
DStem2: 454 738 150 664 0.919983 -0.391958<0 734.13> 232 847 454 738 0.920009 0.391897<161.525 895.643>
LayerCount: 2
Fore
SplineSet
150 664 m 1,0,-1
 150 674 l 1,1,-1
 232 847 l 1,2,-1
 1056 1198 l 1,3,-1
 1138 1025 l 1,4,-1
 1138 1015 l 1,5,-1
 454 738 l 1,6,-1
 1138 461 l 1,7,-1
 1138 451 l 1,8,-1
 1056 278 l 1,9,-1
 150 664 l 1,0,-1
EndSplineSet
Validated: 1
EndChar

StartChar: equal
Encoding: 61 61 32
Width: 1214
GlyphClass: 2
Flags: W
HStem: 482 182<231 983> 846 182<231 983>
LayerCount: 2
Fore
SplineSet
150 846 m 1,0,-1
 150 856 l 1,1,-1
 231 1028 l 1,2,-1
 1064 1028 l 1,3,-1
 1064 1018 l 1,4,-1
 983 846 l 1,5,-1
 150 846 l 1,0,-1
150 482 m 1,6,-1
 150 492 l 1,7,-1
 231 664 l 1,8,-1
 1064 664 l 1,9,-1
 1064 654 l 1,10,-1
 983 482 l 1,11,-1
 150 482 l 1,6,-1
EndSplineSet
Validated: 3073
EndChar

StartChar: greater
Encoding: 62 62 33
Width: 1338
GlyphClass: 2
Flags: W
DStem2: 282 1198 200 1015 0.919983 -0.391958<0 734.13> 200 461 282 278 0.920009 0.391897<3.72358 737.842>
LayerCount: 2
Fore
SplineSet
1188 812 m 1,0,-1
 1188 802 l 1,1,-1
 1106 629 l 1,2,-1
 282 278 l 1,3,-1
 200 451 l 1,4,-1
 200 461 l 1,5,-1
 884 738 l 1,6,-1
 200 1015 l 1,7,-1
 200 1025 l 1,8,-1
 282 1198 l 1,9,-1
 1188 812 l 1,0,-1
EndSplineSet
Validated: 1
EndChar

StartChar: question
Encoding: 63 63 34
Width: 1300
GlyphClass: 2
Flags: W
HStem: -20 245<561.097 728.903> 1350 180<492.621 819.887>
VStem: 150 200<895.151 1209.78> 525 240<17.1285 187.871> 528 203<454 552.27> 952 198<909.818 1218.6>
LayerCount: 2
Fore
SplineSet
525 102.5 m 128,-1,1
 525 153 525 153 560 189 c 128,-1,2
 595 225 595 225 645 225 c 128,-1,3
 695 225 695 225 730 189 c 128,-1,4
 765 153 765 153 765 102.5 c 128,-1,5
 765 52 765 52 730 16 c 128,-1,6
 695 -20 695 -20 645 -20 c 128,-1,7
 595 -20 595 -20 560 16 c 128,-1,0
 525 52 525 52 525 102.5 c 128,-1,1
211 833 m 1,8,9
 150 941 150 941 150 1070 c 0,10,11
 150 1241 150 1241 285 1385 c 0,12,13
 422 1530 422 1530 655 1530 c 0,14,15
 891 1530 891 1530 1025 1385 c 0,16,17
 1150 1250 1150 1250 1150 1050 c 0,18,19
 1150 813 1150 813 821 591 c 24,20,21
 734 532 734 532 731 454 c 1,22,-1
 538 361 l 1,23,-1
 528 361 l 1,24,25
 529 611 529 611 703 722 c 0,26,27
 952 880 952 880 952 1051 c 0,28,29
 952 1170 952 1170 888 1247 c 0,30,31
 803 1350 803 1350 655 1350 c 0,32,33
 515 1350 515 1350 422 1247 c 0,34,35
 350 1167 350 1167 350 1047 c 0,36,37
 350 980 350 980 389 914 c 1,38,-1
 221 833 l 1,39,-1
 211 833 l 1,8,9
EndSplineSet
Validated: 1
EndChar

StartChar: at
Encoding: 64 64 35
Width: 1370
GlyphClass: 2
Flags: W
HStem: -430 180<519.998 685> -40 158<770.453 990> 514 155<771.047 987> 940 180<519.842 850.158>
VStem: 180 200<-104.754 794.754> 489 200<193.679 438.596> 990 200<118 514>
LayerCount: 2
Fore
SplineSet
990 514 m 1,0,1
 817 513 817 513 753 458.5 c 128,-1,2
 689 404 689 404 689 317 c 0,3,4
 689 231 689 231 754 173 c 0,5,6
 816 118 816 118 990 118 c 1,7,-1
 990 514 l 1,0,1
1000 -40 m 1,8,-1
 904 -40 l 1,9,10
 707 -27 707 -27 611 50 c 0,11,12
 489 148 489 148 489 300 c 0,13,14
 489 475 489 475 613 573 c 0,15,16
 718 656 718 656 904 669 c 1,17,-1
 987 669 l 1,18,19
 976 770 976 770 918 837 c 0,20,21
 829 940 829 940 685 940 c 128,-1,22
 541 940 541 940 452 837 c 0,23,24
 380 754 380 754 380 620 c 2,25,-1
 380 70 l 2,26,27
 380 -64 380 -64 452 -147 c 0,28,29
 541 -250 541 -250 685 -250 c 1,30,-1
 685 -430 l 1,31,32
 457 -430 457 -430 315 -285 c 0,33,34
 180 -147 180 -147 180 70 c 2,35,-1
 180 620 l 2,36,37
 180 837 180 837 315 975 c 0,38,39
 457 1120 457 1120 685 1120 c 128,-1,40
 913 1120 913 1120 1055 975 c 0,41,42
 1190 838 1190 838 1190 620 c 2,43,-1
 1190 50 l 1,44,-1
 1000 -40 l 1,8,-1
EndSplineSet
Validated: 1
EndChar

StartChar: A
Encoding: 65 65 36
Width: 1410
GlyphClass: 2
Flags: W
HStem: -40 21G<200 252.222 1010 1062.22> 664 182<400 1010> 1350 180<539.842 869.206>
VStem: 200 200<50 664 846 1208.25> 1010 200<50 664 846 1206.72>
LayerCount: 2
Fore
SplineSet
200 -40 m 1,0,-1
 200 1030 l 2,1,2
 200 1246 200 1246 335 1385 c 0,3,4
 477 1530 477 1530 705 1530 c 0,5,6
 929 1530 929 1530 1075 1385 c 0,7,8
 1210 1251 1210 1251 1210 1030 c 2,9,-1
 1210 50 l 1,10,-1
 1020 -40 l 1,11,-1
 1010 -40 l 1,12,-1
 1010 664 l 1,13,-1
 400 664 l 1,14,-1
 400 50 l 1,15,-1
 210 -40 l 1,16,-1
 200 -40 l 1,0,-1
400 846 m 1,17,-1
 1010 846 l 1,18,-1
 1010 1030 l 2,19,20
 1010 1164 1010 1164 938 1247 c 0,21,22
 849 1350 849 1350 705 1350 c 128,-1,23
 561 1350 561 1350 472 1247 c 0,24,25
 400 1164 400 1164 400 1030 c 2,26,-1
 400 846 l 1,17,-1
EndSplineSet
Validated: 1
EndChar

StartChar: B
Encoding: 66 66 37
Width: 1370
GlyphClass: 2
Flags: W
HStem: 0 180<400 863.001> 746 180<400 820.792> 1330 180<400 826.453>
VStem: 200 200<180 746 926 1330> 900 199<1001.89 1256.09> 990 200<301.179 618.401>
LayerCount: 2
Fore
SplineSet
400 180 m 1,0,-1
 685 180 l 2,1,2
 836 180 836 180 925 275 c 0,3,4
 990 344 990 344 990 457 c 0,5,6
 990 574 990 574 921 654 c 0,7,8
 846 746 846 746 685 746 c 2,9,-1
 400 746 l 1,10,-1
 400 180 l 1,0,-1
400 926 m 1,11,-1
 685 926 l 2,12,13
 785 926 785 926 846 991 c 0,14,15
 900 1049 900 1049 900 1142 c 0,16,17
 900 1218 900 1218 835 1279 c 0,18,19
 777 1330 777 1330 685 1330 c 2,20,-1
 400 1330 l 1,21,-1
 400 926 l 1,11,-1
200 0 m 1,22,-1
 200 1460 l 1,23,-1
 306 1510 l 1,24,-1
 685 1510 l 2,25,26
 854 1510 854 1510 966 1418 c 0,27,28
 1099 1310 1099 1310 1099 1141 c 0,29,30
 1099 969 1099 969 947 855 c 1,31,32
 996 834 996 834 1044 792 c 0,33,34
 1190 659 1190 659 1190 462 c 0,35,36
 1190 264 1190 264 1062 137 c 0,37,38
 925 0 925 0 685 0 c 2,39,-1
 200 0 l 1,22,-1
EndSplineSet
Validated: 1
EndChar

StartChar: C
Encoding: 67 67 38
Width: 1410
GlyphClass: 2
Flags: W
HStem: -20 180<539.842 870.158> 1350 180<539.842 869.02>
VStem: 200 200<305.246 1204.75> 1010 200<300.796 460 1050 1207.64>
LayerCount: 2
Fore
SplineSet
1210 550 m 1,0,-1
 1210 480 l 2,1,2
 1210 263 1210 263 1075 125 c 0,3,4
 933 -20 933 -20 705 -20 c 128,-1,5
 477 -20 477 -20 335 125 c 0,6,7
 200 263 200 263 200 480 c 2,8,-1
 200 1030 l 2,9,10
 200 1247 200 1247 335 1385 c 0,11,12
 477 1530 477 1530 705 1530 c 0,13,14
 941 1530 941 1530 1075.5 1385 c 128,-1,15
 1210 1240 1210 1240 1210 1050 c 1,16,-1
 1020 960 l 1,17,-1
 1010 960 l 1,18,-1
 1010 1030 l 18,19,20
 1010 1164 1010 1164 938 1247 c 0,21,22
 849 1350 849 1350 705 1350 c 128,-1,23
 561 1350 561 1350 472 1247 c 0,24,25
 400 1164 400 1164 400 1030 c 2,26,-1
 400 480 l 2,27,28
 400 346 400 346 472 263 c 0,29,30
 561 160 561 160 705 160 c 128,-1,31
 849 160 849 160 938 263 c 0,32,33
 1010 346 1010 346 1010 460 c 1,34,-1
 1200 550 l 1,35,-1
 1210 550 l 1,0,-1
EndSplineSet
Validated: 1
EndChar

StartChar: D
Encoding: 68 68 39
Width: 1390
GlyphClass: 2
Flags: W
HStem: 0 180<400 850.002> 1330 180<400 850.002>
VStem: 200 200<180 1330> 990 200<325.246 1185.25>
LayerCount: 2
Fore
SplineSet
200 0 m 1,0,-1
 200 1460 l 1,1,-1
 306 1510 l 1,2,-1
 685 1510 l 1,3,4
 913 1510 913 1510 1055 1365 c 0,5,6
 1190 1228 1190 1228 1190 1010 c 2,7,-1
 1190 500 l 2,8,9
 1190 283 1190 283 1055 145 c 0,10,11
 913 0 913 0 685 0 c 1,12,-1
 200 0 l 1,0,-1
400 180 m 1,13,-1
 685 180 l 1,14,15
 829 180 829 180 918 283 c 0,16,17
 990 366 990 366 990 500 c 2,18,-1
 990 1010 l 2,19,20
 990 1144 990 1144 918 1227 c 0,21,22
 829 1330 829 1330 685 1330 c 1,23,-1
 400 1330 l 1,24,-1
 400 180 l 1,13,-1
EndSplineSet
Validated: 1
EndChar

StartChar: E
Encoding: 69 69 40
Width: 1157
GlyphClass: 2
Flags: W
HStem: 0 182<400 1026> 664 182<400 859> 1328 182<400 859>
VStem: 200 200<182 664 846 1328>
CounterMasks: 1 e0
LayerCount: 2
Fore
SplineSet
200 0 m 1,0,-1
 200 1460 l 1,1,-1
 306 1510 l 1,2,-1
 940 1510 l 1,3,-1
 940 1500 l 1,4,-1
 859 1328 l 1,5,-1
 400 1328 l 1,6,-1
 400 846 l 1,7,-1
 940 846 l 1,8,-1
 940 836 l 1,9,-1
 859 664 l 1,10,-1
 400 664 l 1,11,-1
 400 182 l 1,12,-1
 1107 182 l 1,13,-1
 1107 172 l 1,14,-1
 1026 0 l 1,15,-1
 200 0 l 1,0,-1
EndSplineSet
Validated: 1
EndChar

StartChar: F
Encoding: 70 70 41
Width: 1120
GlyphClass: 2
Flags: W
HStem: -40 21G<200 252.222> 664 182<400 859> 1328 182<400 859>
VStem: 200 200<50 664 846 1328>
LayerCount: 2
Fore
SplineSet
200 -40 m 1,0,-1
 200 1460 l 1,1,-1
 306 1510 l 1,2,-1
 940 1510 l 1,3,-1
 940 1500 l 1,4,-1
 859 1328 l 1,5,-1
 400 1328 l 1,6,-1
 400 846 l 1,7,-1
 940 846 l 1,8,-1
 940 836 l 1,9,-1
 859 664 l 1,10,-1
 400 664 l 1,11,-1
 400 50 l 1,12,-1
 210 -40 l 1,13,-1
 200 -40 l 1,0,-1
EndSplineSet
Validated: 1
EndChar

StartChar: G
Encoding: 71 71 42
Width: 1410
GlyphClass: 2
Flags: W
HStem: -20 180<539.842 870.158> 664 182<743 1010> 1350 180<539.842 869.02>
VStem: 200 200<305.246 1204.75> 1010 200<300.796 664 1050 1207.64>
CounterMasks: 1 e0
LayerCount: 2
Fore
SplineSet
1210 846 m 1,0,-1
 1210 480 l 2,1,2
 1210 263 1210 263 1075 125 c 0,3,4
 933 -20 933 -20 705 -20 c 128,-1,5
 477 -20 477 -20 335 125 c 0,6,7
 200 263 200 263 200 480 c 2,8,-1
 200 1030 l 2,9,10
 200 1247 200 1247 335 1385 c 0,11,12
 477 1530 477 1530 705 1530 c 0,13,14
 941 1530 941 1530 1075.5 1385 c 128,-1,15
 1210 1240 1210 1240 1210 1050 c 1,16,-1
 1020 960 l 1,17,-1
 1010 960 l 1,18,-1
 1010 1030 l 18,19,20
 1010 1164 1010 1164 938 1247 c 0,21,22
 849 1350 849 1350 705 1350 c 128,-1,23
 561 1350 561 1350 472 1247 c 0,24,25
 400 1164 400 1164 400 1030 c 2,26,-1
 400 480 l 2,27,28
 400 346 400 346 472 263 c 0,29,30
 561 160 561 160 705 160 c 128,-1,31
 849 160 849 160 938 263 c 0,32,33
 1010 346 1010 346 1010 460 c 9,34,-1
 1010 664 l 17,35,-1
 662 664 l 1,36,-1
 662 674 l 1,37,-1
 743 846 l 1,38,-1
 1210 846 l 1,0,-1
EndSplineSet
Validated: 1
EndChar

StartChar: H
Encoding: 72 72 43
Width: 1390
GlyphClass: 2
Flags: W
HStem: -40 21G<200 252.222 990 1042.22> 664 182<400 990> 1530 20G<347.778 400 1137.78 1190>
VStem: 200 200<50 664 846 1460> 990 200<50 664 846 1460>
LayerCount: 2
Fore
SplineSet
200 -40 m 1,0,-1
 200 1460 l 1,1,-1
 390 1550 l 1,2,-1
 400 1550 l 1,3,-1
 400 846 l 1,4,-1
 990 846 l 1,5,-1
 990 1460 l 1,6,-1
 1180 1550 l 1,7,-1
 1190 1550 l 1,8,-1
 1190 50 l 1,9,-1
 1000 -40 l 1,10,-1
 990 -40 l 1,11,-1
 990 664 l 1,12,-1
 400 664 l 1,13,-1
 400 50 l 1,14,-1
 210 -40 l 1,15,-1
 200 -40 l 1,0,-1
EndSplineSet
Validated: 1
EndChar

StartChar: I
Encoding: 73 73 44
Width: 600
GlyphClass: 2
Flags: W
HStem: -40 21G<200 252.222> 1530 20G<347.778 400>
VStem: 200 200<50 1460>
LayerCount: 2
Fore
SplineSet
200 -40 m 1,0,-1
 200 1460 l 1,1,-1
 390 1550 l 1,2,-1
 400 1550 l 1,3,-1
 400 50 l 1,4,-1
 210 -40 l 1,5,-1
 200 -40 l 1,0,-1
EndSplineSet
Validated: 3073
EndChar

StartChar: J
Encoding: 74 74 45
Width: 1290
GlyphClass: 2
Flags: W
HStem: -20 180<420.556 750.158> 1328 182<398 890>
VStem: 80 200<302.331 460> 890 200<301.753 1328>
LayerCount: 2
Fore
SplineSet
80 460 m 1,0,-1
 270 550 l 1,1,-1
 280 550 l 1,2,-1
 280 480 l 2,3,4
 280 346 280 346 352 263 c 0,5,6
 441 160 441 160 585 160 c 128,-1,7
 729 160 729 160 818 263 c 0,8,9
 890 346 890 346 890 480 c 2,10,-1
 890 1328 l 17,11,-1
 317 1328 l 1,12,-1
 317 1338 l 1,13,-1
 398 1510 l 1,14,-1
 1090 1510 l 9,15,-1
 1090 480 l 2,16,17
 1090 264 1090 264 955 125 c 0,18,19
 813 -20 813 -20 585 -20 c 0,20,21
 360 -20 360 -20 215 125 c 0,22,23
 80 259 80 259 80 460 c 1,0,-1
EndSplineSet
Validated: 1
EndChar

StartChar: K
Encoding: 75 75 46
Width: 1360
GlyphClass: 2
Flags: W
HStem: -40 21G<200 252.222 980 1032.22> 704 169<685.917 841.719> 1530 20G<347.778 400 928.578 995.41>
VStem: 200 200<50 561.563 797 1460> 980 200<50 561.707>
LayerCount: 2
Fore
SplineSet
200 -40 m 1,0,-1
 200 1460 l 1,1,-1
 390 1550 l 1,2,-1
 400 1550 l 1,3,-1
 400 797 l 1,4,-1
 943 1550 l 1,5,-1
 953 1550 l 1,6,-1
 1129 1467 l 1,7,-1
 683 873 l 1,8,9
 913 868 913 868 1045 739 c 0,10,11
 1180 607 1180 607 1180 384 c 2,12,-1
 1180 50 l 1,13,-1
 990 -40 l 1,14,-1
 980 -40 l 1,15,-1
 980 384 l 2,16,17
 980 518 980 518 908 601 c 0,18,19
 819 704 819 704 690 704 c 0,20,21
 559 704 559 704 472 601 c 0,22,23
 400 516 400 516 400 384 c 2,24,-1
 400 50 l 1,25,-1
 210 -40 l 1,26,-1
 200 -40 l 1,0,-1
EndSplineSet
Validated: 1
EndChar

StartChar: L
Encoding: 76 76 47
Width: 1090
GlyphClass: 2
Flags: W
HStem: 0 182<400 1004> 1530 20G<347.778 400>
VStem: 200 200<182 1460>
LayerCount: 2
Fore
SplineSet
200 0 m 1,0,-1
 200 1460 l 1,1,-1
 390 1550 l 1,2,-1
 400 1550 l 1,3,-1
 400 182 l 1,4,-1
 1085 182 l 1,5,-1
 1085 172 l 1,6,-1
 1004 0 l 1,7,-1
 200 0 l 1,0,-1
EndSplineSet
Validated: 1
EndChar

StartChar: M
Encoding: 77 77 48
Width: 2220
GlyphClass: 2
Flags: W
HStem: -40 21G<200 252.222 1010 1062.22 1820 1872.22> 1350 180<539.842 869.135 1350.22 1679.21>
VStem: 200 200<50 1208.25> 1010 200<50 1208.25> 1820 200<50 1206.72>
CounterMasks: 1 38
LayerCount: 2
Fore
SplineSet
200 -40 m 1,0,-1
 200 1030 l 2,1,2
 200 1246 200 1246 335 1385 c 0,3,4
 477 1530 477 1530 705 1530 c 0,5,6
 911 1530 911 1530 1056 1385 c 0,7,8
 1092 1349 1092 1349 1110 1315 c 1,9,10
 1133 1350 1133 1350 1166 1382 c 0,11,12
 1317 1530 1317 1530 1515 1530 c 0,13,14
 1739 1530 1739 1530 1885 1385 c 0,15,16
 2020 1251 2020 1251 2020 1030 c 2,17,-1
 2020 50 l 1,18,-1
 1830 -40 l 1,19,-1
 1820 -40 l 1,20,-1
 1820 1030 l 2,21,22
 1820 1164 1820 1164 1748 1247 c 0,23,24
 1659 1350 1659 1350 1515 1350 c 128,-1,25
 1371 1350 1371 1350 1282 1247 c 0,26,27
 1210 1164 1210 1164 1210 1030 c 2,28,-1
 1210 50 l 1,29,-1
 1020 -40 l 1,30,-1
 1010 -40 l 1,31,-1
 1010 1030 l 2,32,33
 1010 1164 1010 1164 938 1247 c 0,34,35
 849 1350 849 1350 705 1350 c 128,-1,36
 561 1350 561 1350 472 1247 c 0,37,38
 400 1164 400 1164 400 1030 c 2,39,-1
 400 50 l 1,40,-1
 210 -40 l 1,41,-1
 200 -40 l 1,0,-1
EndSplineSet
Validated: 1
EndChar

StartChar: N
Encoding: 78 78 49
Width: 1410
GlyphClass: 2
Flags: W
HStem: -40 21G<200 252.222 1010 1062.22> 1350 180<539.842 869.444>
VStem: 200 200<50 1208.25> 1010 200<50 1206.72>
LayerCount: 2
Fore
SplineSet
200 -40 m 9,0,-1
 200 1030 l 2,1,2
 200 1246 200 1246 335 1385 c 0,3,4
 477 1530 477 1530 705 1530 c 0,5,6
 930 1530 930 1530 1075 1385 c 0,7,8
 1210 1251 1210 1251 1210 1030 c 2,9,-1
 1210 50 l 17,10,-1
 1020 -40 l 1,11,-1
 1010 -40 l 9,12,-1
 1010 1030 l 2,13,14
 1010 1164 1010 1164 938 1247 c 0,15,16
 849 1350 849 1350 705 1350 c 128,-1,17
 561 1350 561 1350 472 1247 c 0,18,19
 400 1164 400 1164 400 1030 c 2,20,-1
 400 50 l 17,21,-1
 210 -40 l 1,22,-1
 200 -40 l 9,0,-1
EndSplineSet
Validated: 1
EndChar

StartChar: O
Encoding: 79 79 50
Width: 1410
GlyphClass: 2
Flags: W
HStem: -20 180<539.842 870.158> 1350 180<539.842 870.158>
VStem: 200 200<305.246 1204.75> 1010 200<305.246 1205.25>
LayerCount: 2
Fore
SplineSet
400 480 m 2,0,1
 400 346 400 346 472 263 c 0,2,3
 561 160 561 160 705 160 c 128,-1,4
 849 160 849 160 938 263 c 0,5,6
 1010 346 1010 346 1010 480 c 2,7,-1
 1010 1030 l 2,8,9
 1010 1164 1010 1164 938 1247 c 0,10,11
 849 1350 849 1350 705 1350 c 128,-1,12
 561 1350 561 1350 472 1247 c 0,13,14
 400 1164 400 1164 400 1030 c 2,15,-1
 400 480 l 2,0,1
200 480 m 2,16,-1
 200 1030 l 2,17,18
 200 1247 200 1247 335 1385 c 0,19,20
 477 1530 477 1530 705 1530 c 128,-1,21
 933 1530 933 1530 1075 1385 c 0,22,23
 1210 1248 1210 1248 1210 1030 c 2,24,-1
 1210 480 l 2,25,26
 1210 263 1210 263 1075 125 c 0,27,28
 933 -20 933 -20 705 -20 c 128,-1,29
 477 -20 477 -20 335 125 c 0,30,31
 200 263 200 263 200 480 c 2,16,-1
EndSplineSet
Validated: 1
EndChar

StartChar: P
Encoding: 80 80 51
Width: 1340
GlyphClass: 2
Flags: W
HStem: -40 21G<200 252.222> 510 180<400 843.438> 1330 180<400 850.002>
VStem: 200 200<50 510 690 1330> 990 200<828.702 1186.5>
LayerCount: 2
Fore
SplineSet
400 690 m 1,0,-1
 685 690 l 2,1,2
 816 690 816 690 918 793 c 0,3,4
 990 866 990 866 990 1010 c 0,5,6
 990 1144 990 1144 918 1227 c 0,7,8
 829 1330 829 1330 685 1330 c 2,9,-1
 400 1330 l 1,10,-1
 400 690 l 1,0,-1
200 -40 m 1,11,-1
 200 1460 l 1,12,-1
 306 1510 l 1,13,-1
 685 1510 l 2,14,15
 913 1510 913 1510 1055 1365 c 0,16,17
 1190 1227 1190 1227 1190 1010 c 0,18,19
 1190 792 1190 792 1055 655 c 0,20,21
 912 510 912 510 685 510 c 2,22,-1
 400 510 l 1,23,-1
 400 50 l 1,24,-1
 210 -40 l 1,25,-1
 200 -40 l 1,11,-1
EndSplineSet
Validated: 1
EndChar

StartChar: Q
Encoding: 81 81 52
Width: 1410
GlyphClass: 2
Flags: W
HStem: -40 21G<963.154 1029.41> -20 180<539.842 821.503> 1350 180<539.842 870.158>
VStem: 200 200<305.246 1204.75> 1010 200<317.163 1205.25>
DStem2: 817 538 631 455 0.572907 -0.819621<0 272.149 476.771 565.406>
LayerCount: 2
Fore
SplineSet
200 480 m 2,0,-1
 200 1030 l 2,1,2
 200 1247 200 1247 335 1385 c 0,3,4
 477 1530 477 1530 705 1530 c 128,-1,5
 933 1530 933 1530 1075 1385 c 0,6,7
 1210 1248 1210 1248 1210 1030 c 2,8,-1
 1210 480 l 2,9,10
 1210 278 1210 278 1093 144 c 1,11,-1
 1163 43 l 1,12,-1
 987 -40 l 1,13,-1
 977 -40 l 1,14,-1
 932 25 l 1,15,16
 832 -20 832 -20 705 -20 c 0,17,18
 477 -20 477 -20 335 125 c 0,19,20
 200 263 200 263 200 480 c 2,0,-1
400 480 m 2,21,22
 400 346 400 346 472 263 c 0,23,24
 561 160 561 160 705 160 c 0,25,26
 769 160 769 160 823 181 c 1,27,-1
 631 455 l 1,28,-1
 807 538 l 1,29,-1
 817 538 l 1,30,-1
 973 315 l 1,31,32
 1010 384 1010 384 1010 480 c 2,33,-1
 1010 1030 l 2,34,35
 1010 1164 1010 1164 938 1247 c 0,36,37
 849 1350 849 1350 705 1350 c 128,-1,38
 561 1350 561 1350 472 1247 c 0,39,40
 400 1164 400 1164 400 1030 c 2,41,-1
 400 480 l 2,21,22
EndSplineSet
Validated: 1
EndChar

StartChar: R
Encoding: 82 82 53
Width: 1364
GlyphClass: 2
Flags: W
HStem: -40 21G<200 252.222 1014 1080.41> 510 180<400 643> 1330 180<400 850.002>
VStem: 200 200<50 510 690 1330> 990 200<828.702 1186.5>
DStem2: 868 538 643 510 0.573462 -0.819232<0 565.27>
LayerCount: 2
Fore
SplineSet
200 -40 m 1,0,-1
 200 1460 l 1,1,-1
 306 1510 l 1,2,-1
 685 1510 l 2,3,4
 913 1510 913 1510 1055 1365 c 0,5,6
 1190 1227 1190 1227 1190 1010 c 0,7,8
 1190 792 1190 792 1055 655 c 0,9,10
 975 574 975 574 868 538 c 1,11,-1
 1214 43 l 1,12,-1
 1038 -40 l 1,13,-1
 1028 -40 l 1,14,-1
 643 510 l 1,15,-1
 400 510 l 1,16,-1
 400 50 l 1,17,-1
 210 -40 l 1,18,-1
 200 -40 l 1,0,-1
400 690 m 1,19,-1
 685 690 l 2,20,21
 816 690 816 690 918 793 c 0,22,23
 990 866 990 866 990 1010 c 0,24,25
 990 1144 990 1144 918 1227 c 0,26,27
 829 1330 829 1330 685 1330 c 2,28,-1
 400 1330 l 1,29,-1
 400 690 l 1,19,-1
EndSplineSet
Validated: 1
EndChar

StartChar: S
Encoding: 83 83 54
Width: 1330
GlyphClass: 2
Flags: W
HStem: -20 180<501.718 828.056> 751 180<520.158 848.898> 1372 158<527.583 801.056>
VStem: 160 200<301.379 460> 250 200<1000.07 1293.32> 880 200<1157 1292.15> 969 200<300.12 638.584>
LayerCount: 2
Fore
SplineSet
1169 472 m 0,0,1
 1169 268 1169 268 1035 125 c 0,2,3
 898 -20 898 -20 665 -20 c 128,-1,4
 432 -20 432 -20 295 125 c 0,5,6
 160 268 160 268 160 460 c 1,7,-1
 350 550 l 1,8,-1
 360 550 l 9,9,-1
 360 468 l 18,10,11
 360 346 360 346 432 263 c 0,12,13
 521 160 521 160 665 160 c 0,14,15
 808 160 808 160 898 263 c 0,16,17
 969 344 969 344 969 470 c 0,18,19
 969 589 969 589 911 657 c 0,20,21
 831 751 831 751 665 751 c 0,22,23
 483 751 483 751 350 871 c 0,24,25
 250 961 250 961 250 1132 c 0,26,27
 250 1333 250 1333 374 1434 c 0,28,29
 492 1530 492 1530 665 1530 c 152,-1,30
 838 1530 838 1530 956 1434 c 0,31,32
 1080 1333 1080 1333 1080 1157 c 1,33,-1
 890 1067 l 1,34,-1
 880 1067 l 9,35,-1
 880 1147 l 18,36,37
 880 1261 880 1261 815 1317 c 0,38,39
 752 1372 752 1372 665 1372 c 0,40,41
 568 1372 568 1372 509 1311 c 128,-1,42
 450 1250 450 1250 450 1147 c 0,43,44
 450 1048 450 1048 495 998 c 0,45,46
 555 931 555 931 665 931 c 0,47,48
 907 931 907 931 1035 817 c 0,49,50
 1169 698 1169 698 1169 472 c 0,0,1
EndSplineSet
Validated: 1
EndChar

StartChar: T
Encoding: 84 84 55
Width: 1066
GlyphClass: 2
Flags: W
HStem: -40 21G<433 485.222> 1328 182<86 433 633 980>
VStem: 433 200<50 1328>
LayerCount: 2
Fore
SplineSet
433 -40 m 1,0,-1
 433 1328 l 1,1,-1
 5 1328 l 1,2,-1
 5 1338 l 1,3,-1
 86 1510 l 1,4,-1
 1061 1510 l 1,5,-1
 1061 1500 l 1,6,-1
 980 1328 l 1,7,-1
 633 1328 l 1,8,-1
 633 50 l 1,9,-1
 443 -40 l 1,10,-1
 433 -40 l 1,0,-1
EndSplineSet
Validated: 1
EndChar

StartChar: U
Encoding: 85 85 56
Width: 1410
GlyphClass: 2
Flags: W
HStem: -20 180<540.556 870.158> 1530 20G<347.778 400 1157.78 1210>
VStem: 200 200<303.277 1460> 1010 200<301.753 1460>
LayerCount: 2
Fore
SplineSet
1210 1550 m 9,0,-1
 1210 480 l 2,1,2
 1210 264 1210 264 1075 125 c 0,3,4
 933 -20 933 -20 705 -20 c 0,5,6
 480 -20 480 -20 335 125 c 0,7,8
 200 259 200 259 200 480 c 2,9,-1
 200 1460 l 17,10,-1
 390 1550 l 1,11,-1
 400 1550 l 9,12,-1
 400 480 l 2,13,14
 400 346 400 346 472 263 c 0,15,16
 561 160 561 160 705 160 c 128,-1,17
 849 160 849 160 938 263 c 0,18,19
 1010 346 1010 346 1010 480 c 2,20,-1
 1010 1460 l 17,21,-1
 1200 1550 l 1,22,-1
 1210 1550 l 9,0,-1
EndSplineSet
Validated: 1
EndChar

StartChar: V
Encoding: 86 86 57
Width: 1181
GlyphClass: 2
Flags: W
HStem: -40 21G<508.236 567.195> 1530 20G<135.805 194.592 986.774 1045.2>
DStem2: 188 1550 5 1468 0.320371 -0.947292<19.0501 1322.43>
LayerCount: 2
Fore
SplineSet
515 -40 m 1,0,-1
 5 1468 l 1,1,-1
 178 1550 l 1,2,-1
 188 1550 l 1,3,-1
 602 294 l 1,4,-1
 993 1550 l 1,5,-1
 1003 1550 l 1,6,-1
 1176 1468 l 1,7,-1
 698 42 l 1,8,-1
 525 -40 l 1,9,-1
 515 -40 l 1,0,-1
EndSplineSet
Validated: 1
EndChar

StartChar: W
Encoding: 87 87 58
Width: 2220
GlyphClass: 2
Flags: W
HStem: -20 180<540.794 869.784 1350.87 1680.16> 1530 20G<347.778 400 1157.78 1210 1967.78 2020>
VStem: 200 200<303.277 1460> 1010 200<301.753 1460> 1820 200<301.753 1460>
CounterMasks: 1 38
LayerCount: 2
Fore
SplineSet
2020 1550 m 1,0,-1
 2020 480 l 2,1,2
 2020 264 2020 264 1885 125 c 0,3,4
 1743 -20 1743 -20 1515 -20 c 0,5,6
 1309 -20 1309 -20 1164 125 c 0,7,8
 1128 161 1128 161 1110 195 c 1,9,10
 1087 160 1087 160 1054 128 c 0,11,12
 903 -20 903 -20 705 -20 c 0,13,14
 481 -20 481 -20 335 125 c 0,15,16
 200 259 200 259 200 480 c 2,17,-1
 200 1460 l 1,18,-1
 390 1550 l 1,19,-1
 400 1550 l 1,20,-1
 400 480 l 2,21,22
 400 346 400 346 472 263 c 0,23,24
 561 160 561 160 705 160 c 128,-1,25
 849 160 849 160 938 263 c 0,26,27
 1010 346 1010 346 1010 480 c 2,28,-1
 1010 1460 l 1,29,-1
 1200 1550 l 1,30,-1
 1210 1550 l 1,31,-1
 1210 480 l 2,32,33
 1210 346 1210 346 1282 263 c 0,34,35
 1371 160 1371 160 1515 160 c 128,-1,36
 1659 160 1659 160 1748 263 c 0,37,38
 1820 346 1820 346 1820 480 c 2,39,-1
 1820 1460 l 1,40,-1
 2010 1550 l 1,41,-1
 2020 1550 l 1,0,-1
EndSplineSet
Validated: 1
EndChar

StartChar: X
Encoding: 88 88 59
Width: 1278
GlyphClass: 2
Flags: W
HStem: -40 21G<231.561 295.489 982.511 1046.44> 578 354<462 816> 1530 20G<232.831 296.456 981.544 1045.17>
DStem2: 285 1550 100 1467 0.509537 -0.860449<0 712.133 1016.73 1729.38> 100 42 284 -40 0.509537 0.860449<23.1979 735.841 1040.44 1752.57>
LayerCount: 2
Fore
SplineSet
274 -40 m 1,0,-1
 100 42 l 1,1,-1
 522 755 l 1,2,-1
 100 1467 l 1,3,-1
 275 1550 l 1,4,-1
 285 1550 l 1,5,-1
 639 932 l 1,6,-1
 993 1550 l 1,7,-1
 1003 1550 l 1,8,-1
 1178 1467 l 1,9,-1
 756 755 l 1,10,-1
 1178 42 l 1,11,-1
 1004 -40 l 1,12,-1
 994 -40 l 1,13,-1
 639 578 l 1,14,-1
 284 -40 l 1,15,-1
 274 -40 l 1,0,-1
EndSplineSet
Validated: 1
EndChar

StartChar: Y
Encoding: 89 89 60
Width: 1310
GlyphClass: 2
Flags: W
HStem: -40 21G<555 607.222> 484 172<493.034 555 755 822.949> 1530 20G<297.778 350 1107.78 1160>
VStem: 150 200<798.785 1460> 555 200<50 491.828> 960 200<801.738 1460>
CounterMasks: 1 1c
LayerCount: 2
Fore
SplineSet
555 -40 m 1,0,-1
 555 484 l 1,1,2
 398 510 398 510 285 621 c 0,3,4
 150 754 150 754 150 976 c 2,5,-1
 150 1460 l 1,6,-1
 340 1550 l 1,7,-1
 350 1550 l 1,8,-1
 350 976 l 2,9,10
 350 842 350 842 422 759 c 0,11,12
 511 656 511 656 655 656 c 0,13,14
 807 656 807 656 888 759 c 0,15,16
 960 851 960 851 960 976 c 2,17,-1
 960 1460 l 1,18,-1
 1150 1550 l 1,19,-1
 1160 1550 l 1,20,-1
 1160 976 l 2,21,22
 1160 760 1160 760 1025 621 c 0,23,24
 916 509 916 509 755 484 c 1,25,-1
 755 50 l 1,26,-1
 565 -40 l 1,27,-1
 555 -40 l 1,0,-1
EndSplineSet
Validated: 1
EndChar

StartChar: Z
Encoding: 90 90 61
Width: 1267
GlyphClass: 2
Flags: W
HStem: 0 182<457 1036> 1328 182<241 797>
DStem2: 150 10 457 182 0.442307 0.896863<290.049 1468.24>
LayerCount: 2
Fore
SplineSet
150 0 m 1,0,-1
 150 10 l 1,1,-1
 797 1328 l 1,2,-1
 160 1328 l 1,3,-1
 160 1338 l 1,4,-1
 241 1510 l 1,5,-1
 1107 1510 l 1,6,-1
 1107 1500 l 1,7,-1
 457 182 l 1,8,-1
 1117 182 l 1,9,-1
 1117 172 l 1,10,-1
 1036 0 l 1,11,-1
 150 0 l 1,0,-1
EndSplineSet
Validated: 1
EndChar

StartChar: bracketleft
Encoding: 91 91 62
Width: 864
GlyphClass: 2
Flags: W
HStem: -240 140<400 753> 1610 140<400 753>
VStem: 200 200<-100 1610>
LayerCount: 2
Fore
SplineSet
200 -240 m 1,0,-1
 200 1660 l 1,1,-1
 390 1750 l 1,2,-1
 814 1750 l 1,3,-1
 814 1740 l 1,4,-1
 753 1610 l 1,5,-1
 400 1610 l 1,6,-1
 400 -100 l 1,7,-1
 814 -100 l 1,8,-1
 814 -110 l 1,9,-1
 753 -240 l 1,10,-1
 200 -240 l 1,0,-1
EndSplineSet
Validated: 3073
EndChar

StartChar: backslash
Encoding: 92 92 63
Width: 974
GlyphClass: 2
Flags: W
DStem2: 161 1650 10 1582 0.422626 -0.906304<0 1897.41>
LayerCount: 2
Fore
SplineSet
812 -140 m 1,0,-1
 10 1582 l 1,1,-1
 151 1650 l 1,2,-1
 161 1650 l 1,3,-1
 964 -72 l 1,4,-1
 822 -140 l 1,5,-1
 812 -140 l 1,0,-1
EndSplineSet
Validated: 3073
EndChar

StartChar: bracketright
Encoding: 93 93 64
Width: 864
GlyphClass: 2
Flags: W
HStem: -240 140<111 464> 1610 140<111 464>
VStem: 464 200<-100 1610>
LayerCount: 2
Fore
SplineSet
50 -240 m 1,0,-1
 50 -230 l 1,1,-1
 111 -100 l 1,2,-1
 464 -100 l 1,3,-1
 464 1610 l 1,4,-1
 50 1610 l 1,5,-1
 50 1620 l 1,6,-1
 111 1750 l 1,7,-1
 664 1750 l 1,8,-1
 664 -150 l 1,9,-1
 474 -240 l 1,10,-1
 50 -240 l 1,0,-1
EndSplineSet
Validated: 3073
EndChar

StartChar: asciicircum
Encoding: 94 94 65
Width: 1321
GlyphClass: 2
Flags: W
HStem: 1006 544
DStem2: 150 1088 333 1006 0.705239 0.70897<70.9231 529.119> 711 1550 659 1328 0.705571 -0.708639<120.628 580.943>
LayerCount: 2
Fore
SplineSet
150 1088 m 1,0,-1
 528 1468 l 1,1,-1
 701 1550 l 1,2,-1
 711 1550 l 1,3,-1
 1171 1088 l 1,4,-1
 998 1006 l 1,5,-1
 988 1006 l 1,6,-1
 659 1328 l 1,7,-1
 333 1006 l 1,8,-1
 323 1006 l 1,9,-1
 150 1088 l 1,0,-1
EndSplineSet
Validated: 1
EndChar

StartChar: underscore
Encoding: 95 95 66
Width: 1214
GlyphClass: 2
Flags: W
HStem: -410 182<231 983>
LayerCount: 2
Fore
SplineSet
150 -410 m 1,0,-1
 150 -400 l 1,1,-1
 231 -228 l 1,2,-1
 1064 -228 l 1,3,-1
 1064 -238 l 1,4,-1
 983 -410 l 1,5,-1
 150 -410 l 1,0,-1
EndSplineSet
Validated: 3073
EndChar

StartChar: grave
Encoding: 96 96 67
Width: 648
GlyphClass: 2
Flags: W
HStem: 1150 400
VStem: 150 348
LayerCount: 2
Fore
SplineSet
326 1550 m 1,0,-1
 336 1550 l 1,1,-1
 498 1205 l 1,2,-1
 381 1150 l 1,3,-1
 371 1150 l 1,4,-1
 150 1466 l 1,5,-1
 326 1550 l 1,0,-1
EndSplineSet
Validated: 3073
EndChar

StartChar: a
Encoding: 97 97 68
Width: 1060
GlyphClass: 2
Flags: W
HStem: -40 21G<710 762.222> -20 177<361.724 633.262> 560 180<368.395 631.136> 942 178<332 636.46>
VStem: 100 196<224.391 487.138> 710 200<50 65 234.391 483.746 655 865.737>
LayerCount: 2
Fore
SplineSet
910 50 m 1,0,-1
 720 -40 l 1,1,-1
 710 -40 l 1,2,-1
 710 65 l 1,3,4
 630 -20 630 -20 495 -20 c 0,5,6
 308 -20 308 -20 204 93 c 128,-1,7
 100 206 100 206 100 360 c 0,8,9
 100 520 100 520 213 632 c 0,10,11
 322 740 322 740 495 740 c 0,12,13
 618 740 618 740 710 655 c 1,14,15
 710 832 710 832 648 888 c 0,16,17
 588 942 588 942 495 942 c 2,18,-1
 252 942 l 1,19,-1
 252 952 l 1,20,-1
 332 1120 l 1,21,-1
 495 1120 l 2,22,23
 670 1120 670 1120 786 1007 c 0,24,25
 910 886 910 886 910 720 c 2,26,-1
 910 50 l 1,0,-1
296 360 m 0,27,28
 296 271 296 271 350 213 c 0,29,30
 402 157 402 157 496 157 c 0,31,32
 594 157 594 157 648 214 c 0,33,34
 708 278 708 278 708 358 c 0,35,36
 708 448 708 448 646 504 c 128,-1,37
 584 560 584 560 497 560 c 0,38,39
 406 560 406 560 351 501 c 128,-1,40
 296 442 296 442 296 360 c 0,27,28
EndSplineSet
Validated: 1
EndChar

StartChar: b
Encoding: 98 98 69
Width: 1180
GlyphClass: 2
Flags: W
HStem: -20 178<474.306 756.186> 942 178<474.899 755.694> 1530 20G<347.778 400>
VStem: 200 200<229.72 870.28 1035 1460> 830 200<230.245 870.28>
LayerCount: 2
Fore
SplineSet
200 380 m 2,0,-1
 200 1460 l 1,1,-1
 390 1550 l 1,2,-1
 400 1550 l 1,3,-1
 400 1035 l 1,4,5
 476 1120 476 1120 615 1120 c 0,6,7
 788 1120 788 1120 906 1007 c 0,8,9
 1030 887 1030 887 1030 720 c 2,10,-1
 1030 380 l 2,11,12
 1030 215 1030 215 906 93 c 0,13,14
 790 -20 790 -20 615 -20 c 0,15,16
 442 -20 442 -20 324 93 c 0,17,18
 200 213 200 213 200 380 c 2,0,-1
400 380 m 2,19,20
 400 265 400 265 462.5 211.5 c 128,-1,21
 525 158 525 158 615 158 c 128,-1,22
 705 158 705 158 767.5 211.5 c 128,-1,23
 830 265 830 265 830 380 c 2,24,-1
 830 720 l 2,25,26
 830 835 830 835 767.5 888.5 c 128,-1,27
 705 942 705 942 615 942 c 128,-1,28
 525 942 525 942 462.5 888.5 c 128,-1,29
 400 835 400 835 400 720 c 2,30,-1
 400 380 l 2,19,20
EndSplineSet
Validated: 1
EndChar

StartChar: c
Encoding: 99 99 70
Width: 1130
GlyphClass: 2
Flags: W
HStem: -20 178<424.306 703.848> 942 178<423.814 705.201>
VStem: 150 200<229.72 870.255> 780 200<230.245 353 747 867.781>
LayerCount: 2
Fore
SplineSet
980 443 m 1,0,-1
 980 380 l 2,1,2
 980 215 980 215 856 93 c 0,3,4
 740 -20 740 -20 565 -20 c 0,5,6
 392 -20 392 -20 274 93 c 0,7,8
 150 213 150 213 150 380 c 2,9,-1
 150 720 l 2,10,11
 150 886 150 886 274 1007 c 0,12,13
 390 1120 390 1120 565 1120 c 0,14,15
 736 1120 736 1120 856 1007 c 0,16,17
 980 890 980 890 980 749 c 9,18,-1
 980 747 l 1,19,-1
 790 657 l 1,20,-1
 780 657 l 9,21,-1
 780 720 l 18,22,23
 780 835 780 835 717.5 888.5 c 128,-1,24
 655 942 655 942 565 942 c 128,-1,25
 475 942 475 942 412.5 888.5 c 128,-1,26
 350 835 350 835 350 720 c 2,27,-1
 350 380 l 2,28,29
 350 265 350 265 412.5 211.5 c 128,-1,30
 475 158 475 158 565 158 c 128,-1,31
 655 158 655 158 717.5 212 c 128,-1,32
 780 266 780 266 780 353 c 1,33,-1
 970 443 l 1,34,-1
 980 443 l 1,0,-1
EndSplineSet
Validated: 1
EndChar

StartChar: d
Encoding: 100 100 71
Width: 1180
GlyphClass: 2
Flags: W
HStem: -20 178<424.306 706.186> 942 178<423.814 705.008> 1530 20G<927.778 980>
VStem: 150 200<229.72 869.755> 780 200<230.245 870.28 1035 1460>
LayerCount: 2
Fore
SplineSet
350 380 m 2,0,1
 350 265 350 265 412.5 211.5 c 128,-1,2
 475 158 475 158 565 158 c 128,-1,3
 655 158 655 158 717.5 211.5 c 128,-1,4
 780 265 780 265 780 380 c 2,5,-1
 780 720 l 2,6,7
 780 835 780 835 717.5 888.5 c 128,-1,8
 655 942 655 942 565 942 c 128,-1,9
 475 942 475 942 412.5 888.5 c 128,-1,10
 350 835 350 835 350 720 c 2,11,-1
 350 380 l 2,0,1
150 380 m 2,12,-1
 150 720 l 2,13,14
 150 885 150 885 274 1007 c 0,15,16
 390 1120 390 1120 565 1120 c 0,17,18
 697 1120 697 1120 780 1035 c 1,19,-1
 780 1460 l 1,20,-1
 970 1550 l 1,21,-1
 980 1550 l 1,22,-1
 980 380 l 2,23,24
 980 215 980 215 856 93 c 0,25,26
 740 -20 740 -20 565 -20 c 0,27,28
 392 -20 392 -20 274 93 c 0,29,30
 150 213 150 213 150 380 c 2,12,-1
EndSplineSet
Validated: 1
EndChar

StartChar: e
Encoding: 101 101 72
Width: 1130
GlyphClass: 2
Flags: W
HStem: -20 178<424.101 703.848> 942 178<423.814 705.161>
VStem: 150 200<471 869.755> 780 200<230.245 353>
DStem2: 350 471 370 269 0.787124 0.616795<0 547.606>
LayerCount: 2
Fore
SplineSet
980 443 m 1,0,-1
 980 380 l 2,1,2
 980 215 980 215 856 93 c 0,3,4
 740 -20 740 -20 565 -20 c 0,5,6
 392 -20 392 -20 274 93 c 0,7,8
 150 213 150 213 150 380 c 2,9,-1
 150 720 l 2,10,11
 150 885 150 885 274 1007 c 0,12,13
 390 1120 390 1120 565 1120 c 0,14,15
 735 1120 735 1120 856 1007 c 0,16,17
 980 891 980 891 980 749 c 9,18,-1
 980 747 l 1,19,-1
 370 269 l 1,20,21
 385 235 385 235 412 212 c 0,22,23
 475 158 475 158 565 158 c 128,-1,24
 655 158 655 158 717.5 212 c 128,-1,25
 780 266 780 266 780 353 c 1,26,-1
 970 443 l 1,27,-1
 980 443 l 1,0,-1
350 471 m 1,28,-1
 768 810 l 1,29,30
 752 859 752 859 718 888 c 0,31,32
 655 942 655 942 565 942 c 128,-1,33
 475 942 475 942 412.5 888.5 c 128,-1,34
 350 835 350 835 350 720 c 2,35,-1
 350 471 l 1,28,-1
EndSplineSet
Validated: 1
EndChar

StartChar: f
Encoding: 102 102 73
Width: 850
GlyphClass: 2
Flags: W
HStem: -40 21G<200 252.222> 818 182<131 200 400 650> 1352 178<474.05 670>
VStem: 200 200<50 818 1000 1279.66>
LayerCount: 2
Fore
SplineSet
200 -40 m 1,0,-1
 200 818 l 1,1,-1
 50 818 l 1,2,-1
 50 828 l 1,3,-1
 131 1000 l 1,4,-1
 200 1000 l 1,5,-1
 200 1130 l 2,6,7
 200 1295 200 1295 324 1417 c 0,8,9
 440 1530 440 1530 615 1530 c 2,10,-1
 750 1530 l 1,11,-1
 750 1520 l 1,12,-1
 670 1352 l 1,13,-1
 615 1352 l 2,14,15
 525 1352 525 1352 462 1298 c 0,16,17
 400 1244 400 1244 400 1130 c 2,18,-1
 400 1000 l 1,19,-1
 731 1000 l 1,20,-1
 731 990 l 1,21,-1
 650 818 l 1,22,-1
 400 818 l 1,23,-1
 400 50 l 1,24,-1
 210 -40 l 1,25,-1
 200 -40 l 1,0,-1
EndSplineSet
Validated: 1
EndChar

StartChar: g
Encoding: 103 103 74
Width: 1160
GlyphClass: 2
Flags: W
HStem: -430 178<337 705.54> -20 178<424.306 705.101> 942 178<423.814 706.186>
VStem: 150 200<229.72 869.755> 780 200<-179.755 65 229.72 870.255>
LayerCount: 2
Fore
SplineSet
350 380 m 2,0,1
 350 265 350 265 412.5 211.5 c 128,-1,2
 475 158 475 158 565 158 c 128,-1,3
 655 158 655 158 717.5 211.5 c 128,-1,4
 780 265 780 265 780 380 c 2,5,-1
 780 720 l 2,6,7
 780 835 780 835 717.5 888.5 c 128,-1,8
 655 942 655 942 565 942 c 128,-1,9
 475 942 475 942 412.5 888.5 c 128,-1,10
 350 835 350 835 350 720 c 2,11,-1
 350 380 l 2,0,1
150 380 m 2,12,-1
 150 720 l 2,13,14
 150 885 150 885 274 1007 c 0,15,16
 390 1120 390 1120 565 1120 c 128,-1,17
 740 1120 740 1120 856 1007 c 0,18,19
 980 886 980 886 980 720 c 2,20,-1
 980 -30 l 2,21,22
 980 -195 980 -195 856 -317 c 0,23,24
 740 -430 740 -430 565 -430 c 2,25,-1
 257 -430 l 1,26,-1
 257 -420 l 1,27,-1
 337 -252 l 1,28,-1
 565 -252 l 2,29,30
 655 -252 655 -252 717.5 -198.5 c 128,-1,31
 780 -145 780 -145 780 -30 c 2,32,-1
 780 65 l 1,33,34
 704 -20 704 -20 565 -20 c 0,35,36
 392 -20 392 -20 274 93 c 0,37,38
 150 213 150 213 150 380 c 2,12,-1
EndSplineSet
Validated: 1
EndChar

StartChar: h
Encoding: 104 104 75
Width: 1180
GlyphClass: 2
Flags: W
HStem: -40 21G<200 252.222 830 882.222> 942 178<474.655 755.694> 1530 20G<347.778 400>
VStem: 200 200<50 870.28 1035 1460> 830 200<50 870.28>
LayerCount: 2
Fore
SplineSet
200 -40 m 1,0,-1
 200 1460 l 1,1,-1
 390 1550 l 1,2,-1
 400 1550 l 1,3,-1
 400 1035 l 1,4,5
 475 1120 475 1120 615 1120 c 0,6,7
 788 1120 788 1120 906 1007 c 0,8,9
 1030 887 1030 887 1030 720 c 2,10,-1
 1030 50 l 1,11,-1
 840 -40 l 1,12,-1
 830 -40 l 1,13,-1
 830 720 l 2,14,15
 830 835 830 835 767.5 888.5 c 128,-1,16
 705 942 705 942 615 942 c 128,-1,17
 525 942 525 942 462.5 888.5 c 128,-1,18
 400 835 400 835 400 720 c 2,19,-1
 400 50 l 1,20,-1
 210 -40 l 1,21,-1
 200 -40 l 1,0,-1
EndSplineSet
Validated: 1
EndChar

StartChar: i
Encoding: 105 105 76
Width: 600
GlyphClass: 2
Flags: W
HStem: -40 21G<200 252.222> 1120 20G<347.778 400> 1285 245<216.097 383.903>
VStem: 180 240<1322.13 1492.87> 200 200<50 1050>
LayerCount: 2
Fore
SplineSet
180 1407.5 m 128,-1,1
 180 1458 180 1458 215 1494 c 128,-1,2
 250 1530 250 1530 300 1530 c 128,-1,3
 350 1530 350 1530 385 1494 c 128,-1,4
 420 1458 420 1458 420 1407.5 c 128,-1,5
 420 1357 420 1357 385 1321 c 128,-1,6
 350 1285 350 1285 300 1285 c 128,-1,7
 250 1285 250 1285 215 1321 c 128,-1,0
 180 1357 180 1357 180 1407.5 c 128,-1,1
200 -40 m 1,8,-1
 200 1050 l 1,9,-1
 390 1140 l 1,10,-1
 400 1140 l 1,11,-1
 400 50 l 1,12,-1
 210 -40 l 1,13,-1
 200 -40 l 1,8,-1
EndSplineSet
Validated: 1
EndChar

StartChar: j
Encoding: 106 106 77
Width: 600
GlyphClass: 2
Flags: W
HStem: -450 21G<-15 72.5> 1120 20G<347.778 400> 1285 245<216.097 383.903>
VStem: 180 240<1322.13 1492.87> 200 200<-199.66 1050>
LayerCount: 2
Fore
SplineSet
180 1407.5 m 128,-1,1
 180 1458 180 1458 215 1494 c 128,-1,2
 250 1530 250 1530 300 1530 c 128,-1,3
 350 1530 350 1530 385 1494 c 128,-1,4
 420 1458 420 1458 420 1407.5 c 128,-1,5
 420 1357 420 1357 385 1321 c 128,-1,6
 350 1285 350 1285 300 1285 c 128,-1,7
 250 1285 250 1285 215 1321 c 128,-1,0
 180 1357 180 1357 180 1407.5 c 128,-1,1
-15 -450 m 1,8,-1
 -15 -440 l 1,9,-1
 70 -258 l 1,10,11
 108 -243 108 -243 138 -218 c 0,12,13
 200 -164 200 -164 200 -50 c 2,14,-1
 200 1050 l 1,15,-1
 390 1140 l 1,16,-1
 400 1140 l 1,17,-1
 400 -50 l 2,18,19
 400 -215 400 -215 276 -337 c 0,20,21
 160 -450 160 -450 -15 -450 c 1,8,-1
EndSplineSet
Validated: 1
EndChar

StartChar: k
Encoding: 107 107 78
Width: 1180
GlyphClass: 2
Flags: W
HStem: -40 21G<200 252.222 830 882.222> 1120 20G<798.236 870.41> 1530 20G<347.778 400>
VStem: 200 200<50 521.66 717 1460> 830 200<50 522.28>
LayerCount: 2
Fore
SplineSet
200 -40 m 1,0,-1
 200 1460 l 1,1,-1
 390 1550 l 1,2,-1
 400 1550 l 1,3,-1
 400 717 l 1,4,-1
 818 1140 l 1,5,-1
 828 1140 l 1,6,-1
 1004 1057 l 1,7,-1
 672 752 l 1,8,9
 814 733 814 733 906 659 c 0,10,11
 1030 557 1030 557 1030 372 c 2,12,-1
 1030 50 l 1,13,-1
 840 -40 l 1,14,-1
 830 -40 l 1,15,-1
 830 372 l 2,16,17
 830 487 830 487 767.5 540.5 c 128,-1,18
 705 594 705 594 615 594 c 128,-1,19
 525 594 525 594 462 540 c 0,20,21
 400 486 400 486 400 372 c 2,22,-1
 400 50 l 1,23,-1
 210 -40 l 1,24,-1
 200 -40 l 1,0,-1
EndSplineSet
Validated: 1
EndChar

StartChar: l
Encoding: 108 108 79
Width: 600
GlyphClass: 2
Flags: W
HStem: -40 21G<200 252.222> 1530 20G<347.778 400>
VStem: 200 200<50 1460>
LayerCount: 2
Fore
SplineSet
200 -40 m 1,0,-1
 200 1460 l 1,1,-1
 390 1550 l 1,2,-1
 400 1550 l 1,3,-1
 400 50 l 1,4,-1
 210 -40 l 1,5,-1
 200 -40 l 1,0,-1
EndSplineSet
Validated: 3073
EndChar

StartChar: m
Encoding: 109 109 80
Width: 1760
GlyphClass: 2
Flags: W
HStem: -40 21G<150 202.222 780 832.222 1410 1462.22> 942 178<423.814 705.077 1055.01 1335.69>
VStem: 150 200<50 869.755> 780 200<50 870.28> 1410 200<50 870.28>
CounterMasks: 1 38
LayerCount: 2
Fore
SplineSet
150 -40 m 1,0,-1
 150 720 l 2,1,2
 150 885 150 885 274 1007 c 0,3,4
 390 1120 390 1120 565 1120 c 0,5,6
 724 1120 724 1120 840 1004 c 0,7,8
 862 982 862 982 880 952 c 1,9,10
 898 981 898 981 920 1003 c 0,11,12
 1045 1120 1045 1120 1195 1120 c 0,13,14
 1368 1120 1368 1120 1486 1007 c 0,15,16
 1610 887 1610 887 1610 720 c 2,17,-1
 1610 50 l 1,18,-1
 1420 -40 l 1,19,-1
 1410 -40 l 1,20,-1
 1410 720 l 2,21,22
 1410 835 1410 835 1347.5 888.5 c 128,-1,23
 1285 942 1285 942 1195 942 c 128,-1,24
 1105 942 1105 942 1042.5 888.5 c 128,-1,25
 980 835 980 835 980 720 c 2,26,-1
 980 50 l 1,27,-1
 790 -40 l 1,28,-1
 780 -40 l 1,29,-1
 780 720 l 2,30,31
 780 835 780 835 717.5 888.5 c 128,-1,32
 655 942 655 942 565 942 c 128,-1,33
 475 942 475 942 412.5 888.5 c 128,-1,34
 350 835 350 835 350 720 c 2,35,-1
 350 50 l 1,36,-1
 160 -40 l 1,37,-1
 150 -40 l 1,0,-1
EndSplineSet
Validated: 1
EndChar

StartChar: n
Encoding: 110 110 81
Width: 1130
GlyphClass: 2
Flags: W
HStem: -40 21G<150 202.222 780 832.222> 942 178<423.814 705.694>
VStem: 150 200<50 869.755> 780 200<50 870.28>
LayerCount: 2
Fore
SplineSet
150 -40 m 9,0,-1
 150 720 l 2,1,2
 150 885 150 885 274 1007 c 0,3,4
 390 1120 390 1120 565 1120 c 0,5,6
 738 1120 738 1120 856 1007 c 0,7,8
 980 887 980 887 980 720 c 2,9,-1
 980 50 l 17,10,-1
 790 -40 l 1,11,-1
 780 -40 l 9,12,-1
 780 720 l 2,13,14
 780 835 780 835 717.5 888.5 c 128,-1,15
 655 942 655 942 565 942 c 128,-1,16
 475 942 475 942 412.5 888.5 c 128,-1,17
 350 835 350 835 350 720 c 2,18,-1
 350 50 l 17,19,-1
 160 -40 l 1,20,-1
 150 -40 l 9,0,-1
EndSplineSet
Validated: 1
EndChar

StartChar: o
Encoding: 111 111 82
Width: 1130
GlyphClass: 2
Flags: W
HStem: -20 178<424.306 706.186> 942 178<423.814 705.694>
VStem: 150 200<229.72 869.755> 780 200<230.245 870.28>
LayerCount: 2
Fore
SplineSet
150 380 m 2,0,-1
 150 720 l 2,1,2
 150 885 150 885 274 1007 c 0,3,4
 390 1120 390 1120 565 1120 c 0,5,6
 738 1120 738 1120 856 1007 c 0,7,8
 980 887 980 887 980 720 c 2,9,-1
 980 380 l 2,10,11
 980 215 980 215 856 93 c 0,12,13
 740 -20 740 -20 565 -20 c 0,14,15
 392 -20 392 -20 274 93 c 0,16,17
 150 213 150 213 150 380 c 2,0,-1
350 380 m 2,18,19
 350 265 350 265 412.5 211.5 c 128,-1,20
 475 158 475 158 565 158 c 128,-1,21
 655 158 655 158 717.5 211.5 c 128,-1,22
 780 265 780 265 780 380 c 10,23,-1
 780 720 l 2,24,25
 780 835 780 835 717.5 888.5 c 128,-1,26
 655 942 655 942 565 942 c 128,-1,27
 475 942 475 942 412.5 888.5 c 128,-1,28
 350 835 350 835 350 720 c 2,29,-1
 350 380 l 2,18,19
EndSplineSet
Validated: 1
EndChar

StartChar: p
Encoding: 112 112 83
Width: 1180
GlyphClass: 2
Flags: W
HStem: -450 21G<200 252.222> -20 178<474.992 756.186> 942 178<473.814 755.694>
VStem: 200 200<-360 65 229.72 869.755> 830 200<230.245 870.28>
LayerCount: 2
Fore
SplineSet
830 720 m 2,0,1
 830 835 830 835 767.5 888.5 c 128,-1,2
 705 942 705 942 615 942 c 128,-1,3
 525 942 525 942 462.5 888.5 c 128,-1,4
 400 835 400 835 400 720 c 2,5,-1
 400 380 l 2,6,7
 400 265 400 265 462.5 211.5 c 128,-1,8
 525 158 525 158 615 158 c 128,-1,9
 705 158 705 158 767.5 211.5 c 128,-1,10
 830 265 830 265 830 380 c 2,11,-1
 830 720 l 2,0,1
1030 720 m 2,12,-1
 1030 380 l 2,13,14
 1030 215 1030 215 906 93 c 0,15,16
 790 -20 790 -20 615 -20 c 0,17,18
 483 -20 483 -20 400 65 c 1,19,-1
 400 -360 l 1,20,-1
 210 -450 l 1,21,-1
 200 -450 l 1,22,-1
 200 720 l 2,23,24
 200 885 200 885 324 1007 c 0,25,26
 440 1120 440 1120 615 1120 c 0,27,28
 788 1120 788 1120 906 1007 c 0,29,30
 1030 887 1030 887 1030 720 c 2,12,-1
EndSplineSet
Validated: 1
EndChar

StartChar: q
Encoding: 113 113 84
Width: 1180
GlyphClass: 2
Flags: W
HStem: -450 21G<780 832.222> -20 178<424.306 705.101> 942 178<423.814 705.694>
VStem: 150 200<229.72 869.755> 780 200<-360 65 229.72 870.28>
LayerCount: 2
Fore
SplineSet
980 720 m 2,0,-1
 980 -360 l 1,1,-1
 790 -450 l 1,2,-1
 780 -450 l 1,3,-1
 780 65 l 1,4,5
 704 -20 704 -20 565 -20 c 0,6,7
 392 -20 392 -20 274 93 c 0,8,9
 150 213 150 213 150 380 c 2,10,-1
 150 720 l 2,11,12
 150 885 150 885 274 1007 c 0,13,14
 390 1120 390 1120 565 1120 c 0,15,16
 738 1120 738 1120 856 1007 c 0,17,18
 980 887 980 887 980 720 c 2,0,-1
780 720 m 2,19,20
 780 835 780 835 717.5 888.5 c 128,-1,21
 655 942 655 942 565 942 c 128,-1,22
 475 942 475 942 412.5 888.5 c 128,-1,23
 350 835 350 835 350 720 c 2,24,-1
 350 380 l 2,25,26
 350 265 350 265 412.5 211.5 c 128,-1,27
 475 158 475 158 565 158 c 128,-1,28
 655 158 655 158 717.5 211.5 c 128,-1,29
 780 265 780 265 780 380 c 2,30,-1
 780 720 l 2,19,20
EndSplineSet
Validated: 1
EndChar

StartChar: r
Encoding: 114 114 85
Width: 720
GlyphClass: 2
Flags: W
HStem: -40 21G<150 202.222> 942 178<424.46 620>
VStem: 150 200<50 869.755>
LayerCount: 2
Fore
SplineSet
150 -40 m 9,0,-1
 150 720 l 2,1,2
 150 885 150 885 274 1007 c 0,3,4
 390 1120 390 1120 565 1120 c 1,5,-1
 700 1120 l 1,6,-1
 700 1110 l 1,7,-1
 620 942 l 1,8,-1
 565 942 l 1,9,10
 475 942 475 942 412.5 888.5 c 128,-1,11
 350 835 350 835 350 720 c 2,12,13
 350 50 l 17,14,-1
 160 -40 l 1,15,-1
 150 -40 l 9,0,-1
EndSplineSet
Validated: 1
EndChar

StartChar: s
Encoding: 115 115 86
Width: 1070
GlyphClass: 2
Flags: W
HStem: -20 158<398.847 672.392> 530 166<406.954 691.984> 962 158<397.033 632.282>
VStem: 120 200<217.848 353> 162 190<725.129 916.304> 754 196<223.507 467.29>
LayerCount: 2
Fore
SplineSet
120 353 m 1,0,-1
 310 443 l 1,1,-1
 320 443 l 9,2,-1
 320 363 l 18,3,4
 320 251 320 251 385 193 c 0,5,6
 447 138 447 138 535 138 c 0,7,8
 637 138 637 138 694 203 c 0,9,10
 754 271 754 271 754 351 c 0,11,12
 754 437 754 437 690 487 c 0,13,14
 635 530 635 530 534 530 c 0,15,16
 356 530 356 530 253 608 c 0,17,18
 162 676 162 676 162 819 c 0,19,20
 162 958 162 958 289 1049 c 0,21,22
 388 1120 388 1120 535 1120 c 0,23,24
 676 1120 676 1120 780 1032 c 0,25,26
 860 963 860 963 879 872 c 1,27,-1
 689 782 l 1,28,-1
 679 782 l 9,29,-1
 679 811 l 2,30,31
 679 863 679 863 649 900 c 0,32,33
 601 962 601 962 512 962 c 0,34,35
 441 962 441 962 396.5 917.5 c 128,-1,36
 352 873 352 873 352 819 c 0,37,38
 352 755 352 755 406 717 c 0,39,40
 436 696 436 696 534 696 c 24,41,42
 737 696 737 696 839 603 c 0,43,44
 950 502 950 502 950 340 c 0,45,46
 950 210 950 210 835 92 c 0,47,48
 726 -20 726 -20 535 -20 c 0,49,50
 362 -20 362 -20 244 76 c 0,51,52
 120 177 120 177 120 353 c 1,0,-1
EndSplineSet
Validated: 1
EndChar

StartChar: t
Encoding: 116 116 87
Width: 764
GlyphClass: 2
Flags: W
HStem: -40 21G<282 334.222> 918 182<106 282 482 658> 1530 20G<429.778 482>
VStem: 282 200<50 918 1100 1460>
LayerCount: 2
Fore
SplineSet
282 -40 m 1,0,-1
 282 918 l 1,1,-1
 25 918 l 1,2,-1
 25 928 l 1,3,-1
 106 1100 l 1,4,-1
 282 1100 l 1,5,-1
 282 1460 l 1,6,-1
 472 1550 l 1,7,-1
 482 1550 l 1,8,-1
 482 1100 l 1,9,-1
 739 1100 l 1,10,-1
 739 1090 l 1,11,-1
 658 918 l 1,12,-1
 482 918 l 1,13,-1
 482 50 l 1,14,-1
 292 -40 l 1,15,-1
 282 -40 l 1,0,-1
EndSplineSet
Validated: 1
EndChar

StartChar: u
Encoding: 117 117 88
Width: 1130
GlyphClass: 2
Flags: W
HStem: -20 178<424.306 706.186> 1120 20G<297.778 350 927.778 980>
VStem: 150 200<229.72 1050> 780 200<230.245 1050>
LayerCount: 2
Fore
SplineSet
980 1140 m 9,0,-1
 980 380 l 2,1,2
 980 215 980 215 856 93 c 0,3,4
 740 -20 740 -20 565 -20 c 0,5,6
 392 -20 392 -20 274 93 c 0,7,8
 150 213 150 213 150 380 c 2,9,-1
 150 1050 l 17,10,-1
 340 1140 l 1,11,-1
 350 1140 l 9,12,-1
 350 380 l 2,13,14
 350 265 350 265 412.5 211.5 c 128,-1,15
 475 158 475 158 565 158 c 128,-1,16
 655 158 655 158 717.5 211.5 c 128,-1,17
 780 265 780 265 780 380 c 2,18,-1
 780 1050 l 17,19,-1
 970 1140 l 1,20,-1
 980 1140 l 9,0,-1
EndSplineSet
Validated: 1
EndChar

StartChar: v
Encoding: 118 118 89
Width: 1026
GlyphClass: 2
Flags: W
HStem: -40 21G<428.969 488.195> 1120 20G<180.805 239.787 786.357 845.195>
DStem2: 233 1140 50 1058 0.331651 -0.943402<16.6668 880.655> 516 306 619 42 0.331508 0.943452<0 861.97>
LayerCount: 2
Fore
SplineSet
436 -40 m 1,0,-1
 50 1058 l 1,1,-1
 223 1140 l 1,2,-1
 233 1140 l 1,3,-1
 516 306 l 1,4,-1
 793 1140 l 1,5,-1
 803 1140 l 1,6,-1
 976 1058 l 1,7,-1
 619 42 l 1,8,-1
 446 -40 l 1,9,-1
 436 -40 l 1,0,-1
EndSplineSet
Validated: 1
EndChar

StartChar: w
Encoding: 119 119 90
Width: 1760
GlyphClass: 2
Flags: W
HStem: -20 178<424.306 704.993 1054.92 1336.19> 1120 20G<297.778 350 927.778 980 1557.78 1610>
VStem: 150 200<229.72 1050> 780 200<229.72 1050> 1410 200<230.245 1050>
CounterMasks: 1 38
LayerCount: 2
Fore
SplineSet
1610 1140 m 1,0,-1
 1610 380 l 2,1,2
 1610 215 1610 215 1486 93 c 0,3,4
 1370 -20 1370 -20 1195 -20 c 0,5,6
 1036 -20 1036 -20 920 96 c 0,7,8
 898 118 898 118 880 148 c 1,9,10
 862 119 862 119 840 97 c 0,11,12
 715 -20 715 -20 565 -20 c 0,13,14
 392 -20 392 -20 274 93 c 0,15,16
 150 213 150 213 150 380 c 2,17,-1
 150 1050 l 1,18,-1
 340 1140 l 1,19,-1
 350 1140 l 1,20,-1
 350 380 l 2,21,22
 350 265 350 265 412.5 211.5 c 128,-1,23
 475 158 475 158 565 158 c 128,-1,24
 655 158 655 158 717.5 211.5 c 128,-1,25
 780 265 780 265 780 380 c 2,26,-1
 780 1050 l 1,27,-1
 970 1140 l 1,28,-1
 980 1140 l 1,29,-1
 980 380 l 2,30,31
 980 265 980 265 1042.5 211.5 c 128,-1,32
 1105 158 1105 158 1195 158 c 128,-1,33
 1285 158 1285 158 1347.5 211.5 c 128,-1,34
 1410 265 1410 265 1410 380 c 2,35,-1
 1410 1050 l 1,36,-1
 1600 1140 l 1,37,-1
 1610 1140 l 1,0,-1
EndSplineSet
Validated: 1
EndChar

StartChar: x
Encoding: 120 120 91
Width: 1015
GlyphClass: 2
Flags: W
HStem: -40 21G<211.561 275.402 739.645 803.439> 1120 20G<212.831 276.382 738.665 802.169>
DStem2: 265 1140 80 1057 0.521796 -0.85307<0 491.057 768.305 1260.22> 80 42 264 -40 0.520884 0.853628<25.8452 518.293 795.722 1286.28>
LayerCount: 2
Fore
SplineSet
264 -40 m 1,0,-1
 254 -40 l 1,1,-1
 80 42 l 1,2,-1
 390 550 l 1,3,-1
 80 1057 l 1,4,-1
 255 1140 l 1,5,-1
 265 1140 l 1,6,-1
 508 713 l 1,7,-1
 750 1140 l 1,8,-1
 760 1140 l 1,9,-1
 935 1057 l 1,10,-1
 625 550 l 1,11,-1
 935 42 l 1,12,-1
 761 -40 l 1,13,-1
 751 -40 l 1,14,-1
 508 388 l 1,15,-1
 264 -40 l 1,0,-1
EndSplineSet
Validated: 1
EndChar

StartChar: y
Encoding: 121 121 92
Width: 1180
GlyphClass: 2
Flags: W
HStem: -430 178<337 705.95> -20 178<424.799 705.589> 1120 20G<297.778 350 927.778 980>
VStem: 150 200<232.769 1050> 780 200<-179.66 65 229.72 1050>
LayerCount: 2
Fore
SplineSet
150 380 m 2,0,-1
 150 1050 l 1,1,-1
 340 1140 l 1,2,-1
 350 1140 l 1,3,-1
 350 380 l 2,4,5
 350 265 350 265 412.5 211.5 c 128,-1,6
 475 158 475 158 565 158 c 128,-1,7
 655 158 655 158 717.5 211.5 c 128,-1,8
 780 265 780 265 780 380 c 2,9,-1
 780 1050 l 1,10,-1
 970 1140 l 1,11,-1
 980 1140 l 1,12,-1
 980 -30 l 2,13,14
 980 -195 980 -195 856 -317 c 0,15,16
 740 -430 740 -430 565 -430 c 2,17,-1
 257 -430 l 1,18,-1
 257 -420 l 1,19,-1
 337 -252 l 1,20,-1
 565 -252 l 2,21,22
 655 -252 655 -252 718 -198 c 0,23,24
 780 -144 780 -144 780 -30 c 2,25,-1
 780 65 l 1,26,27
 706 -20 706 -20 565 -20 c 0,28,29
 394 -20 394 -20 274 93 c 0,30,31
 150 211 150 211 150 380 c 2,0,-1
EndSplineSet
Validated: 1
EndChar

StartChar: z
Encoding: 122 122 93
Width: 1053
GlyphClass: 2
Flags: W
HStem: 0 182<421 872> 918 182<191 623>
DStem2: 100 10 421 182 0.499116 0.866535<309.26 1047.85>
LayerCount: 2
Fore
SplineSet
100 0 m 1,0,-1
 100 10 l 1,1,-1
 623 918 l 1,2,-1
 110 918 l 1,3,-1
 110 928 l 1,4,-1
 191 1100 l 1,5,-1
 943 1100 l 1,6,-1
 943 1090 l 1,7,-1
 421 182 l 1,8,-1
 953 182 l 1,9,-1
 953 172 l 1,10,-1
 872 0 l 1,11,-1
 100 0 l 1,0,-1
EndSplineSet
Validated: 1
EndChar

StartChar: braceleft
Encoding: 123 123 94
Width: 825
GlyphClass: 2
Flags: W
HStem: -240 180<609.998 775> 664 182<131 270> 1570 180<609.998 775>
VStem: 270 200<85.2461 664 846 1424.75>
CounterMasks: 1 e0
LayerCount: 2
Fore
SplineSet
775 -240 m 1,0,1
 547 -240 547 -240 405 -95 c 0,2,3
 270 43 270 43 270 260 c 2,4,-1
 270 664 l 1,5,-1
 50 664 l 1,6,-1
 50 674 l 1,7,-1
 131 846 l 1,8,-1
 270 846 l 1,9,-1
 270 1250 l 2,10,11
 270 1467 270 1467 405 1605 c 0,12,13
 547 1750 547 1750 775 1750 c 1,14,-1
 775 1570 l 1,15,16
 629 1569 629 1569 542 1467 c 0,17,18
 470 1382 470 1382 470 1250 c 2,19,-1
 470 260 l 2,20,21
 470 128 470 128 542 43 c 0,22,23
 629 -59 629 -59 775 -60 c 1,24,-1
 775 -240 l 1,0,1
EndSplineSet
Validated: 1
EndChar

StartChar: bar
Encoding: 124 124 95
Width: 666
GlyphClass: 2
Flags: W
VStem: 250 166<-166 1676>
LayerCount: 2
Fore
SplineSet
250 -240 m 1,0,-1
 250 1676 l 1,1,-1
 406 1750 l 1,2,-1
 416 1750 l 1,3,-1
 416 -166 l 1,4,-1
 260 -240 l 1,5,-1
 250 -240 l 1,0,-1
EndSplineSet
Validated: 3073
EndChar

StartChar: braceright
Encoding: 125 125 96
Width: 825
GlyphClass: 2
Flags: W
HStem: -240 180<50 215.002> 664 182<555 694> 1570 180<50 215.002>
VStem: 355 200<85.2461 664 846 1424.75>
CounterMasks: 1 e0
LayerCount: 2
Fore
SplineSet
50 -240 m 1,0,-1
 50 -60 l 1,1,2
 196 -59 196 -59 283 43 c 0,3,4
 355 128 355 128 355 260 c 2,5,-1
 355 1250 l 2,6,7
 355 1382 355 1382 283 1467 c 0,8,9
 196 1569 196 1569 50 1570 c 1,10,-1
 50 1750 l 1,11,12
 278 1750 278 1750 420 1605 c 0,13,14
 555 1467 555 1467 555 1250 c 2,15,-1
 555 846 l 1,16,-1
 775 846 l 1,17,-1
 775 836 l 1,18,-1
 694 664 l 1,19,-1
 555 664 l 1,20,-1
 555 260 l 2,21,22
 555 43 555 43 420 -95 c 0,23,24
 278 -240 278 -240 50 -240 c 1,0,-1
EndSplineSet
Validated: 1
EndChar

StartChar: asciitilde
Encoding: 126 126 97
Width: 1138
GlyphClass: 2
Flags: W
HStem: 583 177<648.531 800.75> 767 177<337.25 489.469>
VStem: 150 178<664 757.507> 810 178<769.493 863>
LayerCount: 2
Fore
SplineSet
150 583 m 1,0,1
 150 944 150 944 387 944 c 0,2,3
 521 944 521 944 610 843 c 0,4,5
 683 760 683 760 738 760 c 0,6,7
 810 760 810 760 810 863 c 1,8,-1
 978 944 l 1,9,-1
 988 944 l 1,10,11
 988 583 988 583 751 583 c 0,12,13
 617 583 617 583 528 684 c 0,14,15
 455 767 455 767 400 767 c 0,16,17
 328 767 328 767 328 664 c 1,18,-1
 160 583 l 1,19,-1
 150 583 l 1,0,1
EndSplineSet
Validated: 1
EndChar

StartChar: exclamdown
Encoding: 161 161 99
Width: 600
GlyphClass: 2
Flags: W
HStem: -40 21G<200 252.222> 1285 245<216.097 383.903>
VStem: 180 240<1322.13 1492.87> 200 200<50 1000>
LayerCount: 2
Fore
SplineSet
420 1407.5 m 128,-1,1
 420 1357 420 1357 385 1321 c 128,-1,2
 350 1285 350 1285 300 1285 c 128,-1,3
 250 1285 250 1285 215 1321 c 128,-1,4
 180 1357 180 1357 180 1407.5 c 128,-1,5
 180 1458 180 1458 215 1494 c 128,-1,6
 250 1530 250 1530 300 1530 c 128,-1,7
 350 1530 350 1530 385 1494 c 128,-1,0
 420 1458 420 1458 420 1407.5 c 128,-1,1
210 -40 m 1,8,-1
 200 -40 l 1,9,-1
 200 1000 l 1,10,-1
 390 1090 l 1,11,-1
 400 1090 l 1,12,-1
 400 50 l 1,13,-1
 210 -40 l 1,8,-1
EndSplineSet
Validated: 1
EndChar

StartChar: cent
Encoding: 162 162 100
Width: 1130
GlyphClass: 2
Flags: W
VStem: 150 200<233.267 869.924> 507 116<-190 -10.0957 164 936 1110.1 1290> 780 200<229.745 353 747 868.273>
CounterMasks: 1 e0
LayerCount: 2
Fore
SplineSet
980 443 m 1,0,-1
 980 380 l 2,1,2
 980 214 980 214 856 93 c 0,3,4
 760 -1 760 -1 623 -17 c 1,5,-1
 623 -190 l 1,6,-1
 517 -240 l 1,7,-1
 507 -240 l 1,8,-1
 507 -17 l 1,9,10
 372 -1 372 -1 274 93 c 0,11,12
 150 212 150 212 150 380 c 2,13,-1
 150 720 l 2,14,15
 150 886 150 886 274 1007 c 0,16,17
 370 1101 370 1101 507 1117 c 1,18,-1
 507 1290 l 1,19,-1
 613 1340 l 1,20,-1
 623 1340 l 1,21,-1
 623 1117 l 1,22,23
 757 1100 757 1100 856 1007 c 0,24,25
 980 891 980 891 980 749 c 2,26,-1
 980 747 l 1,27,-1
 790 657 l 1,28,-1
 780 657 l 1,29,-1
 780 720 l 2,30,31
 780 835 780 835 718 888 c 0,32,33
 676 924 676 924 623 936 c 1,34,-1
 623 164 l 1,35,36
 676 176 676 176 718 212 c 0,37,38
 780 266 780 266 780 353 c 1,39,-1
 970 443 l 1,40,-1
 980 443 l 1,0,-1
507 164 m 1,41,-1
 507 936 l 1,42,43
 454 924 454 924 412 888 c 0,44,45
 350 835 350 835 350 720 c 2,46,-1
 350 380 l 2,47,48
 350 265 350 265 412 212 c 0,49,50
 454 176 454 176 507 164 c 1,41,-1
EndSplineSet
Validated: 1
EndChar

StartChar: sterling
Encoding: 163 163 101
Width: 1335
GlyphClass: 2
Flags: W
HStem: 0 182<231 300 500 1104> 598 182<231 300 500 834> 1372 158<578.194 848.614>
VStem: 300 200<182 598 780 1290.81> 930 200<1137 1292.78>
LayerCount: 2
Fore
SplineSet
150 0 m 1,0,-1
 150 10 l 1,1,-1
 231 182 l 1,2,-1
 300 182 l 1,3,-1
 300 598 l 1,4,-1
 150 598 l 1,5,-1
 150 608 l 1,6,-1
 231 780 l 1,7,-1
 300 780 l 1,8,-1
 300 1137 l 2,9,10
 300 1334 300 1334 424 1434 c 0,11,12
 542 1530 542 1530 715 1530 c 0,13,14
 880 1530 880 1530 1006 1434 c 0,15,16
 1130 1338 1130 1338 1130 1137 c 1,17,-1
 940 1047 l 1,18,-1
 930 1047 l 1,19,-1
 930 1137 l 2,20,21
 930 1262 930 1262 864.5 1317 c 128,-1,22
 799 1372 799 1372 715 1372 c 0,23,24
 620 1372 620 1372 560 1311 c 128,-1,25
 500 1250 500 1250 500 1137 c 2,26,-1
 500 780 l 1,27,-1
 915 780 l 1,28,-1
 915 770 l 1,29,-1
 834 598 l 1,30,-1
 500 598 l 1,31,-1
 500 182 l 1,32,-1
 1185 182 l 1,33,-1
 1185 172 l 1,34,-1
 1104 0 l 1,35,-1
 150 0 l 1,0,-1
EndSplineSet
Validated: 1
EndChar

StartChar: currency
Encoding: 164 164 102
Width: 1395
GlyphClass: 2
Flags: W
HStem: 246 180<533.895 858.821> 1068 180<534.443 863.7>
VStem: 192 200<566.6 926.3> 1002 200<567.577 924.229>
LayerCount: 2
Fore
SplineSet
1202 746 m 0,0,1
 1202 576 1202 576 1115 450 c 1,2,-1
 1245 320 l 1,3,-1
 1238 313 l 1,4,-1
 1059 249 l 1,5,-1
 985 322 l 1,6,7
 867 246 867 246 697 246 c 0,8,9
 521 246 521 246 400 329 c 1,10,-1
 336 265 l 1,11,-1
 157 329 l 1,12,-1
 150 336 l 1,13,-1
 273 459 l 1,14,15
 192 582 192 582 192 748 c 0,16,17
 192 918 192 918 279 1044 c 1,18,-1
 150 1174 l 1,19,-1
 157 1181 l 1,20,-1
 335 1245 l 1,21,-1
 409 1172 l 1,22,23
 527 1248 527 1248 697 1248 c 128,-1,24
 867 1248 867 1248 985 1172 c 1,25,-1
 1059 1245 l 1,26,-1
 1238 1181 l 1,27,-1
 1245 1174 l 1,28,-1
 1115 1044 l 1,29,30
 1202 918 1202 918 1202 746 c 0,0,1
697 426 m 0,31,32
 834 426 834 426 930 529 c 0,33,34
 1002 608 1002 608 1002 748 c 0,35,36
 1002 874 1002 874 930 965 c 0,37,38
 846 1068 846 1068 696 1068 c 0,39,40
 557 1068 557 1068 464 965 c 0,41,42
 392 885 392 885 392 748 c 0,43,44
 392 610 392 610 464 529 c 0,45,46
 556 426 556 426 697 426 c 0,31,32
EndSplineSet
Validated: 1
EndChar

StartChar: yen
Encoding: 165 165 103
Width: 1278
GlyphClass: 2
Flags: W
HStem: -40 21G<516 568.222> 430 182<262 484 753 1014> 760 182<262 336 633 696 911 1014> 1530 20G<232.831 293.816 1053.72 1115>
VStem: 516 200<50 430>
DStem2: 285 1550 100 1467 0.403273 -0.91508<1.34602 576.935 863.252 938.596> 664 690 753 612 0.431707 0.902014<0 76.9556 333.939 947.983>
LayerCount: 2
Fore
SplineSet
516 -40 m 1,0,-1
 516 430 l 1,1,-1
 181 430 l 1,2,-1
 181 440 l 1,3,-1
 262 612 l 1,4,-1
 484 612 l 1,5,-1
 417 760 l 1,6,-1
 181 760 l 1,7,-1
 181 770 l 1,8,-1
 262 942 l 1,9,-1
 336 942 l 1,10,-1
 100 1467 l 1,11,-1
 275 1550 l 1,12,-1
 285 1550 l 1,13,-1
 553 942 l 1,14,-1
 781 942 l 1,15,-1
 1063 1550 l 1,16,-1
 1073 1550 l 1,17,-1
 1178 1500 l 1,18,-1
 911 942 l 1,19,-1
 1095 942 l 1,20,-1
 1095 932 l 1,21,-1
 1014 760 l 1,22,-1
 824 760 l 1,23,-1
 753 612 l 1,24,-1
 1095 612 l 1,25,-1
 1095 602 l 1,26,-1
 1014 430 l 1,27,-1
 716 430 l 1,28,-1
 716 50 l 1,29,-1
 526 -40 l 1,30,-1
 516 -40 l 1,0,-1
696 760 m 1,31,-1
 633 760 l 1,32,-1
 664 690 l 1,33,-1
 696 760 l 1,31,-1
EndSplineSet
Validated: 3073
EndChar

StartChar: brokenbar
Encoding: 166 166 104
Width: 666
GlyphClass: 2
Flags: W
VStem: 250 166<-166 587 923 1676>
LayerCount: 2
Fore
SplineSet
250 -240 m 1,0,-1
 250 587 l 1,1,-1
 406 661 l 1,2,-1
 416 661 l 1,3,-1
 416 -166 l 1,4,-1
 260 -240 l 1,5,-1
 250 -240 l 1,0,-1
406 1750 m 1,6,-1
 416 1750 l 1,7,-1
 416 923 l 1,8,-1
 260 849 l 1,9,-1
 250 849 l 1,10,-1
 250 1676 l 1,11,-1
 406 1750 l 1,6,-1
EndSplineSet
Validated: 3073
EndChar

StartChar: section
Encoding: 167 167 105
Width: 1130
GlyphClass: 2
Flags: W
HStem: -20 158<467.718 702.967> 404 166<408.016 693.046> 940 166<436.954 721.984> 1372 158<427.033 662.282>
VStem: 150 196<632.71 887.421> 192 190<1135.13 1326.3> 748 190<183.696 374.871> 784 196<622.579 877.29>
LayerCount: 2
Fore
SplineSet
221 228 m 1,0,-1
 411 318 l 1,1,-1
 421 318 l 9,2,-1
 421 289 l 2,3,4
 421 237 421 237 451 200 c 0,5,6
 499 138 499 138 588 138 c 0,7,8
 659 138 659 138 703.5 182.5 c 128,-1,9
 748 227 748 227 748 281 c 0,10,11
 748 345 748 345 694 383 c 0,12,13
 664 404 664 404 566 404 c 24,14,15
 363 404 363 404 261 497 c 0,16,17
 150 598 150 598 150 760 c 0,18,19
 150 863 150 863 223 959 c 9,20,-1
 382 866 l 17,21,22
 346 811 346 811 346 749 c 0,23,24
 346 663 346 663 410 613 c 0,25,26
 465 570 465 570 566 570 c 0,27,28
 744 570 744 570 847 492 c 0,29,30
 938 424 938 424 938 281 c 0,31,32
 938 142 938 142 811 51 c 0,33,34
 712 -20 712 -20 565 -20 c 0,35,36
 424 -20 424 -20 320 68 c 0,37,38
 240 137 240 137 221 228 c 1,0,-1
909 1282 m 1,39,-1
 719 1192 l 1,40,-1
 709 1192 l 9,41,-1
 709 1221 l 2,42,43
 709 1273 709 1273 679 1310 c 0,44,45
 631 1372 631 1372 542 1372 c 0,46,47
 471 1372 471 1372 426.5 1327.5 c 128,-1,48
 382 1283 382 1283 382 1229 c 0,49,50
 382 1165 382 1165 436 1127 c 0,51,52
 466 1106 466 1106 564 1106 c 24,53,54
 767 1106 767 1106 869 1013 c 0,55,56
 980 912 980 912 980 750 c 0,57,58
 980 647 980 647 907 551 c 9,59,-1
 748 644 l 17,60,61
 784 699 784 699 784 761 c 0,62,63
 784 847 784 847 720 897 c 0,64,65
 665 940 665 940 564 940 c 0,66,67
 386 940 386 940 283 1018 c 0,68,69
 192 1086 192 1086 192 1229 c 0,70,71
 192 1368 192 1368 319 1459 c 0,72,73
 418 1530 418 1530 565 1530 c 0,74,75
 706 1530 706 1530 810 1442 c 0,76,77
 890 1373 890 1373 909 1282 c 1,39,-1
EndSplineSet
Validated: 1
EndChar

StartChar: dieresis
Encoding: 168 168 106
Width: 840
GlyphClass: 2
Flags: W
HStem: 1285 245<186.097 353.903 486.097 653.903>
VStem: 150 240<1322.13 1492.87> 450 240<1322.13 1492.87>
LayerCount: 2
Fore
SplineSet
450 1407.5 m 128,-1,1
 450 1458 450 1458 485 1494 c 128,-1,2
 520 1530 520 1530 570 1530 c 128,-1,3
 620 1530 620 1530 655 1494 c 128,-1,4
 690 1458 690 1458 690 1407.5 c 128,-1,5
 690 1357 690 1357 655 1321 c 128,-1,6
 620 1285 620 1285 570 1285 c 128,-1,7
 520 1285 520 1285 485 1321 c 128,-1,0
 450 1357 450 1357 450 1407.5 c 128,-1,1
150 1407.5 m 128,-1,9
 150 1458 150 1458 185 1494 c 128,-1,10
 220 1530 220 1530 270 1530 c 128,-1,11
 320 1530 320 1530 355 1494 c 128,-1,12
 390 1458 390 1458 390 1407.5 c 128,-1,13
 390 1357 390 1357 355 1321 c 128,-1,14
 320 1285 320 1285 270 1285 c 128,-1,15
 220 1285 220 1285 185 1321 c 128,-1,8
 150 1357 150 1357 150 1407.5 c 128,-1,9
EndSplineSet
Validated: 1
EndChar

StartChar: copyright
Encoding: 169 169 107
Width: 1401
GlyphClass: 2
Flags: W
HStem: 180 79<514.499 887.229> 320 152<607.202 802.978> 1038 142<607.715 802.19> 1251 80<511.931 889.969>
VStem: 150 74<566.018 943.982> 428 150<515.976 994.054> 832 150<516.069 623 887 993.962> 1176 75<560.265 949.908>
LayerCount: 2
Fore
SplineSet
982 678 m 1,0,-1
 982 612 l 2,1,2
 982 481 982 481 908 402 c 0,3,4
 832 320 832 320 698 320 c 0,5,6
 575 320 575 320 501 398 c 0,7,8
 428 475 428 475 428 608 c 2,9,-1
 428 891 l 2,10,11
 428 1024 428 1024 501 1101 c 0,12,13
 577 1180 577 1180 698 1180 c 0,14,15
 822 1180 822 1180 908 1097 c 0,16,17
 982 1023 982 1023 982 887 c 1,18,-1
 868 832 l 1,19,-1
 832 832 l 1,20,-1
 832 902 l 2,21,22
 832 962 832 962 803 995 c 0,23,24
 765 1038 765 1038 706 1038 c 0,25,26
 649 1038 649 1038 607 995 c 0,27,28
 578 965 578 965 578 902 c 2,29,-1
 578 608 l 2,30,31
 578 546 578 546 607 515 c 0,32,33
 647 472 647 472 706 472 c 128,-1,34
 765 472 765 472 803 515 c 0,35,36
 832 549 832 549 832 608 c 2,37,-1
 832 623 l 1,38,-1
 947 678 l 1,39,-1
 982 678 l 1,0,-1
701 1331 m 0,40,41
 811 1331 811 1331 911 1288 c 0,42,43
 1007 1247 1007 1247 1090 1161 c 0,44,45
 1170 1078 1170 1078 1211 975 c 0,46,47
 1251 874 1251 874 1251 754 c 0,48,49
 1251 638 1251 638 1211 535 c 0,50,51
 1173 437 1173 437 1090 350 c 0,52,53
 1011 267 1011 267 911 223 c 0,54,55
 813 180 813 180 701 180 c 0,56,57
 590 180 590 180 490 223 c 0,58,59
 394 264 394 264 311 350 c 0,60,61
 230 434 230 434 190 535 c 128,-1,62
 150 636 150 636 150 754 c 0,63,64
 150 873 150 873 190 975 c 128,-1,65
 230 1077 230 1077 311 1161 c 0,66,67
 392 1246 392 1246 490 1288.5 c 128,-1,68
 588 1331 588 1331 701 1331 c 0,40,41
701 1251 m 0,69,70
 603 1251 603 1251 520 1215 c 128,-1,71
 437 1179 437 1179 366 1105 c 0,72,73
 296 1032 296 1032 260 944 c 128,-1,74
 224 856 224 856 224 759 c 2,75,-1
 224 754 l 2,76,77
 224 655 224 655 260 566 c 0,78,79
 294 483 294 483 366 406 c 0,80,81
 436 332 436 332 519 296 c 0,82,83
 604 259 604 259 701 259 c 128,-1,84
 798 259 798 259 883 296 c 0,85,86
 966 332 966 332 1037 406 c 0,87,88
 1106 478 1106 478 1141 565 c 128,-1,89
 1176 652 1176 652 1176 754 c 0,90,91
 1176 857 1176 857 1141 945 c 0,92,93
 1107 1031 1107 1031 1037 1105 c 0,94,95
 968 1178 968 1178 883 1215 c 0,96,97
 798 1251 798 1251 701 1251 c 0,69,70
EndSplineSet
Validated: 1
EndChar

StartChar: ordfeminine
Encoding: 170 170 108
Width: 955
GlyphClass: 2
Flags: W
HStem: 664 182<231 724> 899 119<408.558 547.257> 1215 120<407.718 546.85> 1410 120<365.352 545.739>
VStem: 252 138<1035.63 1197.54> 565 140<1042.66 1192.27 1298 1385.3>
LayerCount: 2
Fore
SplineSet
307 1477 m 1,0,1
 374 1530 374 1530 471 1530 c 24,2,3
 572 1530 572 1530 636 1477 c 0,4,5
 705 1420 705 1420 705 1313 c 2,6,-1
 705 952 l 1,7,-1
 594 899 l 1,8,-1
 565 899 l 1,9,-1
 565 920 l 1,10,11
 532 899 532 899 484 899 c 8,12,13
 383 899 383 899 320 952 c 0,14,15
 252 1009 252 1009 252 1117 c 0,16,17
 252 1219 252 1219 324 1281 c 0,18,19
 388 1335 388 1335 471 1335 c 0,20,21
 526 1335 526 1335 564 1298 c 1,22,23
 564 1364 564 1364 540 1386 c 0,24,25
 514 1410 514 1410 478 1410 c 0,26,27
 434 1410 434 1410 401 1373 c 1,28,-1
 307 1477 l 1,0,1
150 664 m 1,29,-1
 150 674 l 1,30,-1
 231 846 l 1,31,-1
 805 846 l 1,32,-1
 805 836 l 1,33,-1
 724 664 l 1,34,-1
 150 664 l 1,29,-1
476 1018 m 0,35,36
 511 1018 511 1018 540 1042 c 0,37,38
 565 1063 565 1063 565 1117 c 0,39,40
 565 1170 565 1170 539 1193 c 0,41,42
 514 1215 514 1215 478 1215 c 0,43,44
 439 1215 439 1215 415 1192 c 0,45,46
 390 1168 390 1168 390 1117 c 0,47,48
 390 1062 390 1062 416 1041 c 0,49,50
 443 1018 443 1018 476 1018 c 0,35,36
EndSplineSet
Validated: 1
EndChar

StartChar: guillemotleft
Encoding: 171 171 109
Width: 1208
GlyphClass: 2
Flags: W
DStem2: 150 792 381 795 0.506484 0.862249<119.585 570.601> 381 795 150 792 0.509561 -0.860435<0 452.028> 535 792 766 795 0.506484 0.862249<119.585 570.601> 766 795 535 792 0.509561 -0.860435<0 452.028>
LayerCount: 2
Fore
SplineSet
824 304 m 1,0,-1
 535 792 l 1,1,-1
 824 1284 l 1,2,-1
 834 1284 l 1,3,-1
 1008 1202 l 1,4,-1
 766 795 l 1,5,-1
 1008 386 l 1,6,-1
 834 304 l 1,7,-1
 824 304 l 1,0,-1
439 304 m 1,8,-1
 150 792 l 1,9,-1
 439 1284 l 1,10,-1
 449 1284 l 1,11,-1
 623 1202 l 1,12,-1
 381 795 l 1,13,-1
 623 386 l 1,14,-1
 449 304 l 1,15,-1
 439 304 l 1,8,-1
EndSplineSet
Validated: 1
EndChar

StartChar: logicalnot
Encoding: 172 172 110
Width: 1214
GlyphClass: 2
Flags: W
HStem: 664 182<231 784>
LayerCount: 2
Fore
SplineSet
642 402 m 1,0,-1
 784 664 l 1,1,-1
 150 664 l 1,2,-1
 150 674 l 1,3,-1
 231 846 l 1,4,-1
 1064 846 l 1,5,-1
 1064 836 l 1,6,-1
 857 402 l 1,7,-1
 642 402 l 1,0,-1
EndSplineSet
Validated: 1
EndChar

StartChar: uni00AD
Encoding: 173 173 111
Width: 1214
GlyphClass: 2
Flags: W
HStem: 664 182<231 983>
LayerCount: 2
Fore
SplineSet
150 664 m 1,0,-1
 150 674 l 1,1,-1
 231 846 l 1,2,-1
 1064 846 l 1,3,-1
 1064 836 l 1,4,-1
 983 664 l 1,5,-1
 150 664 l 1,0,-1
EndSplineSet
Validated: 3073
EndChar

StartChar: registered
Encoding: 174 174 112
Width: 1401
GlyphClass: 2
Flags: W
HStem: 180 79<514.499 887.229> 590 152<595 686> 1013 142<595 799.684> 1251 80<511.834 889.969>
VStem: 150 74<566.018 943.982> 445 150<412 590 742 1013> 830 150<778.613 975.38> 1176 75<560.265 949.908>
DStem2: 850 624 686 590 0.626759 -0.779213<0 218.874>
LayerCount: 2
Fore
SplineSet
701 1251 m 0,0,1
 603 1251 603 1251 520 1215 c 128,-1,2
 437 1179 437 1179 366 1105 c 0,3,4
 296 1032 296 1032 260 944 c 128,-1,5
 224 856 224 856 224 759 c 2,6,-1
 224 754 l 2,7,8
 224 655 224 655 260 566 c 0,9,10
 294 483 294 483 366 406 c 0,11,12
 436 332 436 332 519 296 c 0,13,14
 604 259 604 259 701 259 c 128,-1,15
 798 259 798 259 883 296 c 0,16,17
 966 332 966 332 1037 406 c 0,18,19
 1106 478 1106 478 1141 565 c 128,-1,20
 1176 652 1176 652 1176 754 c 0,21,22
 1176 857 1176 857 1141 945 c 0,23,24
 1107 1031 1107 1031 1037 1105 c 0,25,26
 968 1178 968 1178 883 1215 c 0,27,28
 798 1251 798 1251 701 1251 c 0,0,1
701 1331 m 0,29,30
 811 1331 811 1331 911 1288 c 0,31,32
 1007 1247 1007 1247 1090 1161 c 0,33,34
 1170 1078 1170 1078 1211 975 c 0,35,36
 1251 874 1251 874 1251 754 c 0,37,38
 1251 638 1251 638 1211 535 c 0,39,40
 1173 437 1173 437 1090 350 c 0,41,42
 1011 267 1011 267 911 223 c 0,43,44
 813 180 813 180 701 180 c 0,45,46
 590 180 590 180 490 223 c 0,47,48
 394 264 394 264 311 350 c 0,49,50
 230 434 230 434 190 535 c 128,-1,51
 150 636 150 636 150 754 c 0,52,53
 150 874 150 874 190 975 c 128,-1,54
 230 1076 230 1076 311 1161 c 0,55,56
 393 1246 393 1246 490 1288.5 c 128,-1,57
 587 1331 587 1331 701 1331 c 0,29,30
595 742 m 1,58,-1
 702 742 l 1,59,60
 762 743 762 743 801 785 c 0,61,62
 830 816 830 816 830 877 c 0,63,64
 830 940 830 940 801 970 c 0,65,66
 759 1013 759 1013 702 1013 c 2,67,-1
 595 1013 l 1,68,-1
 595 742 l 1,58,-1
445 360 m 1,69,-1
 445 1103 l 1,70,-1
 559 1155 l 1,71,-1
 710 1155 l 2,72,73
 831 1155 831 1155 907 1076 c 0,74,75
 980 999 980 999 980 866 c 0,76,77
 980 744 980 744 907 668 c 0,78,79
 881 641 881 641 850 624 c 1,80,-1
 1014 414 l 1,81,-1
 895 360 l 1,82,-1
 871 360 l 1,83,-1
 686 590 l 1,84,-1
 595 590 l 1,85,-1
 595 412 l 1,86,-1
 481 360 l 1,87,-1
 445 360 l 1,69,-1
EndSplineSet
Validated: 1
EndChar

StartChar: macron
Encoding: 175 175 113
Width: 1214
GlyphClass: 2
Flags: W
HStem: 1328 182<231 983>
LayerCount: 2
Fore
SplineSet
150 1328 m 1,0,-1
 150 1338 l 1,1,-1
 231 1510 l 1,2,-1
 1064 1510 l 1,3,-1
 1064 1500 l 1,4,-1
 983 1328 l 1,5,-1
 150 1328 l 1,0,-1
EndSplineSet
Validated: 3073
EndChar

StartChar: degree
Encoding: 176 176 114
Width: 1130
GlyphClass: 2
Flags: W
HStem: 730 178<424.306 706.186> 1352 178<423.814 705.694>
VStem: 150 200<979.483 1280.02> 780 200<979.983 1280.52>
LayerCount: 2
Fore
SplineSet
150 1130 m 0,0,1
 150 1295 150 1295 274 1417 c 0,2,3
 390 1530 390 1530 565 1530 c 0,4,5
 738 1530 738 1530 856 1417 c 0,6,7
 980 1297 980 1297 980 1130 c 0,8,9
 980 965 980 965 856 843 c 0,10,11
 740 730 740 730 565 730 c 0,12,13
 392 730 392 730 274 843 c 0,14,15
 150 963 150 963 150 1130 c 0,0,1
780 1130 m 128,-1,17
 780 1245 780 1245 717.5 1298.5 c 128,-1,18
 655 1352 655 1352 565 1352 c 128,-1,19
 475 1352 475 1352 412.5 1298.5 c 128,-1,20
 350 1245 350 1245 350 1130 c 128,-1,21
 350 1015 350 1015 412.5 961.5 c 128,-1,22
 475 908 475 908 565 908 c 128,-1,23
 655 908 655 908 717.5 961.5 c 128,-1,16
 780 1015 780 1015 780 1130 c 128,-1,17
EndSplineSet
Validated: 1
EndChar

StartChar: plusminus
Encoding: 177 177 115
Width: 1214
GlyphClass: 2
Flags: W
HStem: 243 182<231 983> 835 182<231 516 698 983>
VStem: 516 182<550 835 1017 1302>
LayerCount: 2
Fore
SplineSet
150 243 m 1,0,-1
 150 253 l 1,1,-1
 231 425 l 1,2,-1
 1064 425 l 1,3,-1
 1064 415 l 1,4,-1
 983 243 l 1,5,-1
 150 243 l 1,0,-1
698 1383 m 1,6,-1
 698 1017 l 1,7,-1
 1064 1017 l 1,8,-1
 1064 1007 l 1,9,-1
 983 835 l 1,10,-1
 698 835 l 1,11,-1
 698 550 l 1,12,-1
 526 469 l 1,13,-1
 516 469 l 1,14,-1
 516 835 l 1,15,-1
 150 835 l 1,16,-1
 150 845 l 1,17,-1
 231 1017 l 1,18,-1
 516 1017 l 1,19,-1
 516 1302 l 1,20,-1
 688 1383 l 1,21,-1
 698 1383 l 1,6,-1
EndSplineSet
Validated: 3073
EndChar

StartChar: uni00B2
Encoding: 178 178 116
Width: 862
GlyphClass: 2
Flags: W
HStem: 730 140<386 662> 1132 21G<176.5 263.852> 1390 140<336.159 531.066>
VStem: 156 150<1168.96 1359.52> 558 154<1169.37 1355.6>
LayerCount: 2
Fore
SplineSet
150 730 m 1,0,-1
 150 766 l 1,1,-1
 195 862 l 1,2,-1
 438 1088 l 2,3,4
 558 1200 558 1200 558 1270 c 0,5,6
 558 1319 558 1319 531 1348 c 0,7,8
 491 1390 491 1390 434 1390 c 0,9,10
 375 1390 375 1390 336 1346 c 0,11,12
 306 1313 306 1313 306 1268 c 0,13,14
 306 1228 306 1228 335 1186 c 1,15,-1
 222 1132 l 1,16,-1
 197 1132 l 1,17,18
 156 1190 156 1190 156 1268 c 0,19,20
 156 1381 156 1381 226 1454 c 0,21,22
 299 1530 299 1530 432 1530 c 0,23,24
 563 1530 563 1530 637 1452 c 128,-1,25
 711 1374 711 1374 711 1268 c 0,26,27
 711 1135 711 1135 560 1012 c 2,28,-1
 386 870 l 1,29,-1
 712 870 l 1,30,-1
 712 834 l 1,31,-1
 662 730 l 1,32,-1
 150 730 l 1,0,-1
EndSplineSet
Validated: 1
EndChar

StartChar: uni00B3
Encoding: 179 179 117
Width: 855
GlyphClass: 2
Flags: W
HStem: 711 139<329.782 524.687> 1369 141<244 445>
VStem: 150 150<894.13 990> 555 150<887.693 1075.33>
LayerCount: 2
Fore
SplineSet
150 990 m 1,0,-1
 268 1055 l 1,1,-1
 300 1055 l 1,2,-1
 300 985 l 2,3,4
 300 929 300 929 330 893 c 0,5,6
 366 850 366 850 428 850 c 0,7,8
 487 850 487 850 525 893 c 0,9,10
 555 927 555 927 555 989 c 0,11,12
 555 1040 555 1040 532 1067 c 0,13,14
 499 1105 499 1105 424 1106 c 0,15,-1
 298 1106 l 1,16,-1
 445 1369 l 1,17,-1
 194 1369 l 1,18,-1
 194 1405 l 1,19,-1
 244 1510 l 1,20,-1
 683 1510 l 1,21,-1
 490 1212 l 1,22,23
 576 1207 576 1207 626 1166 c 0,24,25
 705 1101 705 1101 705 992 c 0,26,27
 705 866 705 866 630 788.5 c 128,-1,28
 555 711 555 711 427 711 c 128,-1,29
 299 711 299 711 224 787 c 0,30,31
 150 863 150 863 150 990 c 1,0,-1
EndSplineSet
Validated: 1
EndChar

StartChar: acute
Encoding: 180 180 118
Width: 648
GlyphClass: 2
Flags: W
HStem: 1150 400
VStem: 150 348
LayerCount: 2
Fore
SplineSet
312 1550 m 1,0,-1
 322 1550 l 1,1,-1
 498 1466 l 1,2,-1
 277 1150 l 1,3,-1
 267 1150 l 1,4,-1
 150 1205 l 1,5,-1
 312 1550 l 1,0,-1
EndSplineSet
Validated: 3073
EndChar

StartChar: uni00B5
Encoding: 181 181 119
Width: 1180
GlyphClass: 2
Flags: W
HStem: -450 21G<200 252.222> -20 178<474.899 756.186> 1120 20G<347.778 400 977.778 1030>
VStem: 200 200<-360 65 229.72 1050> 830 200<230.245 1050>
LayerCount: 2
Fore
SplineSet
200 1050 m 1,0,-1
 390 1140 l 1,1,-1
 400 1140 l 1,2,-1
 400 380 l 2,3,4
 400 265 400 265 462.5 211.5 c 128,-1,5
 525 158 525 158 615 158 c 128,-1,6
 705 158 705 158 767.5 211.5 c 128,-1,7
 830 265 830 265 830 380 c 2,8,-1
 830 1050 l 1,9,-1
 1020 1140 l 1,10,-1
 1030 1140 l 1,11,-1
 1030 380 l 2,12,13
 1030 215 1030 215 906 93 c 0,14,15
 790 -20 790 -20 615 -20 c 0,16,17
 476 -20 476 -20 400 65 c 1,18,-1
 400 -360 l 1,19,-1
 210 -450 l 1,20,-1
 200 -450 l 1,21,-1
 200 1050 l 1,0,-1
EndSplineSet
Validated: 1
EndChar

StartChar: paragraph
Encoding: 182 182 120
Width: 1180
GlyphClass: 2
Flags: W
HStem: -40 21G<780 832.857>
VStem: 780 70<-12 604> 914 66<50 1137>
LayerCount: 2
Fore
SplineSet
780 -40 m 1,0,-1
 780 604 l 1,1,2
 680 554 680 554 565 554 c 0,3,4
 392 554 392 554 274 650 c 0,5,6
 150 752 150 752 150 947 c 2,7,-1
 150 1137 l 2,8,9
 150 1331 150 1331 274 1434 c 0,10,11
 390 1530 390 1530 565 1530 c 0,12,13
 734 1530 734 1530 856 1434 c 0,14,15
 980 1336 980 1336 980 1137 c 2,16,-1
 980 50 l 1,17,-1
 914 19 l 1,18,-1
 914 1137 l 1,19,-1
 850 1137 l 1,20,-1
 850 -12 l 1,21,-1
 790 -40 l 1,22,-1
 780 -40 l 1,0,-1
EndSplineSet
Validated: 1
EndChar

StartChar: periodcentered
Encoding: 183 183 121
Width: 600
GlyphClass: 2
Flags: W
HStem: 631 245<216.097 383.903>
VStem: 180 240<668.129 838.871>
LayerCount: 2
Fore
SplineSet
180 753.5 m 132,-1,1
 180 804 180 804 215 840 c 132,-1,2
 250 876 250 876 300 876 c 132,-1,3
 350 876 350 876 385 840 c 132,-1,4
 420 804 420 804 420 753.5 c 132,-1,5
 420 703 420 703 385 667 c 132,-1,6
 350 631 350 631 300 631 c 132,-1,7
 250 631 250 631 215 667 c 132,-1,0
 180 703 180 703 180 753.5 c 132,-1,1
EndSplineSet
Validated: 1
EndChar

StartChar: cedilla
Encoding: 184 184 122
Width: 609
GlyphClass: 2
Flags: W
HStem: -286 564
VStem: 284 175<-116.616 108.943>
LayerCount: 2
Fore
SplineSet
214 278 m 1,0,1
 459 149 459 149 459 -42 c 0,2,3
 459 -179 459 -179 350 -286 c 1,4,-1
 340 -286 l 1,5,-1
 150 -196 l 1,6,7
 284 -109 284 -109 284 12 c 0,8,9
 284 113 284 113 171 228 c 1,10,-1
 214 278 l 1,0,1
EndSplineSet
Validated: 1
EndChar

StartChar: uni00B9
Encoding: 185 185 123
Width: 672
GlyphClass: 2
Flags: W
HStem: 1325 112<150 262> 1530 20G<344.23 422>
VStem: 272 150<764 1382>
LayerCount: 2
Fore
SplineSet
386 1550 m 1,0,-1
 422 1550 l 1,1,-1
 422 764 l 1,2,-1
 308 710 l 1,3,-1
 272 710 l 1,4,-1
 272 1382 l 1,5,-1
 150 1325 l 1,6,-1
 150 1437 l 1,7,-1
 386 1550 l 1,0,-1
EndSplineSet
Validated: 3073
EndChar

StartChar: ordmasculine
Encoding: 186 186 124
Width: 955
GlyphClass: 2
Flags: W
HStem: 664 182<231 724> 899 120<407.821 546.624> 1410 120<407.821 546.131>
VStem: 250 140<1043.79 1385.21> 565 140<1041.73 1387.27>
LayerCount: 2
Fore
SplineSet
250 1116 m 2,0,-1
 250 1313 l 2,1,2
 250 1423 250 1423 317 1476.5 c 128,-1,3
 384 1530 384 1530 478 1530 c 0,4,5
 571 1530 571 1530 636 1477 c 0,6,7
 705 1422 705 1422 705 1313 c 2,8,-1
 705 1116 l 2,9,10
 705 1010 705 1010 636 952 c 0,11,12
 573 899 573 899 478 899 c 0,13,14
 384 899 384 899 317 952.5 c 128,-1,15
 250 1006 250 1006 250 1116 c 2,0,-1
390 1116 m 2,16,17
 390 1068 390 1068 414 1043 c 0,18,19
 437 1019 437 1019 479 1019 c 0,20,21
 515 1019 515 1019 539 1041 c 0,22,23
 565 1064 565 1064 565 1116 c 2,24,-1
 565 1313 l 2,25,26
 565 1365 565 1365 539 1388 c 0,27,28
 515 1410 515 1410 479 1410 c 0,29,30
 437 1410 437 1410 414 1386 c 0,31,32
 390 1361 390 1361 390 1313 c 2,33,-1
 390 1116 l 2,16,17
150 664 m 1,34,-1
 150 674 l 1,35,-1
 231 846 l 1,36,-1
 805 846 l 1,37,-1
 805 836 l 1,38,-1
 724 664 l 1,39,-1
 150 664 l 1,34,-1
EndSplineSet
Validated: 1
EndChar

StartChar: guillemotright
Encoding: 187 187 125
Width: 1208
GlyphClass: 2
Flags: W
DStem2: 384 1284 200 1202 0.506484 -0.862249<0 451.016> 200 386 384 304 0.509561 0.860435<23.2035 475.231> 769 1284 585 1202 0.506484 -0.862249<0 451.016> 585 386 769 304 0.509561 0.860435<23.2035 475.231>
LayerCount: 2
Fore
SplineSet
384 304 m 1,0,-1
 374 304 l 1,1,-1
 200 386 l 1,2,-1
 442 795 l 1,3,-1
 200 1202 l 1,4,-1
 374 1284 l 1,5,-1
 384 1284 l 1,6,-1
 673 792 l 1,7,-1
 384 304 l 1,0,-1
769 304 m 1,8,-1
 759 304 l 1,9,-1
 585 386 l 1,10,-1
 827 795 l 1,11,-1
 585 1202 l 1,12,-1
 759 1284 l 1,13,-1
 769 1284 l 1,14,-1
 1058 792 l 1,15,-1
 769 304 l 1,8,-1
EndSplineSet
Validated: 1
EndChar

StartChar: onequarter
Encoding: 188 188 126
Width: 1469
GlyphClass: 2
Flags: W
HStem: -40 21G<310.529 371.317 1044 1122.22> 195 141<879 1044 1194 1219> 1325 112<150 262> 1530 20G<344.23 422 910.683 971.471>
VStem: 272 150<764 1382> 1044 150<14 195 336 540>
DStem2: 211 28 362 -40 0.422266 0.906472<2.12205 1679.04>
LayerCount: 2
Fore
SplineSet
879 336 m 1,0,-1
 1044 336 l 1,1,-1
 1044 540 l 1,2,-1
 879 336 l 1,0,-1
1044 -40 m 1,3,-1
 1044 195 l 1,4,-1
 678 195 l 1,5,-1
 678 231 l 1,6,-1
 722 324 l 1,7,-1
 1053 750 l 1,8,-1
 1158 800 l 1,9,-1
 1194 800 l 1,10,-1
 1194 336 l 1,11,-1
 1269 336 l 1,12,-1
 1269 300 l 1,13,-1
 1219 195 l 1,14,-1
 1194 195 l 1,15,-1
 1194 14 l 1,16,-1
 1080 -40 l 1,17,-1
 1044 -40 l 1,3,-1
386 1550 m 1,18,-1
 422 1550 l 1,19,-1
 422 764 l 1,20,-1
 308 710 l 1,21,-1
 272 710 l 1,22,-1
 272 1382 l 1,23,-1
 150 1325 l 1,24,-1
 150 1437 l 1,25,-1
 386 1550 l 1,18,-1
352 -40 m 1,26,-1
 211 28 l 1,27,-1
 920 1550 l 1,28,-1
 930 1550 l 1,29,-1
 1071 1482 l 1,30,-1
 362 -40 l 1,31,-1
 352 -40 l 1,26,-1
EndSplineSet
Validated: 1
EndChar

StartChar: onehalf
Encoding: 189 189 127
Width: 1536
GlyphClass: 2
Flags: W
HStem: -40 21G<310.529 371.317> 0 140<1010 1286> 660 140<960.159 1155.07> 1325 112<150 262> 1530 20G<344.23 422 910.683 971.471>
VStem: 272 150<764 1382> 780 150<438.963 629.522> 1182 154<439.374 625.604>
DStem2: 211 28 362 -40 0.422266 0.906472<2.12205 1679.04>
LayerCount: 2
Fore
SplineSet
774 0 m 1,0,-1
 774 36 l 1,1,-1
 819 132 l 1,2,-1
 1062 358 l 2,3,4
 1182 470 1182 470 1182 540 c 0,5,6
 1182 589 1182 589 1155 618 c 0,7,8
 1115 660 1115 660 1058 660 c 0,9,10
 999 660 999 660 960 616 c 0,11,12
 930 583 930 583 930 538 c 0,13,14
 930 498 930 498 959 456 c 1,15,-1
 846 402 l 1,16,-1
 821 402 l 1,17,18
 780 460 780 460 780 538 c 0,19,20
 780 651 780 651 850 724 c 0,21,22
 923 800 923 800 1056 800 c 0,23,24
 1187 800 1187 800 1261 722 c 128,-1,25
 1335 644 1335 644 1335 538 c 0,26,27
 1335 405 1335 405 1184 282 c 2,28,-1
 1010 140 l 1,29,-1
 1336 140 l 1,30,-1
 1336 104 l 1,31,-1
 1286 0 l 1,32,-1
 774 0 l 1,0,-1
386 1550 m 1,33,-1
 422 1550 l 1,34,-1
 422 764 l 1,35,-1
 308 710 l 1,36,-1
 272 710 l 1,37,-1
 272 1382 l 1,38,-1
 150 1325 l 1,39,-1
 150 1437 l 1,40,-1
 386 1550 l 1,33,-1
352 -40 m 1,41,-1
 211 28 l 1,42,-1
 920 1550 l 1,43,-1
 930 1550 l 1,44,-1
 1071 1482 l 1,45,-1
 362 -40 l 1,46,-1
 352 -40 l 1,41,-1
EndSplineSet
Validated: 1
EndChar

StartChar: threequarters
Encoding: 190 190 128
Width: 1665
GlyphClass: 2
Flags: W
HStem: -40 21G<506.529 567.317 1240 1318.22> 195 141<1075 1240 1390 1415> 711 139<329.782 524.687> 1369 141<244 445> 1530 20G<1106.68 1167.47>
VStem: 150 150<894.13 990> 555 150<887.693 1075.33> 1240 150<14 195 336 540>
DStem2: 407 28 558 -40 0.422266 0.906472<2.12205 1679.04>
LayerCount: 2
Fore
SplineSet
150 990 m 1,0,-1
 268 1055 l 1,1,-1
 300 1055 l 1,2,-1
 300 985 l 2,3,4
 300 929 300 929 330 893 c 0,5,6
 366 850 366 850 428 850 c 0,7,8
 487 850 487 850 525 893 c 0,9,10
 555 927 555 927 555 989 c 0,11,12
 555 1040 555 1040 532 1067 c 0,13,14
 499 1105 499 1105 424 1106 c 0,15,-1
 298 1106 l 1,16,-1
 445 1369 l 1,17,-1
 194 1369 l 1,18,-1
 194 1405 l 1,19,-1
 244 1510 l 1,20,-1
 683 1510 l 1,21,-1
 490 1212 l 1,22,23
 576 1207 576 1207 626 1166 c 0,24,25
 705 1101 705 1101 705 992 c 0,26,27
 705 866 705 866 630 788.5 c 128,-1,28
 555 711 555 711 427 711 c 128,-1,29
 299 711 299 711 224 787 c 0,30,31
 150 863 150 863 150 990 c 1,0,-1
1075 336 m 1,32,-1
 1240 336 l 1,33,-1
 1240 540 l 1,34,-1
 1075 336 l 1,32,-1
1240 -40 m 1,35,-1
 1240 195 l 1,36,-1
 874 195 l 1,37,-1
 874 231 l 1,38,-1
 918 324 l 1,39,-1
 1249 750 l 1,40,-1
 1354 800 l 1,41,-1
 1390 800 l 1,42,-1
 1390 336 l 1,43,-1
 1465 336 l 1,44,-1
 1465 300 l 1,45,-1
 1415 195 l 1,46,-1
 1390 195 l 1,47,-1
 1390 14 l 1,48,-1
 1276 -40 l 1,49,-1
 1240 -40 l 1,35,-1
548 -40 m 1,50,-1
 407 28 l 1,51,-1
 1116 1550 l 1,52,-1
 1126 1550 l 1,53,-1
 1267 1482 l 1,54,-1
 558 -40 l 1,55,-1
 548 -40 l 1,50,-1
EndSplineSet
Validated: 1
EndChar

StartChar: questiondown
Encoding: 191 191 129
Width: 1300
GlyphClass: 2
Flags: W
HStem: -20 180<480.113 807.379> 1285 245<571.097 738.903>
VStem: 150 198<291.403 600.182> 535 240<1322.13 1492.87> 569 203<957.73 1056> 950 200<300.219 614.849>
LayerCount: 2
Fore
SplineSet
775 1407.5 m 128,-1,1
 775 1357 775 1357 740 1321 c 128,-1,2
 705 1285 705 1285 655 1285 c 128,-1,3
 605 1285 605 1285 570 1321 c 128,-1,4
 535 1357 535 1357 535 1407.5 c 128,-1,5
 535 1458 535 1458 570 1494 c 128,-1,6
 605 1530 605 1530 655 1530 c 128,-1,7
 705 1530 705 1530 740 1494 c 128,-1,0
 775 1458 775 1458 775 1407.5 c 128,-1,1
1089 677 m 1,8,9
 1150 569 1150 569 1150 440 c 0,10,11
 1150 269 1150 269 1015 125 c 0,12,13
 878 -20 878 -20 645 -20 c 0,14,15
 409 -20 409 -20 275 125 c 0,16,17
 150 260 150 260 150 460 c 0,18,19
 150 697 150 697 479 919 c 24,20,21
 566 978 566 978 569 1056 c 1,22,-1
 762 1149 l 1,23,-1
 772 1149 l 1,24,25
 771 899 771 899 597 788 c 0,26,27
 348 630 348 630 348 459 c 0,28,29
 348 340 348 340 412 263 c 0,30,31
 497 160 497 160 645 160 c 0,32,33
 785 160 785 160 878 263 c 0,34,35
 950 343 950 343 950 463 c 0,36,37
 950 530 950 530 911 596 c 1,38,-1
 1079 677 l 1,39,-1
 1089 677 l 1,8,9
EndSplineSet
Validated: 1
EndChar

StartChar: Delta
Encoding: 916 916 130
Width: 1191
GlyphClass: 2
Flags: W
HStem: 0 182<275 916> 1530 20G<623.805 682.581>
DStem2: 5 0 275 182 0.315452 0.948942<257.879 1340.03>
LayerCount: 2
Fore
SplineSet
5 0 m 1,0,-1
 493 1468 l 1,1,-1
 666 1550 l 1,2,-1
 676 1550 l 1,3,-1
 1186 0 l 1,4,-1
 5 0 l 1,0,-1
275 182 m 1,5,-1
 916 182 l 1,6,-1
 598 1215 l 1,7,-1
 275 182 l 1,5,-1
EndSplineSet
Validated: 1
EndChar

StartChar: Pi
Encoding: 928 928 131
Width: 1390
GlyphClass: 2
Flags: W
HStem: -40 21G<200 252.222 990 1042.22> 1328 182<400 990>
VStem: 200 200<50 1328> 990 200<50 1328>
LayerCount: 2
Fore
SplineSet
210 -40 m 1,0,-1
 200 -40 l 1,1,-1
 200 1460 l 1,2,-1
 306 1510 l 1,3,-1
 1190 1510 l 1,4,-1
 1190 50 l 1,5,-1
 1000 -40 l 1,6,-1
 990 -40 l 1,7,-1
 990 1328 l 1,8,-1
 400 1328 l 1,9,-1
 400 50 l 1,10,-1
 210 -40 l 1,0,-1
EndSplineSet
Validated: 3073
EndChar

StartChar: Sigma
Encoding: 931 931 132
Width: 1203
GlyphClass: 2
Flags: W
HStem: 0 182<430 972> 1328 182<416 881>
DStem2: 416 1328 101 1460 0.592076 -0.805882<0 558.361>
LayerCount: 2
Fore
SplineSet
100 0 m 1,0,-1
 605 774 l 1,1,-1
 101 1460 l 1,2,-1
 207 1510 l 1,3,-1
 962 1510 l 1,4,-1
 962 1500 l 1,5,-1
 881 1328 l 1,6,-1
 416 1328 l 1,7,-1
 837 774 l 1,8,-1
 430 182 l 1,9,-1
 1053 182 l 1,10,-1
 1053 172 l 1,11,-1
 972 0 l 1,12,-1
 100 0 l 1,0,-1
EndSplineSet
Validated: 1
EndChar

StartChar: Omega
Encoding: 937 937 133
Width: 1410
GlyphClass: 2
Flags: W
HStem: 0 182<231 446 964 1179> 1350 180<539.842 868.968>
VStem: 200 200<495.728 1205.25> 446 162<182 270.781> 802 162<182 269.612> 1010 200<497.293 1206.72>
LayerCount: 2
Fore
SplineSet
150 0 m 1,0,-1
 150 10 l 1,1,-1
 231 182 l 1,2,-1
 446 182 l 1,3,-1
 446 248 l 1,4,5
 384 275 384 275 335 320 c 0,6,7
 200 448 200 448 200 675 c 2,8,-1
 200 1030 l 2,9,10
 200 1248 200 1248 335 1385 c 0,11,12
 477 1530 477 1530 705 1530 c 0,13,14
 928 1530 928 1530 1075 1385 c 0,15,16
 1210 1251 1210 1251 1210 1030 c 2,17,-1
 1210 675 l 2,18,19
 1210 452 1210 452 1075 320 c 0,20,21
 1032 278 1032 278 964 247 c 1,22,-1
 964 182 l 1,23,-1
 1260 182 l 1,24,-1
 1260 172 l 1,25,-1
 1179 0 l 1,26,-1
 802 0 l 1,27,-1
 802 368 l 1,28,29
 881 392 881 392 938 458 c 0,30,31
 1010 541 1010 541 1010 675 c 2,32,-1
 1010 1030 l 2,33,34
 1010 1164 1010 1164 938 1247 c 0,35,36
 849 1350 849 1350 705 1350 c 128,-1,37
 561 1350 561 1350 472 1247 c 0,38,39
 400 1164 400 1164 400 1030 c 2,40,-1
 400 675 l 2,41,42
 400 538 400 538 472 458 c 0,43,44
 534 389 534 389 608 367 c 1,45,-1
 608 0 l 1,46,-1
 150 0 l 1,0,-1
EndSplineSet
Validated: 1
EndChar

StartChar: mu
Encoding: 956 956 134
Width: 1180
GlyphClass: 2
Flags: W
HStem: -450 21G<200 252.222> -20 178<474.899 756.186> 1120 20G<347.778 400 977.778 1030>
VStem: 200 200<-360 65 229.72 1050> 830 200<230.245 1050>
LayerCount: 2
Fore
SplineSet
200 1050 m 1,0,-1
 390 1140 l 1,1,-1
 400 1140 l 1,2,-1
 400 380 l 2,3,4
 400 265 400 265 462.5 211.5 c 128,-1,5
 525 158 525 158 615 158 c 128,-1,6
 705 158 705 158 767.5 211.5 c 128,-1,7
 830 265 830 265 830 380 c 2,8,-1
 830 1050 l 1,9,-1
 1020 1140 l 1,10,-1
 1030 1140 l 1,11,-1
 1030 380 l 2,12,13
 1030 215 1030 215 906 93 c 0,14,15
 790 -20 790 -20 615 -20 c 0,16,17
 476 -20 476 -20 400 65 c 1,18,-1
 400 -360 l 1,19,-1
 210 -450 l 1,20,-1
 200 -450 l 1,21,-1
 200 1050 l 1,0,-1
EndSplineSet
Validated: 1
EndChar

StartChar: pi
Encoding: 960 960 135
Width: 1173
GlyphClass: 2
Flags: W
HStem: -40 21G<200 252.222 773 825.222> 918 182<400 773>
VStem: 200 200<50 918> 773 200<50 918>
LayerCount: 2
Fore
SplineSet
210 -40 m 1,0,-1
 200 -40 l 1,1,-1
 200 1050 l 1,2,-1
 306 1100 l 1,3,-1
 973 1100 l 1,4,-1
 973 50 l 1,5,-1
 783 -40 l 1,6,-1
 773 -40 l 1,7,-1
 773 918 l 1,8,-1
 400 918 l 1,9,-1
 400 50 l 1,10,-1
 210 -40 l 1,0,-1
EndSplineSet
Validated: 3073
EndChar

StartChar: uni2010
Encoding: 8208 8208 136
Width: 1214
GlyphClass: 2
Flags: W
HStem: 664 182<306 908>
LayerCount: 2
Fore
SplineSet
225 664 m 1,0,-1
 225 674 l 1,1,-1
 306 846 l 1,2,-1
 989 846 l 1,3,-1
 989 836 l 1,4,-1
 908 664 l 1,5,-1
 225 664 l 1,0,-1
EndSplineSet
Validated: 3073
EndChar

StartChar: uni2011
Encoding: 8209 8209 137
Width: 1214
GlyphClass: 2
Flags: W
HStem: 664 182<306 908>
LayerCount: 2
Fore
SplineSet
225 664 m 1,0,-1
 225 674 l 1,1,-1
 306 846 l 1,2,-1
 989 846 l 1,3,-1
 989 836 l 1,4,-1
 908 664 l 1,5,-1
 225 664 l 1,0,-1
EndSplineSet
Validated: 3073
EndChar

StartChar: figuredash
Encoding: 8210 8210 138
Width: 1214
GlyphClass: 2
Flags: W
HStem: 664 182<231 983>
LayerCount: 2
Fore
SplineSet
150 664 m 1,0,-1
 150 674 l 1,1,-1
 231 846 l 1,2,-1
 1064 846 l 1,3,-1
 1064 836 l 1,4,-1
 983 664 l 1,5,-1
 150 664 l 1,0,-1
EndSplineSet
Validated: 3073
EndChar

StartChar: endash
Encoding: 8211 8211 139
Width: 1214
GlyphClass: 2
Flags: W
HStem: 664 182<231 983>
LayerCount: 2
Fore
SplineSet
150 664 m 1,0,-1
 150 674 l 1,1,-1
 231 846 l 1,2,-1
 1064 846 l 1,3,-1
 1064 836 l 1,4,-1
 983 664 l 1,5,-1
 150 664 l 1,0,-1
EndSplineSet
Validated: 3073
EndChar

StartChar: emdash
Encoding: 8212 8212 140
Width: 1214
GlyphClass: 2
Flags: W
HStem: 664 182<106 1108>
LayerCount: 2
Fore
SplineSet
25 664 m 1,0,-1
 25 674 l 1,1,-1
 106 846 l 1,2,-1
 1189 846 l 1,3,-1
 1189 836 l 1,4,-1
 1108 664 l 1,5,-1
 25 664 l 1,0,-1
EndSplineSet
Validated: 3073
EndChar

StartChar: afii00208
Encoding: 8213 8213 141
Width: 1214
GlyphClass: 2
Flags: W
HStem: 664 182<106 1108>
LayerCount: 2
Fore
SplineSet
25 664 m 1,0,-1
 25 674 l 1,1,-1
 106 846 l 1,2,-1
 1189 846 l 1,3,-1
 1189 836 l 1,4,-1
 1108 664 l 1,5,-1
 25 664 l 1,0,-1
EndSplineSet
Validated: 3073
EndChar

StartChar: underscoredbl
Encoding: 8215 8215 142
Width: 1214
GlyphClass: 2
Flags: W
HStem: -410 182<231 983> -182 182<231 983>
LayerCount: 2
Fore
SplineSet
150 -182 m 1,0,-1
 150 -172 l 1,1,-1
 231 0 l 1,2,-1
 1064 0 l 1,3,-1
 1064 -10 l 1,4,-1
 983 -182 l 1,5,-1
 150 -182 l 1,0,-1
150 -410 m 1,6,-1
 150 -400 l 1,7,-1
 231 -228 l 1,8,-1
 1064 -228 l 1,9,-1
 1064 -238 l 1,10,-1
 983 -410 l 1,11,-1
 150 -410 l 1,6,-1
EndSplineSet
Validated: 3073
EndChar

StartChar: quoteleft
Encoding: 8216 8216 143
Width: 609
GlyphClass: 2
Flags: W
HStem: 986 564
VStem: 150 175<1155.38 1380.94>
LayerCount: 2
Fore
SplineSet
395 1550 m 1,0,-1
 438 1500 l 1,1,2
 325 1385 325 1385 325 1284 c 0,3,4
 325 1163 325 1163 459 1076 c 1,5,-1
 269 986 l 1,6,-1
 259 986 l 1,7,8
 150 1093 150 1093 150 1230 c 0,9,10
 150 1421 150 1421 395 1550 c 1,0,-1
EndSplineSet
Validated: 1
EndChar

StartChar: quoteright
Encoding: 8217 8217 144
Width: 609
GlyphClass: 2
Flags: W
HStem: 986 564
VStem: 284 175<1155.06 1380.62>
LayerCount: 2
Fore
SplineSet
340 1550 m 1,0,-1
 350 1550 l 1,1,2
 459 1443 459 1443 459 1306 c 0,3,4
 459 1115 459 1115 214 986 c 1,5,-1
 171 1036 l 1,6,7
 284 1151 284 1151 284 1252 c 0,8,9
 284 1373 284 1373 150 1460 c 1,10,-1
 340 1550 l 1,0,-1
EndSplineSet
Validated: 1
EndChar

StartChar: quotesinglbase
Encoding: 8218 8218 145
Width: 609
GlyphClass: 2
Flags: W
HStem: -286 564
VStem: 284 175<-116.943 108.616>
LayerCount: 2
Fore
SplineSet
340 278 m 1,0,-1
 350 278 l 1,1,2
 459 171 459 171 459 34 c 0,3,4
 459 -157 459 -157 214 -286 c 1,5,-1
 171 -236 l 1,6,7
 284 -121 284 -121 284 -20 c 0,8,9
 284 101 284 101 150 188 c 1,10,-1
 340 278 l 1,0,-1
EndSplineSet
Validated: 1
EndChar

StartChar: quotereversed
Encoding: 8219 8219 146
Width: 609
GlyphClass: 2
Flags: W
HStem: 986 564
VStem: 150 175<1155.06 1380.62>
LayerCount: 2
Fore
SplineSet
259 1550 m 1,0,-1
 269 1550 l 1,1,-1
 459 1460 l 1,2,3
 325 1373 325 1373 325 1252 c 0,4,5
 325 1151 325 1151 438 1036 c 1,6,-1
 395 986 l 1,7,8
 150 1115 150 1115 150 1306 c 0,9,10
 150 1443 150 1443 259 1550 c 1,0,-1
EndSplineSet
Validated: 1
EndChar

StartChar: quotedblleft
Encoding: 8220 8220 147
Width: 924
GlyphClass: 2
Flags: W
HStem: 986 564
VStem: 150 175<1155.38 1380.94> 465 175<1155.38 1380.94>
LayerCount: 2
Fore
SplineSet
395 1550 m 1,0,-1
 438 1500 l 1,1,2
 325 1385 325 1385 325 1284 c 0,3,4
 325 1163 325 1163 459 1076 c 1,5,-1
 269 986 l 1,6,-1
 259 986 l 1,7,8
 150 1093 150 1093 150 1230 c 0,9,10
 150 1421 150 1421 395 1550 c 1,0,-1
710 1550 m 1,11,-1
 753 1500 l 1,12,13
 640 1385 640 1385 640 1284 c 0,14,15
 640 1163 640 1163 774 1076 c 1,16,-1
 584 986 l 1,17,-1
 574 986 l 1,18,19
 465 1093 465 1093 465 1230 c 0,20,21
 465 1421 465 1421 710 1550 c 1,11,-1
EndSplineSet
Validated: 1
EndChar

StartChar: quotedblright
Encoding: 8221 8221 148
Width: 924
GlyphClass: 2
Flags: W
HStem: 986 564
VStem: 284 175<1155.06 1380.62> 599 175<1155.06 1380.62>
LayerCount: 2
Fore
SplineSet
655 1550 m 1,0,-1
 665 1550 l 1,1,2
 774 1443 774 1443 774 1306 c 0,3,4
 774 1115 774 1115 529 986 c 1,5,-1
 486 1036 l 1,6,7
 599 1151 599 1151 599 1252 c 0,8,9
 599 1373 599 1373 465 1460 c 1,10,-1
 655 1550 l 1,0,-1
340 1550 m 1,11,-1
 350 1550 l 1,12,13
 459 1443 459 1443 459 1306 c 0,14,15
 459 1115 459 1115 214 986 c 1,16,-1
 171 1036 l 1,17,18
 284 1151 284 1151 284 1252 c 0,19,20
 284 1373 284 1373 150 1460 c 1,21,-1
 340 1550 l 1,11,-1
EndSplineSet
Validated: 1
EndChar

StartChar: quotedblbase
Encoding: 8222 8222 149
Width: 924
GlyphClass: 2
Flags: W
HStem: -286 564
VStem: 284 175<-116.943 108.616> 599 175<-116.943 108.616>
LayerCount: 2
Fore
SplineSet
655 278 m 1,0,-1
 665 278 l 1,1,2
 774 171 774 171 774 34 c 0,3,4
 774 -157 774 -157 529 -286 c 1,5,-1
 486 -236 l 1,6,7
 599 -121 599 -121 599 -20 c 0,8,9
 599 101 599 101 465 188 c 1,10,-1
 655 278 l 1,0,-1
340 278 m 1,11,-1
 350 278 l 1,12,13
 459 171 459 171 459 34 c 0,14,15
 459 -157 459 -157 214 -286 c 1,16,-1
 171 -236 l 1,17,18
 284 -121 284 -121 284 -20 c 0,19,20
 284 101 284 101 150 188 c 1,21,-1
 340 278 l 1,11,-1
EndSplineSet
Validated: 1
EndChar

StartChar: uni201F
Encoding: 8223 8223 150
Width: 924
GlyphClass: 2
Flags: W
HStem: 986 564
VStem: 150 175<1155.06 1380.62> 465 175<1155.06 1380.62>
LayerCount: 2
Fore
SplineSet
259 1550 m 1,0,1
 269 1550 l 1,2,-1
 459 1460 l 1,3,4
 325 1373 325 1373 325 1252 c 0,5,6
 325 1151 325 1151 438 1036 c 1,7,-1
 395 986 l 1,8,9
 150 1115 150 1115 150 1306 c 0,10,11
 150 1443 150 1443 259 1550 c 1,0,1
574 1550 m 1,12,-1
 584 1550 l 1,13,-1
 774 1460 l 1,14,15
 640 1373 640 1373 640 1252 c 0,16,17
 640 1151 640 1151 753 1036 c 1,18,-1
 710 986 l 1,19,20
 465 1115 465 1115 465 1306 c 0,21,22
 465 1443 465 1443 574 1550 c 1,12,-1
EndSplineSet
Validated: 1
EndChar

StartChar: dagger
Encoding: 8224 8224 151
Width: 1214
GlyphClass: 2
Flags: W
HStem: -40 21G<507 559.222> 996 182<231 507 707 983> 1530 20G<654.778 707>
VStem: 507 200<50 996 1178 1460>
LayerCount: 2
Fore
SplineSet
517 -40 m 1,0,-1
 507 -40 l 1,1,-1
 507 996 l 1,2,-1
 150 996 l 1,3,-1
 150 1006 l 1,4,-1
 231 1178 l 1,5,-1
 507 1178 l 1,6,-1
 507 1460 l 1,7,-1
 697 1550 l 1,8,-1
 707 1550 l 1,9,-1
 707 1178 l 1,10,-1
 1064 1178 l 1,11,-1
 1064 1168 l 1,12,-1
 983 996 l 1,13,-1
 707 996 l 1,14,-1
 707 50 l 1,15,-1
 517 -40 l 1,0,-1
EndSplineSet
Validated: 3073
EndChar

StartChar: daggerdbl
Encoding: 8225 8225 152
Width: 1214
GlyphClass: 2
Flags: W
HStem: -40 21G<507 559.222> 332 182<231 507 707 983> 996 182<231 507 707 983> 1530 20G<654.778 707>
VStem: 507 200<50 332 514 996 1178 1460>
LayerCount: 2
Fore
SplineSet
517 -40 m 1,0,-1
 507 -40 l 1,1,-1
 507 332 l 1,2,-1
 150 332 l 1,3,-1
 150 342 l 1,4,-1
 231 514 l 1,5,-1
 507 514 l 1,6,-1
 507 996 l 1,7,-1
 150 996 l 1,8,-1
 150 1006 l 1,9,-1
 231 1178 l 1,10,-1
 507 1178 l 1,11,-1
 507 1460 l 1,12,-1
 697 1550 l 1,13,-1
 707 1550 l 1,14,-1
 707 1178 l 1,15,-1
 1064 1178 l 1,16,-1
 1064 1168 l 1,17,-1
 983 996 l 1,18,-1
 707 996 l 1,19,-1
 707 514 l 1,20,-1
 1064 514 l 1,21,-1
 1064 504 l 1,22,-1
 983 332 l 1,23,-1
 707 332 l 1,24,-1
 707 50 l 1,25,-1
 517 -40 l 1,0,-1
EndSplineSet
Validated: 3073
EndChar

StartChar: bullet
Encoding: 8226 8226 153
Width: 1130
GlyphClass: 2
Flags: W
HStem: 354 800<370.234 759.766>
VStem: 150 830<573.222 934.778>
LayerCount: 2
Fore
SplineSet
150 754 m 0,0,1
 150 919 150 919 274 1041 c 0,2,3
 390 1154 390 1154 565 1154 c 0,4,5
 738 1154 738 1154 856 1041 c 0,6,7
 980 921 980 921 980 754 c 0,8,9
 980 589 980 589 856 467 c 0,10,11
 740 354 740 354 565 354 c 0,12,13
 392 354 392 354 274 467 c 0,14,15
 150 587 150 587 150 754 c 0,0,1
EndSplineSet
Validated: 1
EndChar

StartChar: uni2023
Encoding: 8227 8227 154
Width: 928
GlyphClass: 2
Flags: W
HStem: 1121 20G<200 233.493>
VStem: 200 628
LayerCount: 2
Fore
SplineSet
200 362 m 1,0,-1
 200 1141 l 1,1,-1
 828 766 l 1,2,-1
 200 362 l 1,0,-1
EndSplineSet
Validated: 3073
EndChar

StartChar: onedotenleader
Encoding: 8228 8228 155
Width: 600
GlyphClass: 2
Flags: W
HStem: -20 245<216.097 383.903>
VStem: 180 240<17.1285 187.871>
LayerCount: 2
Fore
SplineSet
180 102.5 m 128,-1,1
 180 153 180 153 215 189 c 128,-1,2
 250 225 250 225 300 225 c 128,-1,3
 350 225 350 225 385 189 c 128,-1,4
 420 153 420 153 420 102.5 c 128,-1,5
 420 52 420 52 385 16 c 128,-1,6
 350 -20 350 -20 300 -20 c 128,-1,7
 250 -20 250 -20 215 16 c 128,-1,0
 180 52 180 52 180 102.5 c 128,-1,1
EndSplineSet
Validated: 1
EndChar

StartChar: twodotenleader
Encoding: 8229 8229 156
Width: 936
GlyphClass: 2
Flags: W
HStem: -20 245<216.097 383.903 552.097 719.903>
VStem: 180 240<17.1285 187.871> 516 240<17.1285 187.871>
LayerCount: 2
Fore
SplineSet
516 102.5 m 128,-1,1
 516 153 516 153 551 189 c 128,-1,2
 586 225 586 225 636 225 c 128,-1,3
 686 225 686 225 721 189 c 128,-1,4
 756 153 756 153 756 102.5 c 128,-1,5
 756 52 756 52 721 16 c 128,-1,6
 686 -20 686 -20 636 -20 c 128,-1,7
 586 -20 586 -20 551 16 c 128,-1,0
 516 52 516 52 516 102.5 c 128,-1,1
180 102.5 m 128,-1,9
 180 153 180 153 215 189 c 128,-1,10
 250 225 250 225 300 225 c 128,-1,11
 350 225 350 225 385 189 c 128,-1,12
 420 153 420 153 420 102.5 c 128,-1,13
 420 52 420 52 385 16 c 128,-1,14
 350 -20 350 -20 300 -20 c 128,-1,15
 250 -20 250 -20 215 16 c 128,-1,8
 180 52 180 52 180 102.5 c 128,-1,9
EndSplineSet
Validated: 1
EndChar

StartChar: ellipsis
Encoding: 8230 8230 157
Width: 1272
GlyphClass: 2
Flags: W
HStem: -20 245<216.097 383.903 552.097 719.903 888.097 1055.9>
VStem: 180 240<17.1285 187.871> 516 240<17.1285 187.871> 852 240<17.1285 187.871>
CounterMasks: 1 70
LayerCount: 2
Fore
SplineSet
852 102.5 m 128,-1,1
 852 153 852 153 887 189 c 128,-1,2
 922 225 922 225 972 225 c 128,-1,3
 1022 225 1022 225 1057 189 c 128,-1,4
 1092 153 1092 153 1092 102.5 c 128,-1,5
 1092 52 1092 52 1057 16 c 128,-1,6
 1022 -20 1022 -20 972 -20 c 128,-1,7
 922 -20 922 -20 887 16 c 128,-1,0
 852 52 852 52 852 102.5 c 128,-1,1
516 102.5 m 128,-1,9
 516 153 516 153 551 189 c 128,-1,10
 586 225 586 225 636 225 c 128,-1,11
 686 225 686 225 721 189 c 128,-1,12
 756 153 756 153 756 102.5 c 128,-1,13
 756 52 756 52 721 16 c 128,-1,14
 686 -20 686 -20 636 -20 c 128,-1,15
 586 -20 586 -20 551 16 c 128,-1,8
 516 52 516 52 516 102.5 c 128,-1,9
180 102.5 m 128,-1,17
 180 153 180 153 215 189 c 128,-1,18
 250 225 250 225 300 225 c 128,-1,19
 350 225 350 225 385 189 c 128,-1,20
 420 153 420 153 420 102.5 c 128,-1,21
 420 52 420 52 385 16 c 128,-1,22
 350 -20 350 -20 300 -20 c 128,-1,23
 250 -20 250 -20 215 16 c 128,-1,16
 180 52 180 52 180 102.5 c 128,-1,17
EndSplineSet
Validated: 1
EndChar

StartChar: uni2027
Encoding: 8231 8231 158
Width: 600
GlyphClass: 2
Flags: W
HStem: 631 245<216.097 383.903>
VStem: 180 240<668.129 838.871>
LayerCount: 2
Fore
SplineSet
180 753.5 m 132,-1,1
 180 804 180 804 215 840 c 132,-1,2
 250 876 250 876 300 876 c 132,-1,3
 350 876 350 876 385 840 c 132,-1,4
 420 804 420 804 420 753.5 c 132,-1,5
 420 703 420 703 385 667 c 132,-1,6
 350 631 350 631 300 631 c 132,-1,7
 250 631 250 631 215 667 c 132,-1,0
 180 703 180 703 180 753.5 c 132,-1,1
EndSplineSet
Validated: 1
EndChar

StartChar: perthousand
Encoding: 8240 8240 159
Width: 3029
GlyphClass: 2
Flags: W
HStem: -40 21G<746.529 807.317> -20 178<1438.31 1720.19 2323.31 2605.19> 602 178<1437.81 1719.69 2322.81 2604.69> 730 178<424.306 706.186> 1352 178<423.814 705.694> 1530 20G<1346.68 1407.47>
VStem: 150 200<979.483 1280.02> 780 200<979.983 1280.52> 1164 200<229.483 530.017> 1794 200<229.983 530.517> 2049 200<229.483 530.017> 2679 200<229.983 530.517>
DStem2: 647 28 798 -40 0.422266 0.906472<2.12205 1679.04>
LayerCount: 2
Fore
SplineSet
2049 380 m 0,0,1
 2049 545 2049 545 2173 667 c 0,2,3
 2289 780 2289 780 2464 780 c 0,4,5
 2637 780 2637 780 2755 667 c 0,6,7
 2879 547 2879 547 2879 380 c 0,8,9
 2879 215 2879 215 2755 93 c 0,10,11
 2639 -20 2639 -20 2464 -20 c 0,12,13
 2291 -20 2291 -20 2173 93 c 0,14,15
 2049 213 2049 213 2049 380 c 0,0,1
2679 380 m 128,-1,17
 2679 495 2679 495 2616.5 548.5 c 128,-1,18
 2554 602 2554 602 2464 602 c 128,-1,19
 2374 602 2374 602 2311.5 548.5 c 128,-1,20
 2249 495 2249 495 2249 380 c 128,-1,21
 2249 265 2249 265 2311.5 211.5 c 128,-1,22
 2374 158 2374 158 2464 158 c 128,-1,23
 2554 158 2554 158 2616.5 211.5 c 128,-1,16
 2679 265 2679 265 2679 380 c 128,-1,17
1164 380 m 0,24,25
 1164 545 1164 545 1288 667 c 0,26,27
 1404 780 1404 780 1579 780 c 0,28,29
 1752 780 1752 780 1870 667 c 0,30,31
 1994 547 1994 547 1994 380 c 0,32,33
 1994 215 1994 215 1870 93 c 0,34,35
 1754 -20 1754 -20 1579 -20 c 0,36,37
 1406 -20 1406 -20 1288 93 c 0,38,39
 1164 213 1164 213 1164 380 c 0,24,25
1794 380 m 128,-1,41
 1794 495 1794 495 1731.5 548.5 c 128,-1,42
 1669 602 1669 602 1579 602 c 128,-1,43
 1489 602 1489 602 1426.5 548.5 c 128,-1,44
 1364 495 1364 495 1364 380 c 128,-1,45
 1364 265 1364 265 1426.5 211.5 c 128,-1,46
 1489 158 1489 158 1579 158 c 128,-1,47
 1669 158 1669 158 1731.5 211.5 c 128,-1,40
 1794 265 1794 265 1794 380 c 128,-1,41
150 1130 m 0,48,49
 150 1295 150 1295 274 1417 c 0,50,51
 390 1530 390 1530 565 1530 c 0,52,53
 738 1530 738 1530 856 1417 c 0,54,55
 980 1297 980 1297 980 1130 c 0,56,57
 980 965 980 965 856 843 c 0,58,59
 740 730 740 730 565 730 c 0,60,61
 392 730 392 730 274 843 c 0,62,63
 150 963 150 963 150 1130 c 0,48,49
780 1130 m 128,-1,65
 780 1245 780 1245 717.5 1298.5 c 128,-1,66
 655 1352 655 1352 565 1352 c 128,-1,67
 475 1352 475 1352 412.5 1298.5 c 128,-1,68
 350 1245 350 1245 350 1130 c 128,-1,69
 350 1015 350 1015 412.5 961.5 c 128,-1,70
 475 908 475 908 565 908 c 128,-1,71
 655 908 655 908 717.5 961.5 c 128,-1,64
 780 1015 780 1015 780 1130 c 128,-1,65
788 -40 m 1,72,-1
 647 28 l 1,73,-1
 1356 1550 l 1,74,-1
 1366 1550 l 1,75,-1
 1507 1482 l 1,76,-1
 798 -40 l 1,77,-1
 788 -40 l 1,72,-1
EndSplineSet
Validated: 1
EndChar

StartChar: minute
Encoding: 8242 8242 160
Width: 680
GlyphClass: 2
Flags: W
HStem: 1059 491
VStem: 150 380
LayerCount: 2
Fore
SplineSet
344 1550 m 1,0,-1
 354 1550 l 1,1,-1
 530 1466 l 1,2,-1
 277 1059 l 1,3,-1
 267 1059 l 1,4,-1
 150 1114 l 1,5,-1
 344 1550 l 1,0,-1
EndSplineSet
Validated: 3073
EndChar

StartChar: second
Encoding: 8243 8243 161
Width: 998
GlyphClass: 2
Flags: W
HStem: 1059 491
LayerCount: 2
Fore
SplineSet
662 1550 m 1,0,-1
 672 1550 l 1,1,-1
 848 1466 l 1,2,-1
 595 1059 l 1,3,-1
 585 1059 l 1,4,-1
 468 1114 l 1,5,-1
 662 1550 l 1,0,-1
344 1550 m 1,6,-1
 354 1550 l 1,7,-1
 530 1466 l 1,8,-1
 277 1059 l 1,9,-1
 267 1059 l 1,10,-1
 150 1114 l 1,11,-1
 344 1550 l 1,6,-1
EndSplineSet
Validated: 3073
EndChar

StartChar: uni2034
Encoding: 8244 8244 162
Width: 1316
GlyphClass: 2
Flags: W
HStem: 1059 491
LayerCount: 2
Fore
SplineSet
980 1550 m 1,0,-1
 990 1550 l 1,1,-1
 1166 1466 l 1,2,-1
 913 1059 l 1,3,-1
 903 1059 l 1,4,-1
 786 1114 l 1,5,-1
 980 1550 l 1,0,-1
662 1550 m 1,6,-1
 672 1550 l 1,7,-1
 848 1466 l 1,8,-1
 595 1059 l 1,9,-1
 585 1059 l 1,10,-1
 468 1114 l 1,11,-1
 662 1550 l 1,6,-1
344 1550 m 1,12,-1
 354 1550 l 1,13,-1
 530 1466 l 1,14,-1
 277 1059 l 1,15,-1
 267 1059 l 1,16,-1
 150 1114 l 1,17,-1
 344 1550 l 1,12,-1
EndSplineSet
Validated: 3073
EndChar

StartChar: uni2035
Encoding: 8245 8245 163
Width: 680
GlyphClass: 2
Flags: W
HStem: 1059 491
VStem: 150 380
LayerCount: 2
Fore
SplineSet
326 1550 m 1,0,-1
 336 1550 l 1,1,-1
 530 1114 l 1,2,-1
 413 1059 l 1,3,-1
 403 1059 l 1,4,-1
 150 1466 l 1,5,-1
 326 1550 l 1,0,-1
EndSplineSet
Validated: 3073
EndChar

StartChar: uni2036
Encoding: 8246 8246 164
Width: 998
GlyphClass: 2
Flags: W
HStem: 1059 491
LayerCount: 2
Fore
SplineSet
326 1550 m 1,0,-1
 336 1550 l 1,1,-1
 530 1114 l 1,2,-1
 413 1059 l 1,3,-1
 403 1059 l 1,4,-1
 150 1466 l 1,5,-1
 326 1550 l 1,0,-1
644 1550 m 1,6,-1
 654 1550 l 1,7,-1
 848 1114 l 1,8,-1
 731 1059 l 1,9,-1
 721 1059 l 1,10,-1
 468 1466 l 1,11,-1
 644 1550 l 1,6,-1
EndSplineSet
Validated: 3073
EndChar

StartChar: uni2037
Encoding: 8247 8247 165
Width: 1316
GlyphClass: 2
Flags: W
HStem: 1059 491
LayerCount: 2
Fore
SplineSet
336 1550 m 1,0,-1
 530 1114 l 1,1,-1
 413 1059 l 1,2,-1
 403 1059 l 1,3,-1
 150 1466 l 1,4,-1
 326 1550 l 1,5,-1
 336 1550 l 1,0,-1
644 1550 m 1,6,-1
 654 1550 l 1,7,-1
 848 1114 l 1,8,-1
 731 1059 l 1,9,-1
 721 1059 l 1,10,-1
 468 1466 l 1,11,-1
 644 1550 l 1,6,-1
962 1550 m 1,12,-1
 972 1550 l 1,13,-1
 1166 1114 l 1,14,-1
 1049 1059 l 1,15,-1
 1039 1059 l 1,16,-1
 786 1466 l 1,17,-1
 962 1550 l 1,12,-1
EndSplineSet
Validated: 3073
EndChar

StartChar: guilsinglleft
Encoding: 8249 8249 166
Width: 823
GlyphClass: 2
Flags: W
VStem: 150 473
DStem2: 150 792 381 795 0.506484 0.862249<119.585 570.601> 381 795 150 792 0.509561 -0.860435<0 452.028>
LayerCount: 2
Fore
SplineSet
439 304 m 1,0,-1
 150 792 l 1,1,-1
 439 1284 l 1,2,-1
 449 1284 l 1,3,-1
 623 1202 l 1,4,-1
 381 795 l 1,5,-1
 623 386 l 1,6,-1
 449 304 l 1,7,-1
 439 304 l 1,0,-1
EndSplineSet
Validated: 1
EndChar

StartChar: guilsinglright
Encoding: 8250 8250 167
Width: 823
GlyphClass: 2
Flags: W
VStem: 200 473
DStem2: 384 1284 200 1202 0.506484 -0.862249<0 451.016> 200 386 384 304 0.509561 0.860435<23.2035 475.231>
LayerCount: 2
Fore
SplineSet
384 304 m 1,0,-1
 374 304 l 1,1,-1
 200 386 l 1,2,-1
 442 795 l 1,3,-1
 200 1202 l 1,4,-1
 374 1284 l 1,5,-1
 384 1284 l 1,6,-1
 673 792 l 1,7,-1
 384 304 l 1,0,-1
EndSplineSet
Validated: 1
EndChar

StartChar: uni2043
Encoding: 8259 8259 168
Width: 1183
GlyphClass: 2
Flags: W
VStem: 500 182<387 605 921 1139>
DStem2: 311 1030 150 913 0.865946 -0.500138<0 218.179 533.824 752.003> 150 613 311 496 0.865946 0.500138<80.9012 299.08 614.726 832.904>
LayerCount: 2
Fore
SplineSet
682 1220 m 1,0,-1
 682 921 l 1,1,-1
 871 1030 l 1,2,-1
 1028 921 l 1,3,-1
 1033 913 l 1,4,-1
 773 763 l 1,5,-1
 1033 613 l 1,6,-1
 1028 605 l 1,7,-1
 871 496 l 1,8,-1
 682 605 l 1,9,-1
 682 387 l 1,10,-1
 510 306 l 1,11,-1
 500 306 l 1,12,-1
 500 605 l 1,13,-1
 311 496 l 1,14,-1
 155 605 l 1,15,-1
 150 613 l 1,16,-1
 409 763 l 1,17,-1
 150 913 l 1,18,-1
 155 921 l 1,19,-1
 311 1030 l 1,20,-1
 500 921 l 1,21,-1
 500 1139 l 1,22,-1
 672 1220 l 1,23,-1
 682 1220 l 1,0,-1
EndSplineSet
Validated: 3073
EndChar

StartChar: fraction
Encoding: 8260 8260 169
Width: 974
GlyphClass: 2
Flags: W
DStem2: 10 -72 161 -140 0.422626 0.906304<2.18787 1899.6>
LayerCount: 2
Fore
SplineSet
151 -140 m 1,0,-1
 10 -72 l 1,1,-1
 812 1650 l 1,2,-1
 822 1650 l 1,3,-1
 964 1582 l 1,4,-1
 161 -140 l 1,5,-1
 151 -140 l 1,0,-1
EndSplineSet
Validated: 3073
EndChar

StartChar: Euro
Encoding: 8364 8364 170
Width: 1582
GlyphClass: 2
Flags: W
HStem: -20 180<711.842 1042.16> 507 182<231 372 572 983> 828 182<231 372 572 983> 1350 180<711.842 1041.02>
VStem: 372 200<305.246 507 689 828 1010 1204.75> 1182 200<300.796 460 1050 1207.64>
LayerCount: 2
Fore
SplineSet
1382 550 m 1,0,-1
 1382 480 l 2,1,2
 1382 263 1382 263 1247 125 c 0,3,4
 1105 -20 1105 -20 877 -20 c 128,-1,5
 649 -20 649 -20 507 125 c 0,6,7
 372 263 372 263 372 480 c 2,8,-1
 372 507 l 1,9,-1
 150 507 l 1,10,-1
 150 517 l 1,11,-1
 231 689 l 1,12,-1
 372 689 l 1,13,-1
 372 828 l 1,14,-1
 150 828 l 1,15,-1
 150 838 l 1,16,-1
 231 1010 l 1,17,-1
 372 1010 l 1,18,-1
 372 1030 l 2,19,20
 372 1247 372 1247 507 1385 c 0,21,22
 649 1530 649 1530 877 1530 c 0,23,24
 1113 1530 1113 1530 1247.5 1385 c 128,-1,25
 1382 1240 1382 1240 1382 1050 c 1,26,-1
 1192 960 l 1,27,-1
 1182 960 l 1,28,-1
 1182 1030 l 2,29,30
 1182 1164 1182 1164 1110 1247 c 0,31,32
 1021 1350 1021 1350 877 1350 c 128,-1,33
 733 1350 733 1350 644 1247 c 0,34,35
 572 1164 572 1164 572 1030 c 2,36,-1
 572 1010 l 1,37,-1
 1064 1010 l 1,38,-1
 1064 1000 l 1,39,-1
 983 828 l 1,40,-1
 572 828 l 1,41,-1
 572 689 l 1,42,-1
 1064 689 l 1,43,-1
 1064 679 l 1,44,-1
 983 507 l 1,45,-1
 572 507 l 1,46,-1
 572 480 l 2,47,48
 572 346 572 346 644 263 c 0,49,50
 733 160 733 160 877 160 c 128,-1,51
 1021 160 1021 160 1110 263 c 0,52,53
 1182 346 1182 346 1182 460 c 1,54,-1
 1372 550 l 1,55,-1
 1382 550 l 1,0,-1
EndSplineSet
Validated: 1
EndChar

StartChar: afii61248
Encoding: 8453 8453 171
Width: 1642
GlyphClass: 2
Flags: W
HStem: -40 21G<496.529 557.317> -20 152<1131.2 1312.8> 670 152<329.202 524.978> 698 142<1131.67 1312.36> 1388 142<329.715 524.19> 1530 20G<1096.68 1157.47>
VStem: 150 150<865.976 1344.05> 554 150<866.069 973 1237 1343.96> 952 150<175.976 653.993> 1342 150<175.976 653.931>
DStem2: 397 28 548 -40 0.422266 0.906472<2.12205 1679.04>
LayerCount: 2
Fore
SplineSet
1222 -20 m 128,-1,1
 1099 -20 1099 -20 1025 58 c 0,2,3
 952 135 952 135 952 268 c 2,4,-1
 952 551 l 2,5,6
 952 684 952 684 1025 761 c 0,7,8
 1101 840 1101 840 1222 840 c 128,-1,9
 1343 840 1343 840 1419 761 c 0,10,11
 1492 684 1492 684 1492 551 c 2,12,-1
 1492 268 l 2,13,14
 1492 135 1492 135 1419 58 c 0,15,0
 1345 -20 1345 -20 1222 -20 c 128,-1,1
1221 132 m 0,16,17
 1273 132 1273 132 1313 175 c 0,18,19
 1342 206 1342 206 1342 268 c 2,20,-1
 1342 562 l 2,21,22
 1342 621 1342 621 1313 655 c 0,23,24
 1276 698 1276 698 1222 698 c 0,25,26
 1170 698 1170 698 1131 655 c 0,27,28
 1102 623 1102 623 1102 562 c 2,29,-1
 1102 268 l 2,30,31
 1102 206 1102 206 1131 175 c 0,32,33
 1171 132 1171 132 1221 132 c 0,16,17
704 1028 m 1,34,-1
 704 962 l 2,35,36
 704 831 704 831 630 752 c 0,37,38
 554 670 554 670 420 670 c 0,39,40
 297 670 297 670 223 748 c 0,41,42
 150 825 150 825 150 958 c 2,43,-1
 150 1241 l 2,44,45
 150 1374 150 1374 223 1451 c 0,46,47
 299 1530 299 1530 420 1530 c 0,48,49
 544 1530 544 1530 630 1447 c 0,50,51
 704 1373 704 1373 704 1237 c 1,52,-1
 590 1182 l 1,53,-1
 554 1182 l 1,54,-1
 554 1252 l 2,55,56
 554 1312 554 1312 525 1345 c 0,57,58
 487 1388 487 1388 428 1388 c 0,59,60
 371 1388 371 1388 329 1345 c 0,61,62
 300 1315 300 1315 300 1252 c 2,63,-1
 300 958 l 2,64,65
 300 896 300 896 329 865 c 0,66,67
 369 822 369 822 428 822 c 128,-1,68
 487 822 487 822 525 865 c 0,69,70
 554 899 554 899 554 958 c 2,71,-1
 554 973 l 1,72,-1
 669 1028 l 1,73,-1
 704 1028 l 1,34,-1
538 -40 m 1,74,-1
 397 28 l 1,75,-1
 1106 1550 l 1,76,-1
 1116 1550 l 1,77,-1
 1257 1482 l 1,78,-1
 548 -40 l 1,79,-1
 538 -40 l 1,74,-1
EndSplineSet
Validated: 1
EndChar

StartChar: afii61289
Encoding: 8467 8467 172
Width: 1108
GlyphClass: 2
Flags: W
HStem: -20 136<558.838 669.961> 0 21G<150 363.84> 1511 20G<711 795.5>
VStem: 332 208<672 805.805> 729 179<1092.03 1387.01>
LayerCount: 2
Fore
SplineSet
540 672 m 1,0,1
 600 796 600 796 656 982 c 0,2,3
 729 1224 729 1224 729 1389 c 1,4,5
 677 1305 677 1305 614 1098 c 0,6,7
 540 857 540 857 540 672 c 1,0,1
150 0 m 1,8,9
 250 146 250 146 340 296 c 1,10,11
 332 366 332 366 332 444 c 0,12,13
 332 592 332 592 361 733 c 0,14,15
 481 1333 481 1333 576 1443 c 0,16,17
 652 1531 652 1531 770 1531 c 0,18,19
 821 1531 821 1531 860 1498 c 1,20,21
 908 1459 908 1459 908 1338 c 0,22,23
 908 1246 908 1246 878 1092 c 0,24,25
 808 742 808 742 522 272 c 1,26,27
 555 116 555 116 611 116 c 0,28,29
 630 116 630 116 653 140 c 0,30,31
 684 172 684 172 716 228 c 1,32,-1
 892 228 l 1,33,34
 815 100 815 100 750.5 40 c 128,-1,35
 686 -20 686 -20 602 -20 c 0,36,37
 474 -20 474 -20 403 81 c 1,38,-1
 351 0 l 1,39,-1
 150 0 l 1,8,9
EndSplineSet
Validated: 3073
EndChar

StartChar: trademark
Encoding: 8482 8482 173
Width: 1840
GlyphClass: 2
Flags: W
HStem: 1369 141<200 364 514 678 886.48 1073.11 1277.16 1463.55>
VStem: 364 150<739 1369> 710 150<738 1333.99> 1100 150<737 1332.99> 1490 150<738 1332.93>
LayerCount: 2
Fore
SplineSet
364 685 m 1,0,-1
 364 1369 l 1,1,-1
 150 1369 l 1,2,-1
 150 1405 l 1,3,-1
 200 1510 l 1,4,-1
 728 1510 l 1,5,-1
 728 1474 l 1,6,-1
 678 1369 l 1,7,-1
 514 1369 l 1,8,-1
 514 739 l 1,9,-1
 400 685 l 1,10,-1
 364 685 l 1,0,-1
710 686 m 1,11,-1
 710 1231 l 2,12,13
 710 1364 710 1364 783 1441 c 0,14,15
 859 1520 859 1520 980 1520 c 0,16,17
 1100 1520 1100 1520 1175 1443 c 1,18,19
 1251 1519 1251 1519 1370 1519 c 0,20,21
 1491 1519 1491 1519 1567 1440 c 0,22,23
 1640 1363 1640 1363 1640 1230 c 2,24,-1
 1640 738 l 1,25,-1
 1525 684 l 1,26,-1
 1490 684 l 1,27,-1
 1490 1241 l 2,28,29
 1490 1300 1490 1300 1461 1334 c 0,30,31
 1424 1377 1424 1377 1370 1377 c 0,32,33
 1318 1377 1318 1377 1279 1334 c 0,34,35
 1250 1302 1250 1302 1250 1241 c 2,36,-1
 1250 739 l 1,37,-1
 1250 737 l 1,38,-1
 1134 684 l 1,39,-1
 1100 685 l 1,40,-1
 1100 1242 l 2,41,42
 1100 1301 1100 1301 1071 1335 c 0,43,44
 1034 1378 1034 1378 980 1378 c 0,45,46
 928 1378 928 1378 889 1335 c 0,47,48
 860 1303 860 1303 860 1242 c 2,49,-1
 860 738 l 1,50,-1
 744 685 l 1,51,-1
 710 686 l 1,11,-1
EndSplineSet
Validated: 1
EndChar

StartChar: uni2126
Encoding: 8486 8486 174
Width: 1410
GlyphClass: 2
Flags: W
HStem: 0 182<231 446 964 1179> 1350 180<539.842 868.968>
VStem: 200 200<495.728 1205.25> 446 162<182 270.781> 802 162<182 269.612> 1010 200<497.293 1206.72>
LayerCount: 2
Fore
SplineSet
150 0 m 1,0,-1
 150 10 l 1,1,-1
 231 182 l 1,2,-1
 446 182 l 1,3,-1
 446 248 l 1,4,5
 384 275 384 275 335 320 c 0,6,7
 200 448 200 448 200 675 c 2,8,-1
 200 1030 l 2,9,10
 200 1248 200 1248 335 1385 c 0,11,12
 477 1530 477 1530 705 1530 c 0,13,14
 928 1530 928 1530 1075 1385 c 0,15,16
 1210 1251 1210 1251 1210 1030 c 2,17,-1
 1210 675 l 2,18,19
 1210 452 1210 452 1075 320 c 0,20,21
 1032 278 1032 278 964 247 c 1,22,-1
 964 182 l 1,23,-1
 1260 182 l 1,24,-1
 1260 172 l 1,25,-1
 1179 0 l 1,26,-1
 802 0 l 1,27,-1
 802 368 l 1,28,29
 881 392 881 392 938 458 c 0,30,31
 1010 541 1010 541 1010 675 c 2,32,-1
 1010 1030 l 2,33,34
 1010 1164 1010 1164 938 1247 c 0,35,36
 849 1350 849 1350 705 1350 c 128,-1,37
 561 1350 561 1350 472 1247 c 0,38,39
 400 1164 400 1164 400 1030 c 2,40,-1
 400 675 l 2,41,42
 400 538 400 538 472 458 c 0,43,44
 534 389 534 389 608 367 c 1,45,-1
 608 0 l 1,46,-1
 150 0 l 1,0,-1
EndSplineSet
Validated: 1
EndChar

StartChar: estimated
Encoding: 8494 8494 175
Width: 1358
GlyphClass: 2
Flags: W
HStem: -15 73<501.557 855.461> 550 74<381 977> 1042 73<502.165 850.247>
VStem: 150 231<307.452 550 624 793.838> 977 231<624 789.607>
LayerCount: 2
Fore
SplineSet
381 550 m 1,0,-1
 381 179 l 1,1,2
 501 58 501 58 679 58 c 0,3,4
 933 58 933 58 1074 304 c 1,5,-1
 1146 261 l 1,6,7
 1026 88 1026 88 914 36.5 c 128,-1,8
 802 -15 802 -15 679 -15 c 0,9,10
 442 -15 442 -15 296 145 c 128,-1,11
 150 305 150 305 150 550 c 0,12,13
 150 797 150 797 297 956 c 128,-1,14
 444 1115 444 1115 679 1115 c 0,15,16
 893 1115 893 1115 1045 973 c 128,-1,17
 1197 831 1197 831 1208 550 c 1,18,-1
 381 550 l 1,0,-1
977 624 m 1,19,-1
 977 921 l 1,20,21
 849 1042 849 1042 677 1042 c 0,22,23
 502 1042 502 1042 381 920 c 1,24,-1
 381 624 l 1,25,-1
 977 624 l 1,19,-1
EndSplineSet
Validated: 3073
EndChar

StartChar: partialdiff
Encoding: 8706 8706 176
Width: 1267
GlyphClass: 2
Flags: W
HStem: 0 92<400 587.576> 883 84<654.972 885.467> 1427 83<623.242 789.693>
VStem: 150 212<147.417 518.018> 888 179<603.29 878.484 965 1264.05>
LayerCount: 2
Fore
SplineSet
458 0 m 0,0,1
 321 0 321 0 235.5 91 c 128,-1,2
 150 182 150 182 150 347 c 0,3,4
 150 556 150 556 303 734 c 0,5,6
 503 967 503 967 781 967 c 24,7,8
 816 967 816 967 886 965 c 1,9,10
 886 1113 886 1113 869 1201 c 0,11,12
 847 1313 847 1313 805 1369 c 0,13,14
 761 1427 761 1427 711 1427 c 0,15,16
 644 1427 644 1427 593 1347 c 0,17,18
 555 1287 555 1287 519 1157 c 1,19,-1
 384 1217 l 1,20,21
 453 1371 453 1371 552 1442 c 0,22,23
 647 1510 647 1510 744 1510 c 0,24,25
 876 1510 876 1510 971 1371 c 0,26,27
 1067 1231 1067 1231 1067 951 c 0,28,29
 1067 670 1067 670 980 438 c 0,30,31
 894 214 894 214 747 107 c 128,-1,32
 600 0 600 0 458 0 c 0,0,1
488 92 m 0,33,34
 562 92 562 92 636 189 c 0,35,36
 697 268 697 268 766 393 c 0,37,38
 856 555 856 555 888 867 c 1,39,40
 848 883 848 883 774 883 c 0,41,42
 667 883 667 883 557 755 c 0,43,44
 485 672 485 672 436 581 c 0,45,46
 362 444 362 444 362 333 c 0,47,48
 362 233 362 233 381 175 c 0,49,50
 409 92 409 92 488 92 c 0,33,34
EndSplineSet
Validated: 3073
EndChar

StartChar: uni2206
Encoding: 8710 8710 177
Width: 1191
GlyphClass: 2
Flags: W
HStem: 0 182<275 916> 1530 20G<623.805 682.581>
DStem2: 5 0 275 182 0.315452 0.948942<257.879 1340.03>
LayerCount: 2
Fore
SplineSet
5 0 m 1,0,-1
 493 1468 l 1,1,-1
 666 1550 l 1,2,-1
 676 1550 l 1,3,-1
 1186 0 l 1,4,-1
 5 0 l 1,0,-1
275 182 m 1,5,-1
 916 182 l 1,6,-1
 598 1215 l 1,7,-1
 275 182 l 1,5,-1
EndSplineSet
Validated: 1
EndChar

StartChar: product
Encoding: 8719 8719 178
Width: 1390
GlyphClass: 2
Flags: W
HStem: -450 21G<200 252.222 990 1042.22> 1328 182<400 990>
VStem: 200 200<-360 1328> 990 200<-360 1328>
LayerCount: 2
Fore
SplineSet
210 -450 m 1,0,-1
 200 -450 l 1,1,-1
 200 1460 l 1,2,-1
 306 1510 l 1,3,-1
 1190 1510 l 1,4,-1
 1190 -360 l 1,5,-1
 1000 -450 l 1,6,-1
 990 -450 l 1,7,-1
 990 1328 l 1,8,-1
 400 1328 l 1,9,-1
 400 -360 l 1,10,-1
 210 -450 l 1,0,-1
EndSplineSet
Validated: 3073
EndChar

StartChar: summation
Encoding: 8721 8721 179
Width: 1203
GlyphClass: 2
Flags: W
HStem: -410 182<388 972> 1328 182<384 881>
DStem2: 384 1328 101 1460 0.480758 -0.876854<0 740.385>
LayerCount: 2
Fore
SplineSet
100 -410 m 1,0,-1
 578 590 l 1,1,-1
 101 1460 l 1,2,-1
 207 1510 l 1,3,-1
 962 1510 l 1,4,-1
 962 1500 l 1,5,-1
 881 1328 l 1,6,-1
 384 1328 l 1,7,-1
 804 588 l 1,8,-1
 388 -228 l 1,9,-1
 1053 -228 l 1,10,-1
 1053 -238 l 1,11,-1
 972 -410 l 1,12,-1
 100 -410 l 1,0,-1
EndSplineSet
Validated: 1
EndChar

StartChar: minus
Encoding: 8722 8722 180
Width: 1214
GlyphClass: 2
Flags: W
HStem: 664 182<231 983>
LayerCount: 2
Fore
SplineSet
150 664 m 1,0,-1
 150 674 l 1,1,-1
 231 846 l 1,2,-1
 1064 846 l 1,3,-1
 1064 836 l 1,4,-1
 983 664 l 1,5,-1
 150 664 l 1,0,-1
EndSplineSet
Validated: 3073
EndChar

StartChar: uni2215
Encoding: 8725 8725 181
Width: 974
GlyphClass: 2
Flags: W
DStem2: 10 -72 161 -140 0.422626 0.906304<2.18787 1899.6>
LayerCount: 2
Fore
SplineSet
151 -140 m 1,0,-1
 10 -72 l 1,1,-1
 812 1650 l 1,2,-1
 822 1650 l 1,3,-1
 964 1582 l 1,4,-1
 161 -140 l 1,5,-1
 151 -140 l 1,0,-1
EndSplineSet
Validated: 3073
EndChar

StartChar: asteriskmath
Encoding: 8727 8727 182
Width: 1183
GlyphClass: 2
Flags: W
VStem: 500 182<387 605 921 1139>
DStem2: 311 1030 150 913 0.865946 -0.500138<0 218.179 533.824 752.003> 150 613 311 496 0.865946 0.500138<80.9012 299.08 614.726 832.904>
LayerCount: 2
Fore
SplineSet
682 1220 m 1,0,-1
 682 921 l 1,1,-1
 871 1030 l 1,2,-1
 1028 921 l 1,3,-1
 1033 913 l 1,4,-1
 773 763 l 1,5,-1
 1033 613 l 1,6,-1
 1028 605 l 1,7,-1
 871 496 l 1,8,-1
 682 605 l 1,9,-1
 682 387 l 1,10,-1
 510 306 l 1,11,-1
 500 306 l 1,12,-1
 500 605 l 1,13,-1
 311 496 l 1,14,-1
 155 605 l 1,15,-1
 150 613 l 1,16,-1
 409 763 l 1,17,-1
 150 913 l 1,18,-1
 155 921 l 1,19,-1
 311 1030 l 1,20,-1
 500 921 l 1,21,-1
 500 1139 l 1,22,-1
 672 1220 l 1,23,-1
 682 1220 l 1,0,-1
EndSplineSet
Validated: 3073
EndChar

StartChar: uni2218
Encoding: 8728 8728 183
Width: 1130
GlyphClass: 2
Flags: W
HStem: 354 178<424.306 706.186> 976 178<423.814 705.694>
VStem: 150 200<603.483 904.017> 780 200<603.983 904.517>
LayerCount: 2
Fore
SplineSet
150 754 m 0,0,1
 150 919 150 919 274 1041 c 0,2,3
 390 1154 390 1154 565 1154 c 0,4,5
 738 1154 738 1154 856 1041 c 0,6,7
 980 921 980 921 980 754 c 0,8,9
 980 589 980 589 856 467 c 0,10,11
 740 354 740 354 565 354 c 0,12,13
 392 354 392 354 274 467 c 0,14,15
 150 587 150 587 150 754 c 0,0,1
780 754 m 128,-1,17
 780 869 780 869 717.5 922.5 c 128,-1,18
 655 976 655 976 565 976 c 128,-1,19
 475 976 475 976 412.5 922.5 c 128,-1,20
 350 869 350 869 350 754 c 128,-1,21
 350 639 350 639 412.5 585.5 c 128,-1,22
 475 532 475 532 565 532 c 128,-1,23
 655 532 655 532 717.5 585.5 c 128,-1,16
 780 639 780 639 780 754 c 128,-1,17
EndSplineSet
Validated: 1
EndChar

StartChar: uni2219
Encoding: 8729 8729 184
Width: 600
GlyphClass: 2
Flags: W
HStem: 631 245<216.097 383.903>
VStem: 180 240<668.129 838.871>
LayerCount: 2
Fore
SplineSet
180 753.5 m 132,-1,1
 180 804 180 804 215 840 c 132,-1,2
 250 876 250 876 300 876 c 132,-1,3
 350 876 350 876 385 840 c 132,-1,4
 420 804 420 804 420 753.5 c 132,-1,5
 420 703 420 703 385 667 c 132,-1,6
 350 631 350 631 300 631 c 132,-1,7
 250 631 250 631 215 667 c 132,-1,0
 180 703 180 703 180 753.5 c 132,-1,1
EndSplineSet
Validated: 1
EndChar

StartChar: radical
Encoding: 8730 8730 185
Width: 1452
GlyphClass: 2
Flags: W
HStem: -40 21G<508.235 567.195> 569 182<181 309> 1328 182<1178 1321>
DStem2: 458 751 309 569 0.320424 -0.947274<124.661 501.794> 605 271 698 42 0.349686 0.936867<0 1190.64>
LayerCount: 2
Fore
SplineSet
525 -40 m 1,0,-1
 515 -40 l 1,1,-1
 309 569 l 1,2,-1
 100 569 l 1,3,-1
 100 579 l 1,4,-1
 181 751 l 1,5,-1
 458 751 l 1,6,-1
 605 271 l 1,7,-1
 1057 1510 l 1,8,-1
 1402 1510 l 1,9,-1
 1402 1500 l 1,10,-1
 1321 1328 l 1,11,-1
 1178 1328 l 1,12,-1
 698 42 l 1,13,-1
 525 -40 l 1,0,-1
EndSplineSet
Validated: 1
EndChar

StartChar: uni221B
Encoding: 8731 8731 186
Width: 1452
GlyphClass: 2
Flags: W
HStem: -40 21G<508.235 567.195> 569 182<181 309> 790 126<435.704 614.185> 1328 182<1178 1321> 1383 127<360 537>
VStem: 275 135<956.005 1042> 640 134<947.899 1119.07>
DStem2: 458 751 309 569 0.320424 -0.947274<124.661 501.794> 605 271 698 42 0.349686 0.936867<0 1190.64>
LayerCount: 2
Fore
SplineSet
525 -40 m 1,0,-1
 515 -40 l 1,1,-1
 309 569 l 1,2,-1
 100 569 l 1,3,-1
 100 579 l 1,4,-1
 181 751 l 1,5,-1
 458 751 l 1,6,-1
 605 271 l 1,7,-1
 1057 1510 l 1,8,-1
 1402 1510 l 1,9,-1
 1402 1500 l 1,10,-1
 1321 1328 l 1,11,-1
 1178 1328 l 1,12,-1
 698 42 l 1,13,-1
 525 -40 l 1,0,-1
275 1042 m 1,14,-1
 382 1100 l 1,15,-1
 410 1100 l 1,16,-1
 410 1038 l 2,17,18
 410 987 410 987 437 955 c 0,19,20
 470 916 470 916 526 916 c 0,21,22
 579 916 579 916 613 955 c 0,23,24
 640 986 640 986 640 1041 c 0,25,26
 640 1086 640 1086 619 1111 c 0,27,28
 590 1145 590 1145 522 1146 c 0,29,-1
 409 1146 l 1,30,-1
 537 1383 l 1,31,-1
 315 1383 l 1,32,-1
 315 1416 l 1,33,-1
 360 1510 l 1,34,-1
 755 1510 l 1,35,-1
 588 1252 l 1,36,37
 657 1245 657 1245 706 1202 c 0,38,39
 774 1141 774 1141 774 1038 c 0,40,41
 774 926 774 926 707 858 c 128,-1,42
 640 790 640 790 525 790 c 129,-1,43
 410 790 410 790 342 859 c 0,44,45
 275 927 275 927 275 1042 c 1,14,-1
EndSplineSet
Validated: 1
EndChar

StartChar: infinity
Encoding: 8734 8734 187
Width: 1761
GlyphClass: 2
Flags: W
HStem: 354 178<424.306 704.579 1056.42 1337.19> 976 178<423.814 704.579 1056.42 1336.69>
VStem: 150 200<603.483 904.017> 780 201<603.72 904.28> 1411 200<603.733 904.517>
CounterMasks: 1 38
LayerCount: 2
Fore
SplineSet
780 754 m 128,-1,1
 780 869 780 869 717.5 922.5 c 128,-1,2
 655 976 655 976 565 976 c 128,-1,3
 475 976 475 976 412.5 922.5 c 128,-1,4
 350 869 350 869 350 754 c 128,-1,5
 350 639 350 639 412.5 585.5 c 128,-1,6
 475 532 475 532 565 532 c 128,-1,7
 655 532 655 532 717.5 585.5 c 128,-1,0
 780 639 780 639 780 754 c 128,-1,1
150 754 m 0,8,9
 150 919 150 919 274 1041 c 0,10,11
 390 1154 390 1154 565 1154 c 0,12,13
 743 1154 743 1154 856 1041 c 0,14,15
 869 1028 869 1028 881 1015 c 1,16,17
 892 1028 892 1028 905 1041 c 0,18,19
 1018 1154 1018 1154 1196 1154 c 0,20,21
 1369 1154 1369 1154 1487 1041 c 0,22,23
 1611 921 1611 921 1611 754 c 0,24,25
 1611 588 1611 588 1487 467 c 0,26,27
 1371 354 1371 354 1196 354 c 0,28,29
 1018 354 1018 354 905 467 c 0,30,31
 893 479 893 479 880 493 c 1,32,33
 869 480 869 480 856 467 c 0,34,35
 743 354 743 354 565 354 c 0,36,37
 392 354 392 354 274 467 c 0,38,39
 150 587 150 587 150 754 c 0,8,9
1411 754 m 128,-1,41
 1411 869 1411 869 1348.5 922.5 c 128,-1,42
 1286 976 1286 976 1196 976 c 128,-1,43
 1106 976 1106 976 1043.5 922.5 c 128,-1,44
 981 869 981 869 981 754 c 128,-1,45
 981 639 981 639 1043.5 585.5 c 128,-1,46
 1106 532 1106 532 1196 532 c 128,-1,47
 1286 532 1286 532 1348.5 585.5 c 128,-1,40
 1411 639 1411 639 1411 754 c 128,-1,41
EndSplineSet
Validated: 1
EndChar

StartChar: approxequal
Encoding: 8776 8776 188
Width: 1138
GlyphClass: 2
Flags: W
HStem: 397 177<648.531 800.75> 581 177<337.25 489.469> 748 177<648.531 800.75> 932 177<337.25 489.469>
VStem: 150 178<478 571.507 829 922.507> 810 178<583.493 677 934.493 1028>
LayerCount: 2
Fore
SplineSet
150 397 m 1,0,1
 150 758 150 758 387 758 c 0,2,3
 521 758 521 758 610 657 c 0,4,5
 683 574 683 574 738 574 c 0,6,7
 810 574 810 574 810 677 c 1,8,-1
 978 758 l 1,9,-1
 988 758 l 1,10,11
 988 397 988 397 751 397 c 0,12,13
 617 397 617 397 528 498 c 0,14,15
 455 581 455 581 400 581 c 0,16,17
 328 581 328 581 328 478 c 1,18,-1
 160 397 l 1,19,-1
 150 397 l 1,0,1
150 748 m 1,20,21
 150 1109 150 1109 387 1109 c 0,22,23
 521 1109 521 1109 610 1008 c 0,24,25
 683 925 683 925 738 925 c 0,26,27
 810 925 810 925 810 1028 c 1,28,-1
 978 1109 l 1,29,-1
 988 1109 l 1,30,31
 988 748 988 748 751 748 c 0,32,33
 617 748 617 748 528 849 c 0,34,35
 455 932 455 932 400 932 c 0,36,37
 328 932 328 932 328 829 c 1,38,-1
 160 748 l 1,39,-1
 150 748 l 1,20,21
EndSplineSet
Validated: 1
EndChar

StartChar: notequal
Encoding: 8800 8800 189
Width: 1214
GlyphClass: 2
Flags: W
HStem: 482 182<231 389 656 983> 846 182<231 558 825 983>
DStem2: 289 268 440 200 0.42198 0.906605<2.06988 236.212 513.882 637.53 915.201 1149.34>
LayerCount: 2
Fore
SplineSet
430 200 m 1,0,-1
 289 268 l 1,1,-1
 389 482 l 1,2,-1
 150 482 l 1,3,-1
 150 492 l 1,4,-1
 231 664 l 1,5,-1
 473 664 l 1,6,-1
 558 846 l 1,7,-1
 150 846 l 1,8,-1
 150 856 l 1,9,-1
 231 1028 l 1,10,-1
 643 1028 l 1,11,-1
 774 1310 l 1,12,-1
 784 1310 l 1,13,-1
 925 1242 l 1,14,-1
 825 1028 l 1,15,-1
 1064 1028 l 1,16,-1
 1064 1018 l 1,17,-1
 983 846 l 1,18,-1
 741 846 l 1,19,-1
 656 664 l 1,20,-1
 1064 664 l 1,21,-1
 1064 654 l 1,22,-1
 983 482 l 1,23,-1
 571 482 l 1,24,-1
 440 200 l 1,25,-1
 430 200 l 1,0,-1
EndSplineSet
Validated: 3073
EndChar

StartChar: equivalence
Encoding: 8801 8801 190
Width: 1214
GlyphClass: 2
Flags: W
HStem: 300 182<231 983> 664 182<231 983> 1028 182<231 983>
CounterMasks: 1 e0
LayerCount: 2
Fore
SplineSet
150 300 m 1,0,-1
 150 310 l 1,1,-1
 231 482 l 1,2,-1
 1064 482 l 1,3,-1
 1064 472 l 1,4,-1
 983 300 l 1,5,-1
 150 300 l 1,0,-1
150 1028 m 1,6,-1
 150 1038 l 1,7,-1
 231 1210 l 1,8,-1
 1064 1210 l 1,9,-1
 1064 1200 l 1,10,-1
 983 1028 l 1,11,-1
 150 1028 l 1,6,-1
150 664 m 1,12,-1
 150 674 l 1,13,-1
 231 846 l 1,14,-1
 1064 846 l 1,15,-1
 1064 836 l 1,16,-1
 983 664 l 1,17,-1
 150 664 l 1,12,-1
EndSplineSet
Validated: 3073
EndChar

StartChar: lessequal
Encoding: 8804 8804 191
Width: 1338
GlyphClass: 2
Flags: W
HStem: 191 182<231 1057>
DStem2: 464 875 150 801 0.919983 -0.391958<0 724.931> 232 984 464 875 0.920009 0.391897<170.725 895.643>
LayerCount: 2
Fore
SplineSet
150 801 m 1,0,-1
 150 811 l 1,1,-1
 232 984 l 1,2,-1
 1056 1335 l 1,3,-1
 1138 1162 l 1,4,-1
 1138 1152 l 1,5,-1
 464 875 l 1,6,-1
 1138 598 l 1,7,-1
 1138 588 l 1,8,-1
 1056 415 l 1,9,-1
 150 801 l 1,0,-1
150 191 m 1,10,-1
 150 201 l 1,11,-1
 231 373 l 1,12,-1
 1138 373 l 1,13,-1
 1138 363 l 1,14,-1
 1057 191 l 1,15,-1
 150 191 l 1,10,-1
EndSplineSet
Validated: 1
EndChar

StartChar: greaterequal
Encoding: 8805 8805 192
Width: 1338
GlyphClass: 2
Flags: W
HStem: 191 182<281 1107>
DStem2: 282 1352 200 1169 0.919983 -0.391958<0 724.931> 200 615 282 432 0.920009 0.391897<3.72358 728.642>
LayerCount: 2
Fore
SplineSet
1188 966 m 1,0,-1
 1188 956 l 1,1,-1
 1106 783 l 1,2,-1
 282 432 l 1,3,-1
 200 605 l 1,4,-1
 200 615 l 1,5,-1
 874 892 l 1,6,-1
 200 1169 l 1,7,-1
 200 1179 l 1,8,-1
 282 1352 l 1,9,-1
 1188 966 l 1,0,-1
200 191 m 1,10,-1
 200 201 l 1,11,-1
 281 373 l 1,12,-1
 1188 373 l 1,13,-1
 1188 363 l 1,14,-1
 1107 191 l 1,15,-1
 200 191 l 1,10,-1
EndSplineSet
Validated: 1
EndChar

StartChar: lozenge
Encoding: 9674 9674 193
Width: 1174
GlyphClass: 2
Flags: W
HStem: 0 21G<574.344 599.605>
DStem2: 601 287 587 0 0.533177 0.846004<0 503.311>
LayerCount: 2
Fore
SplineSet
601 287 m 1,0,-1
 850 725 l 1,1,-1
 579 1200 l 1,2,-1
 328 754 l 1,3,-1
 601 287 l 1,0,-1
587 0 m 1,4,-1
 120 738 l 1,5,-1
 587 1510 l 1,6,-1
 1054 741 l 1,7,-1
 587 0 l 1,4,-1
EndSplineSet
Validated: 1
EndChar

StartChar: Oslash
Encoding: 216 216 194
Width: 1410
Flags: W
HStem: -40 21G<352.4 413.157> -20 180<539.951 870.158> 1350 180<539.842 870.049> 1530 20G<996.843 1056.78>
VStem: 200 200<324.703 1204.75> 1010 200<305.246 1187.87>
DStem2: 290 10 404 -40 0.421596 0.906784<2.72271 94.0064 341.813 1359.22 1607.03 1698.31>
LayerCount: 2
Fore
SplineSet
404 -40 m 1,0,-1
 394 -40 l 1,1,-1
 290 10 l 1,2,-1
 341 119 l 1,3,4
 200 257 200 257 200 480 c 2,5,-1
 200 1030 l 2,6,7
 200 1247 200 1247 335 1385 c 0,8,9
 477 1530 477 1530 705 1530 c 0,10,11
 855 1530 855 1530 968 1467 c 1,12,-1
 1006 1550 l 1,13,-1
 1016 1550 l 1,14,-1
 1120 1499 l 1,15,-1
 1070 1390 l 1,16,17
 1210 1248 1210 1248 1210 1030 c 2,18,-1
 1210 480 l 2,19,20
 1210 263 1210 263 1075 125 c 0,21,22
 933 -20 933 -20 705 -20 c 0,23,24
 555 -20 555 -20 442 43 c 1,25,-1
 404 -40 l 1,0,-1
887 1294 m 1,26,27
 811 1350 811 1350 705 1350 c 0,28,29
 561 1350 561 1350 472 1247 c 0,30,31
 400 1164 400 1164 400 1030 c 2,32,-1
 400 480 l 2,33,34
 400 388 400 388 434 320 c 1,35,-1
 887 1294 l 1,26,27
976 1190 m 1,36,-1
 523 216 l 1,37,38
 599 160 599 160 705 160 c 0,39,40
 849 160 849 160 938 263 c 0,41,42
 1010 346 1010 346 1010 480 c 2,43,-1
 1010 1030 l 2,44,45
 1010 1122 1010 1122 976 1190 c 1,36,-1
EndSplineSet
Validated: 1
EndChar

StartChar: oslash
Encoding: 248 248 195
Width: 1130
Flags: W
HStem: -40 21G<307.4 368.123> -20 178<462.287 706.186> 942 178<423.814 666.832> 1120 20G<760.714 821.176>
VStem: 150 200<277.051 869.755> 780 200<230.245 820.371>
DStem2: 245 10 359 -40 0.421347 0.906899<2.68859 68.195 292.154 956.959 1181.03 1246>
LayerCount: 2
Fore
SplineSet
359 -40 m 1,0,-1
 349 -40 l 1,1,-1
 245 10 l 1,2,-1
 281 87 l 1,3,4
 150 207 150 207 150 380 c 2,5,-1
 150 720 l 2,6,7
 150 885 150 885 274 1007 c 0,8,9
 390 1120 390 1120 565 1120 c 0,10,11
 663 1120 663 1120 744 1084 c 1,12,-1
 770 1140 l 1,13,-1
 780 1140 l 1,14,-1
 885 1089 l 1,15,-1
 850 1013 l 1,16,17
 980 887 980 887 980 720 c 2,18,-1
 980 380 l 2,19,20
 980 215 980 215 856 93 c 0,21,22
 740 -20 740 -20 565 -20 c 0,23,24
 466 -20 466 -20 385 17 c 1,25,-1
 359 -40 l 1,0,-1
668 921 m 1,26,27
 622 942 622 942 565 942 c 0,28,29
 475 942 475 942 412.5 888.5 c 128,-1,30
 350 835 350 835 350 720 c 2,31,-1
 350 380 l 2,32,33
 350 318 350 318 368 275 c 1,34,-1
 668 921 l 1,26,27
762 825 m 1,35,-1
 461 180 l 1,36,37
 508 158 508 158 565 158 c 0,38,39
 655 158 655 158 717.5 211.5 c 128,-1,40
 780 265 780 265 780 380 c 2,41,-1
 780 720 l 2,42,43
 780 781 780 781 762 825 c 1,35,-1
EndSplineSet
Validated: 1
EndChar

StartChar: multiply
Encoding: 215 215 196
Width: 1075
Flags: W
HStem: 425 660
VStem: 409 257<626.5 883.5>
DStem2: 336 1085 150 1014 0.707107 -0.707107<0 284.257 466.69 751.654> 150 496 336 425 0.707107 0.707107<81.3173 365.574 548.008 832.972>
LayerCount: 2
Fore
SplineSet
150 1014 m 1,0,-1
 157 1021 l 1,1,-1
 336 1085 l 1,2,-1
 537 884 l 1,3,-1
 739 1085 l 1,4,-1
 918 1021 l 1,5,-1
 925 1014 l 1,6,-1
 666 755 l 1,7,-1
 925 496 l 1,8,-1
 918 489 l 1,9,-1
 739 425 l 1,10,-1
 537 626 l 1,11,-1
 336 425 l 1,12,-1
 157 489 l 1,13,-1
 150 496 l 1,14,-1
 409 755 l 1,15,-1
 150 1014 l 1,0,-1
EndSplineSet
Validated: 3073
EndChar

StartChar: divide
Encoding: 247 247 197
Width: 1214
Flags: W
HStem: 305 245<524.097 691.903> 664 182<231 983> 965 245<524.097 691.903>
VStem: 488 240<342.129 512.871 1002.13 1172.87>
LayerCount: 2
Fore
SplineSet
488 1087.5 m 128,-1,1
 488 1138 488 1138 523 1174 c 128,-1,2
 558 1210 558 1210 608 1210 c 128,-1,3
 658 1210 658 1210 693 1174 c 128,-1,4
 728 1138 728 1138 728 1087.5 c 128,-1,5
 728 1037 728 1037 693 1001 c 128,-1,6
 658 965 658 965 608 965 c 128,-1,7
 558 965 558 965 523 1001 c 128,-1,0
 488 1037 488 1037 488 1087.5 c 128,-1,1
488 427.5 m 128,-1,9
 488 478 488 478 523 514 c 128,-1,10
 558 550 558 550 608 550 c 128,-1,11
 658 550 658 550 693 514 c 128,-1,12
 728 478 728 478 728 427.5 c 128,-1,13
 728 377 728 377 693 341 c 128,-1,14
 658 305 658 305 608 305 c 128,-1,15
 558 305 558 305 523 341 c 128,-1,8
 488 377 488 377 488 427.5 c 128,-1,9
150 664 m 1,16,-1
 150 674 l 1,17,-1
 231 846 l 1,18,-1
 1064 846 l 1,19,-1
 1064 836 l 1,20,-1
 983 664 l 1,21,-1
 150 664 l 1,16,-1
EndSplineSet
Validated: 1
EndChar

StartChar: uni1E02
Encoding: 7682 7682 198
Width: 1370
Flags: W
HStem: 0 180<400 863.001> 746 180<400 820.792> 1330 180<400 826.453> 1680 245<510.097 677.903>
VStem: 200 200<180 746 926 1330> 474 240<1717.13 1887.87> 900 199<1001.89 1256.09> 990 200<301.179 618.401>
LayerCount: 2
Fore
SplineSet
400 180 m 1,0,-1
 685 180 l 2,1,2
 836 180 836 180 925 275 c 0,3,4
 990 344 990 344 990 457 c 0,5,6
 990 574 990 574 921 654 c 0,7,8
 846 746 846 746 685 746 c 2,9,-1
 400 746 l 1,10,-1
 400 180 l 1,0,-1
400 926 m 1,11,-1
 685 926 l 2,12,13
 785 926 785 926 846 991 c 0,14,15
 900 1049 900 1049 900 1142 c 0,16,17
 900 1218 900 1218 835 1279 c 0,18,19
 777 1330 777 1330 685 1330 c 2,20,-1
 400 1330 l 1,21,-1
 400 926 l 1,11,-1
200 0 m 1,22,-1
 200 1460 l 1,23,-1
 306 1510 l 1,24,-1
 685 1510 l 2,25,26
 854 1510 854 1510 966 1418 c 0,27,28
 1099 1310 1099 1310 1099 1141 c 0,29,30
 1099 969 1099 969 947 855 c 1,31,32
 996 834 996 834 1044 792 c 0,33,34
 1190 659 1190 659 1190 462 c 0,35,36
 1190 264 1190 264 1062 137 c 0,37,38
 925 0 925 0 685 0 c 2,39,-1
 200 0 l 1,22,-1
474 1802.5 m 128,-1,41
 474 1853 474 1853 509 1889 c 128,-1,42
 544 1925 544 1925 594 1925 c 128,-1,43
 644 1925 644 1925 679 1889 c 128,-1,44
 714 1853 714 1853 714 1802.5 c 128,-1,45
 714 1752 714 1752 679 1716 c 128,-1,46
 644 1680 644 1680 594 1680 c 128,-1,47
 544 1680 544 1680 509 1716 c 128,-1,40
 474 1752 474 1752 474 1802.5 c 128,-1,41
EndSplineSet
Validated: 1
EndChar

StartChar: uni1E03
Encoding: 7683 7683 199
Width: 1180
Flags: W
HStem: -20 178<474.306 756.186> 942 178<474.899 755.694> 1285 245<595.097 762.903> 1530 20G<347.778 400>
VStem: 200 200<229.72 870.28 1035 1460> 559 240<1322.13 1492.87> 830 200<230.245 870.28>
LayerCount: 2
Fore
SplineSet
200 380 m 2,0,-1
 200 1460 l 1,1,-1
 390 1550 l 1,2,-1
 400 1550 l 1,3,-1
 400 1035 l 1,4,5
 476 1120 476 1120 615 1120 c 0,6,7
 788 1120 788 1120 906 1007 c 0,8,9
 1030 887 1030 887 1030 720 c 2,10,-1
 1030 380 l 2,11,12
 1030 215 1030 215 906 93 c 0,13,14
 790 -20 790 -20 615 -20 c 0,15,16
 442 -20 442 -20 324 93 c 0,17,18
 200 213 200 213 200 380 c 2,0,-1
400 380 m 2,19,20
 400 265 400 265 462.5 211.5 c 128,-1,21
 525 158 525 158 615 158 c 128,-1,22
 705 158 705 158 767.5 211.5 c 128,-1,23
 830 265 830 265 830 380 c 2,24,-1
 830 720 l 2,25,26
 830 835 830 835 767.5 888.5 c 128,-1,27
 705 942 705 942 615 942 c 128,-1,28
 525 942 525 942 462.5 888.5 c 128,-1,29
 400 835 400 835 400 720 c 2,30,-1
 400 380 l 2,19,20
559 1407.5 m 128,-1,32
 559 1458 559 1458 594 1494 c 128,-1,33
 629 1530 629 1530 679 1530 c 128,-1,34
 729 1530 729 1530 764 1494 c 128,-1,35
 799 1458 799 1458 799 1407.5 c 128,-1,36
 799 1357 799 1357 764 1321 c 128,-1,37
 729 1285 729 1285 679 1285 c 128,-1,38
 629 1285 629 1285 594 1321 c 128,-1,31
 559 1357 559 1357 559 1407.5 c 128,-1,32
EndSplineSet
Validated: 1
EndChar

StartChar: uni1E0A
Encoding: 7690 7690 200
Width: 1390
Flags: W
HStem: 0 180<400 850.002> 1330 180<400 850.002> 1680 245<531.097 698.903>
VStem: 200 200<180 1330> 495 240<1717.13 1887.87> 990 200<325.246 1185.25>
LayerCount: 2
Fore
SplineSet
495 1802.5 m 128,-1,1
 495 1853 495 1853 530 1889 c 128,-1,2
 565 1925 565 1925 615 1925 c 128,-1,3
 665 1925 665 1925 700 1889 c 128,-1,4
 735 1853 735 1853 735 1802.5 c 128,-1,5
 735 1752 735 1752 700 1716 c 128,-1,6
 665 1680 665 1680 615 1680 c 128,-1,7
 565 1680 565 1680 530 1716 c 128,-1,0
 495 1752 495 1752 495 1802.5 c 128,-1,1
200 0 m 1,8,-1
 200 1460 l 1,9,-1
 306 1510 l 1,10,-1
 685 1510 l 1,11,12
 913 1510 913 1510 1055 1365 c 0,13,14
 1190 1228 1190 1228 1190 1010 c 2,15,-1
 1190 500 l 2,16,17
 1190 283 1190 283 1055 145 c 0,18,19
 913 0 913 0 685 0 c 1,20,-1
 200 0 l 1,8,-1
400 180 m 1,21,-1
 685 180 l 1,22,23
 829 180 829 180 918 283 c 0,24,25
 990 366 990 366 990 500 c 2,26,-1
 990 1010 l 2,27,28
 990 1144 990 1144 918 1227 c 0,29,30
 829 1330 829 1330 685 1330 c 1,31,-1
 400 1330 l 1,32,-1
 400 180 l 1,21,-1
EndSplineSet
Validated: 19457
EndChar

StartChar: uni1E0B
Encoding: 7691 7691 201
Width: 1180
Flags: W
HStem: -20 178<424.306 706.186> 942 178<423.814 705.008> 1285 245<382.097 549.903> 1530 20G<927.778 980>
VStem: 150 200<229.72 869.755> 346 240<1322.13 1492.87> 780 200<230.245 870.28 1035 1460>
LayerCount: 2
Fore
SplineSet
350 380 m 2,0,1
 350 265 350 265 412.5 211.5 c 128,-1,2
 475 158 475 158 565 158 c 128,-1,3
 655 158 655 158 717.5 211.5 c 128,-1,4
 780 265 780 265 780 380 c 2,5,-1
 780 720 l 2,6,7
 780 835 780 835 717.5 888.5 c 128,-1,8
 655 942 655 942 565 942 c 128,-1,9
 475 942 475 942 412.5 888.5 c 128,-1,10
 350 835 350 835 350 720 c 2,11,-1
 350 380 l 2,0,1
150 380 m 2,12,-1
 150 720 l 2,13,14
 150 885 150 885 274 1007 c 0,15,16
 390 1120 390 1120 565 1120 c 0,17,18
 697 1120 697 1120 780 1035 c 1,19,-1
 780 1460 l 1,20,-1
 970 1550 l 1,21,-1
 980 1550 l 1,22,-1
 980 380 l 2,23,24
 980 215 980 215 856 93 c 0,25,26
 740 -20 740 -20 565 -20 c 0,27,28
 392 -20 392 -20 274 93 c 0,29,30
 150 213 150 213 150 380 c 2,12,-1
346 1407.5 m 128,-1,32
 346 1458 346 1458 381 1494 c 128,-1,33
 416 1530 416 1530 466 1530 c 128,-1,34
 516 1530 516 1530 551 1494 c 128,-1,35
 586 1458 586 1458 586 1407.5 c 128,-1,36
 586 1357 586 1357 551 1321 c 128,-1,37
 516 1285 516 1285 466 1285 c 128,-1,38
 416 1285 416 1285 381 1321 c 128,-1,31
 346 1357 346 1357 346 1407.5 c 128,-1,32
EndSplineSet
Validated: 1
EndChar

StartChar: uni1E1E
Encoding: 7710 7710 202
Width: 1120
Flags: W
HStem: -40 21G<200 252.222> 664 182<400 859> 1328 182<400 859> 1680 245<506.097 673.903>
VStem: 200 200<50 664 846 1328> 470 240<1717.13 1887.87>
LayerCount: 2
Fore
SplineSet
470 1802.5 m 128,-1,1
 470 1853 470 1853 505 1889 c 128,-1,2
 540 1925 540 1925 590 1925 c 128,-1,3
 640 1925 640 1925 675 1889 c 128,-1,4
 710 1853 710 1853 710 1802.5 c 128,-1,5
 710 1752 710 1752 675 1716 c 128,-1,6
 640 1680 640 1680 590 1680 c 128,-1,7
 540 1680 540 1680 505 1716 c 128,-1,0
 470 1752 470 1752 470 1802.5 c 128,-1,1
200 -40 m 1,8,-1
 200 1460 l 1,9,-1
 306 1510 l 1,10,-1
 940 1510 l 1,11,-1
 940 1500 l 1,12,-1
 859 1328 l 1,13,-1
 400 1328 l 1,14,-1
 400 846 l 1,15,-1
 940 846 l 1,16,-1
 940 836 l 1,17,-1
 859 664 l 1,18,-1
 400 664 l 1,19,-1
 400 50 l 1,20,-1
 210 -40 l 1,21,-1
 200 -40 l 1,8,-1
EndSplineSet
Validated: 19457
EndChar

StartChar: uni1E1F
Encoding: 7711 7711 203
Width: 850
Flags: W
HStem: -40 21G<200 252.222> 818 182<131 200 400 650> 1352 178<474.05 670> 1680 245<376.097 543.903>
VStem: 200 200<50 818 1000 1279.66> 340 240<1717.13 1887.87>
LayerCount: 2
Fore
SplineSet
340 1802.5 m 128,-1,1
 340 1853 340 1853 375 1889 c 128,-1,2
 410 1925 410 1925 460 1925 c 128,-1,3
 510 1925 510 1925 545 1889 c 128,-1,4
 580 1853 580 1853 580 1802.5 c 128,-1,5
 580 1752 580 1752 545 1716 c 128,-1,6
 510 1680 510 1680 460 1680 c 128,-1,7
 410 1680 410 1680 375 1716 c 128,-1,0
 340 1752 340 1752 340 1802.5 c 128,-1,1
200 -40 m 1,8,-1
 200 818 l 1,9,-1
 50 818 l 1,10,-1
 50 828 l 1,11,-1
 131 1000 l 1,12,-1
 200 1000 l 1,13,-1
 200 1130 l 2,14,15
 200 1295 200 1295 324 1417 c 0,16,17
 440 1530 440 1530 615 1530 c 2,18,-1
 750 1530 l 1,19,-1
 750 1520 l 1,20,-1
 670 1352 l 1,21,-1
 615 1352 l 2,22,23
 525 1352 525 1352 462 1298 c 0,24,25
 400 1244 400 1244 400 1130 c 2,26,-1
 400 1000 l 1,27,-1
 731 1000 l 1,28,-1
 731 990 l 1,29,-1
 650 818 l 1,30,-1
 400 818 l 1,31,-1
 400 50 l 1,32,-1
 210 -40 l 1,33,-1
 200 -40 l 1,8,-1
EndSplineSet
Validated: 19457
EndChar

StartChar: uni1E40
Encoding: 7744 7744 204
Width: 2220
Flags: W
HStem: -40 21G<200 252.222 1010 1062.22 1820 1872.22> 1350 180<539.842 869.135 1350.22 1679.21> 1680 245<1022.1 1189.9>
VStem: 200 200<50 1208.25> 986 240<1717.13 1887.87> 1010 200<50 1208.25> 1820 200<50 1206.72>
LayerCount: 2
Fore
SplineSet
200 -40 m 1,0,-1
 200 1030 l 2,1,2
 200 1246 200 1246 335 1385 c 0,3,4
 477 1530 477 1530 705 1530 c 0,5,6
 911 1530 911 1530 1056 1385 c 0,7,8
 1092 1349 1092 1349 1110 1315 c 1,9,10
 1133 1350 1133 1350 1166 1382 c 0,11,12
 1317 1530 1317 1530 1515 1530 c 0,13,14
 1739 1530 1739 1530 1885 1385 c 0,15,16
 2020 1251 2020 1251 2020 1030 c 2,17,-1
 2020 50 l 1,18,-1
 1830 -40 l 1,19,-1
 1820 -40 l 1,20,-1
 1820 1030 l 2,21,22
 1820 1164 1820 1164 1748 1247 c 0,23,24
 1659 1350 1659 1350 1515 1350 c 128,-1,25
 1371 1350 1371 1350 1282 1247 c 0,26,27
 1210 1164 1210 1164 1210 1030 c 2,28,-1
 1210 50 l 1,29,-1
 1020 -40 l 1,30,-1
 1010 -40 l 1,31,-1
 1010 1030 l 2,32,33
 1010 1164 1010 1164 938 1247 c 0,34,35
 849 1350 849 1350 705 1350 c 128,-1,36
 561 1350 561 1350 472 1247 c 0,37,38
 400 1164 400 1164 400 1030 c 2,39,-1
 400 50 l 1,40,-1
 210 -40 l 1,41,-1
 200 -40 l 1,0,-1
986 1802.5 m 128,-1,43
 986 1853 986 1853 1021 1889 c 128,-1,44
 1056 1925 1056 1925 1106 1925 c 128,-1,45
 1156 1925 1156 1925 1191 1889 c 128,-1,46
 1226 1853 1226 1853 1226 1802.5 c 128,-1,47
 1226 1752 1226 1752 1191 1716 c 128,-1,48
 1156 1680 1156 1680 1106 1680 c 128,-1,49
 1056 1680 1056 1680 1021 1716 c 128,-1,42
 986 1752 986 1752 986 1802.5 c 128,-1,43
EndSplineSet
Validated: 1
EndChar

StartChar: uni1E41
Encoding: 7745 7745 205
Width: 1760
Flags: W
HStem: -40 21G<150 202.222 780 832.222 1410 1462.22> 942 178<423.814 705.077 1055.01 1335.69> 1285 245<806.097 973.903>
VStem: 150 200<50 869.755> 770 240<1322.13 1492.87> 780 200<50 870.28> 1410 200<50 870.28>
LayerCount: 2
Fore
SplineSet
150 -40 m 1,0,-1
 150 720 l 2,1,2
 150 885 150 885 274 1007 c 0,3,4
 390 1120 390 1120 565 1120 c 0,5,6
 724 1120 724 1120 840 1004 c 0,7,8
 862 982 862 982 880 952 c 1,9,10
 898 981 898 981 920 1003 c 0,11,12
 1045 1120 1045 1120 1195 1120 c 0,13,14
 1368 1120 1368 1120 1486 1007 c 0,15,16
 1610 887 1610 887 1610 720 c 2,17,-1
 1610 50 l 1,18,-1
 1420 -40 l 1,19,-1
 1410 -40 l 1,20,-1
 1410 720 l 2,21,22
 1410 835 1410 835 1347.5 888.5 c 128,-1,23
 1285 942 1285 942 1195 942 c 128,-1,24
 1105 942 1105 942 1042.5 888.5 c 128,-1,25
 980 835 980 835 980 720 c 2,26,-1
 980 50 l 1,27,-1
 790 -40 l 1,28,-1
 780 -40 l 1,29,-1
 780 720 l 2,30,31
 780 835 780 835 717.5 888.5 c 128,-1,32
 655 942 655 942 565 942 c 128,-1,33
 475 942 475 942 412.5 888.5 c 128,-1,34
 350 835 350 835 350 720 c 2,35,-1
 350 50 l 1,36,-1
 160 -40 l 1,37,-1
 150 -40 l 1,0,-1
770 1407.5 m 128,-1,39
 770 1458 770 1458 805 1494 c 128,-1,40
 840 1530 840 1530 890 1530 c 128,-1,41
 940 1530 940 1530 975 1494 c 128,-1,42
 1010 1458 1010 1458 1010 1407.5 c 128,-1,43
 1010 1357 1010 1357 975 1321 c 128,-1,44
 940 1285 940 1285 890 1285 c 128,-1,45
 840 1285 840 1285 805 1321 c 128,-1,38
 770 1357 770 1357 770 1407.5 c 128,-1,39
EndSplineSet
Validated: 1
EndChar

StartChar: uni1E56
Encoding: 7766 7766 206
Width: 1340
Flags: W
HStem: -40 21G<200 252.222> 510 180<400 843.438> 1330 180<400 850.002> 1680 245<531.097 698.903>
VStem: 200 200<50 510 690 1330> 495 240<1717.13 1887.87> 990 200<828.702 1186.5>
LayerCount: 2
Fore
SplineSet
495 1802.5 m 128,-1,1
 495 1853 495 1853 530 1889 c 128,-1,2
 565 1925 565 1925 615 1925 c 128,-1,3
 665 1925 665 1925 700 1889 c 128,-1,4
 735 1853 735 1853 735 1802.5 c 128,-1,5
 735 1752 735 1752 700 1716 c 128,-1,6
 665 1680 665 1680 615 1680 c 128,-1,7
 565 1680 565 1680 530 1716 c 128,-1,0
 495 1752 495 1752 495 1802.5 c 128,-1,1
400 690 m 1,8,-1
 685 690 l 2,9,10
 816 690 816 690 918 793 c 0,11,12
 990 866 990 866 990 1010 c 0,13,14
 990 1144 990 1144 918 1227 c 0,15,16
 829 1330 829 1330 685 1330 c 2,17,-1
 400 1330 l 1,18,-1
 400 690 l 1,8,-1
200 -40 m 1,19,-1
 200 1460 l 1,20,-1
 306 1510 l 1,21,-1
 685 1510 l 2,22,23
 913 1510 913 1510 1055 1365 c 0,24,25
 1190 1227 1190 1227 1190 1010 c 0,26,27
 1190 792 1190 792 1055 655 c 0,28,29
 912 510 912 510 685 510 c 2,30,-1
 400 510 l 1,31,-1
 400 50 l 1,32,-1
 210 -40 l 1,33,-1
 200 -40 l 1,19,-1
EndSplineSet
Validated: 19457
EndChar

StartChar: uni1E57
Encoding: 7767 7767 207
Width: 1180
Flags: W
HStem: -450 21G<200 252.222> -20 178<474.992 756.186> 942 178<473.814 755.694> 1285 245<536.097 703.903>
VStem: 200 200<-360 65 229.72 869.755> 500 240<1322.13 1492.87> 830 200<230.245 870.28>
LayerCount: 2
Fore
SplineSet
830 720 m 2,0,1
 830 835 830 835 767.5 888.5 c 128,-1,2
 705 942 705 942 615 942 c 128,-1,3
 525 942 525 942 462.5 888.5 c 128,-1,4
 400 835 400 835 400 720 c 2,5,-1
 400 380 l 2,6,7
 400 265 400 265 462.5 211.5 c 128,-1,8
 525 158 525 158 615 158 c 128,-1,9
 705 158 705 158 767.5 211.5 c 128,-1,10
 830 265 830 265 830 380 c 2,11,-1
 830 720 l 2,0,1
1030 720 m 2,12,-1
 1030 380 l 2,13,14
 1030 215 1030 215 906 93 c 0,15,16
 790 -20 790 -20 615 -20 c 0,17,18
 483 -20 483 -20 400 65 c 1,19,-1
 400 -360 l 1,20,-1
 210 -450 l 1,21,-1
 200 -450 l 1,22,-1
 200 720 l 2,23,24
 200 885 200 885 324 1007 c 0,25,26
 440 1120 440 1120 615 1120 c 0,27,28
 788 1120 788 1120 906 1007 c 0,29,30
 1030 887 1030 887 1030 720 c 2,12,-1
500 1407.5 m 128,-1,32
 500 1458 500 1458 535 1494 c 128,-1,33
 570 1530 570 1530 620 1530 c 128,-1,34
 670 1530 670 1530 705 1494 c 128,-1,35
 740 1458 740 1458 740 1407.5 c 128,-1,36
 740 1357 740 1357 705 1321 c 128,-1,37
 670 1285 670 1285 620 1285 c 128,-1,38
 570 1285 570 1285 535 1321 c 128,-1,31
 500 1357 500 1357 500 1407.5 c 128,-1,32
EndSplineSet
Validated: 1
EndChar

StartChar: uni1E6A
Encoding: 7786 7786 208
Width: 1066
Flags: W
HStem: -40 21G<433 485.222> 1328 182<86 433 633 980> 1680 245<442.097 609.903>
VStem: 406 240<1717.13 1887.87> 433 200<50 1328>
LayerCount: 2
Fore
SplineSet
406 1802.5 m 128,-1,1
 406 1853 406 1853 441 1889 c 128,-1,2
 476 1925 476 1925 526 1925 c 128,-1,3
 576 1925 576 1925 611 1889 c 128,-1,4
 646 1853 646 1853 646 1802.5 c 128,-1,5
 646 1752 646 1752 611 1716 c 128,-1,6
 576 1680 576 1680 526 1680 c 128,-1,7
 476 1680 476 1680 441 1716 c 128,-1,0
 406 1752 406 1752 406 1802.5 c 128,-1,1
433 -40 m 1,8,-1
 433 1328 l 1,9,-1
 5 1328 l 1,10,-1
 5 1338 l 1,11,-1
 86 1510 l 1,12,-1
 1061 1510 l 1,13,-1
 1061 1500 l 1,14,-1
 980 1328 l 1,15,-1
 633 1328 l 1,16,-1
 633 50 l 1,17,-1
 443 -40 l 1,18,-1
 433 -40 l 1,8,-1
EndSplineSet
Validated: 19457
EndChar

StartChar: uni1E6B
Encoding: 7787 7787 209
Width: 764
Flags: W
HStem: -40 21G<282 334.222> 918 182<106 282 482 658> 1530 20G<429.778 482> 1680 245<298.097 465.903>
VStem: 262 240<1717.13 1887.87> 282 200<50 918 1100 1460>
LayerCount: 2
Fore
SplineSet
282 -40 m 1,0,-1
 282 918 l 1,1,-1
 25 918 l 1,2,-1
 25 928 l 1,3,-1
 106 1100 l 1,4,-1
 282 1100 l 1,5,-1
 282 1460 l 1,6,-1
 472 1550 l 1,7,-1
 482 1550 l 1,8,-1
 482 1100 l 1,9,-1
 739 1100 l 1,10,-1
 739 1090 l 1,11,-1
 658 918 l 1,12,-1
 482 918 l 1,13,-1
 482 50 l 1,14,-1
 292 -40 l 1,15,-1
 282 -40 l 1,0,-1
262 1802.5 m 128,-1,17
 262 1853 262 1853 297 1889 c 128,-1,18
 332 1925 332 1925 382 1925 c 128,-1,19
 432 1925 432 1925 467 1889 c 128,-1,20
 502 1853 502 1853 502 1802.5 c 128,-1,21
 502 1752 502 1752 467 1716 c 128,-1,22
 432 1680 432 1680 382 1680 c 128,-1,23
 332 1680 332 1680 297 1716 c 128,-1,16
 262 1752 262 1752 262 1802.5 c 128,-1,17
EndSplineSet
Validated: 19457
EndChar

StartChar: uni1E60
Encoding: 7776 7776 210
Width: 1330
Flags: W
HStem: -20 180<501.718 828.056> 751 180<520.158 848.898> 1372 158<527.583 801.056> 1680 245<582.097 749.903>
VStem: 160 200<301.379 460> 250 200<1000.07 1293.32> 546 240<1717.13 1887.87> 880 200<1157 1292.15> 969 200<300.12 638.584>
LayerCount: 2
Fore
SplineSet
546 1802.5 m 128,-1,1
 546 1853 546 1853 581 1889 c 128,-1,2
 616 1925 616 1925 666 1925 c 128,-1,3
 716 1925 716 1925 751 1889 c 128,-1,4
 786 1853 786 1853 786 1802.5 c 128,-1,5
 786 1752 786 1752 751 1716 c 128,-1,6
 716 1680 716 1680 666 1680 c 128,-1,7
 616 1680 616 1680 581 1716 c 128,-1,0
 546 1752 546 1752 546 1802.5 c 128,-1,1
1169 472 m 0,8,9
 1169 268 1169 268 1035 125 c 0,10,11
 898 -20 898 -20 665 -20 c 128,-1,12
 432 -20 432 -20 295 125 c 0,13,14
 160 268 160 268 160 460 c 1,15,-1
 350 550 l 1,16,-1
 360 550 l 9,17,-1
 360 468 l 18,18,19
 360 346 360 346 432 263 c 0,20,21
 521 160 521 160 665 160 c 0,22,23
 808 160 808 160 898 263 c 0,24,25
 969 344 969 344 969 470 c 0,26,27
 969 589 969 589 911 657 c 0,28,29
 831 751 831 751 665 751 c 0,30,31
 483 751 483 751 350 871 c 0,32,33
 250 961 250 961 250 1132 c 0,34,35
 250 1333 250 1333 374 1434 c 0,36,37
 492 1530 492 1530 665 1530 c 152,-1,38
 838 1530 838 1530 956 1434 c 0,39,40
 1080 1333 1080 1333 1080 1157 c 1,41,-1
 890 1067 l 1,42,-1
 880 1067 l 9,43,-1
 880 1147 l 18,44,45
 880 1261 880 1261 815 1317 c 0,46,47
 752 1372 752 1372 665 1372 c 0,48,49
 568 1372 568 1372 509 1311 c 128,-1,50
 450 1250 450 1250 450 1147 c 0,51,52
 450 1048 450 1048 495 998 c 0,53,54
 555 931 555 931 665 931 c 0,55,56
 907 931 907 931 1035 817 c 0,57,58
 1169 698 1169 698 1169 472 c 0,8,9
EndSplineSet
Validated: 19457
EndChar

StartChar: uni1E61
Encoding: 7777 7777 211
Width: 1070
Flags: W
HStem: -20 158<398.847 672.392> 530 166<406.954 691.984> 962 158<397.033 632.282> 1285 245<450.097 617.903>
VStem: 120 200<217.848 353> 162 190<725.129 916.304> 414 240<1322.13 1492.87> 754 196<223.507 467.29>
LayerCount: 2
Fore
SplineSet
414 1407.5 m 128,-1,1
 414 1458 414 1458 449 1494 c 128,-1,2
 484 1530 484 1530 534 1530 c 128,-1,3
 584 1530 584 1530 619 1494 c 128,-1,4
 654 1458 654 1458 654 1407.5 c 128,-1,5
 654 1357 654 1357 619 1321 c 128,-1,6
 584 1285 584 1285 534 1285 c 128,-1,7
 484 1285 484 1285 449 1321 c 128,-1,0
 414 1357 414 1357 414 1407.5 c 128,-1,1
120 353 m 1,8,-1
 310 443 l 1,9,-1
 320 443 l 9,10,-1
 320 363 l 18,11,12
 320 251 320 251 385 193 c 0,13,14
 447 138 447 138 535 138 c 0,15,16
 637 138 637 138 694 203 c 0,17,18
 754 271 754 271 754 351 c 0,19,20
 754 437 754 437 690 487 c 0,21,22
 635 530 635 530 534 530 c 0,23,24
 356 530 356 530 253 608 c 0,25,26
 162 676 162 676 162 819 c 0,27,28
 162 958 162 958 289 1049 c 0,29,30
 388 1120 388 1120 535 1120 c 0,31,32
 676 1120 676 1120 780 1032 c 0,33,34
 860 963 860 963 879 872 c 1,35,-1
 689 782 l 1,36,-1
 679 782 l 9,37,-1
 679 811 l 2,38,39
 679 863 679 863 649 900 c 0,40,41
 601 962 601 962 512 962 c 0,42,43
 441 962 441 962 396.5 917.5 c 128,-1,44
 352 873 352 873 352 819 c 0,45,46
 352 755 352 755 406 717 c 0,47,48
 436 696 436 696 534 696 c 24,49,50
 737 696 737 696 839 603 c 0,51,52
 950 502 950 502 950 340 c 0,53,54
 950 210 950 210 835 92 c 0,55,56
 726 -20 726 -20 535 -20 c 0,57,58
 362 -20 362 -20 244 76 c 0,59,60
 120 177 120 177 120 353 c 1,8,-1
EndSplineSet
Validated: 19457
EndChar

StartChar: Wgrave
Encoding: 7808 7808 212
Width: 2220
Flags: W
HStem: -20 180<540.794 869.784 1350.87 1680.16> 1530 20G<347.778 400 1157.78 1210 1967.78 2020>
VStem: 200 200<303.277 1460> 1010 200<301.753 1460> 1820 200<301.753 1460>
CounterMasks: 1 38
LayerCount: 2
Fore
SplineSet
2020 1550 m 1,0,-1
 2020 480 l 2,1,2
 2020 264 2020 264 1885 125 c 0,3,4
 1743 -20 1743 -20 1515 -20 c 0,5,6
 1309 -20 1309 -20 1164 125 c 0,7,8
 1128 161 1128 161 1110 195 c 1,9,10
 1087 160 1087 160 1054 128 c 0,11,12
 903 -20 903 -20 705 -20 c 0,13,14
 481 -20 481 -20 335 125 c 0,15,16
 200 259 200 259 200 480 c 2,17,-1
 200 1460 l 1,18,-1
 390 1550 l 1,19,-1
 400 1550 l 1,20,-1
 400 480 l 2,21,22
 400 346 400 346 472 263 c 0,23,24
 561 160 561 160 705 160 c 128,-1,25
 849 160 849 160 938 263 c 0,26,27
 1010 346 1010 346 1010 480 c 2,28,-1
 1010 1460 l 1,29,-1
 1200 1550 l 1,30,-1
 1210 1550 l 1,31,-1
 1210 480 l 2,32,33
 1210 346 1210 346 1282 263 c 0,34,35
 1371 160 1371 160 1515 160 c 128,-1,36
 1659 160 1659 160 1748 263 c 0,37,38
 1820 346 1820 346 1820 480 c 2,39,-1
 1820 1460 l 1,40,-1
 2010 1550 l 1,41,-1
 2020 1550 l 1,0,-1
1051 1966 m 1,42,-1
 1061 1966 l 1,43,-1
 1223 1621 l 1,44,-1
 1106 1566 l 1,45,-1
 1096 1566 l 1,46,-1
 875 1882 l 1,47,-1
 1051 1966 l 1,42,-1
EndSplineSet
Validated: 1
EndChar

StartChar: wgrave
Encoding: 7809 7809 213
Width: 1760
Flags: W
HStem: -20 178<424.306 704.993 1054.92 1336.19> 1120 20G<297.778 350 927.778 980 1557.78 1610>
VStem: 150 200<229.72 1050> 780 200<229.72 1050> 1410 200<230.245 1050>
CounterMasks: 1 38
LayerCount: 2
Fore
SplineSet
1610 1140 m 1,0,-1
 1610 380 l 2,1,2
 1610 215 1610 215 1486 93 c 0,3,4
 1370 -20 1370 -20 1195 -20 c 0,5,6
 1036 -20 1036 -20 920 96 c 0,7,8
 898 118 898 118 880 148 c 1,9,10
 862 119 862 119 840 97 c 0,11,12
 715 -20 715 -20 565 -20 c 0,13,14
 392 -20 392 -20 274 93 c 0,15,16
 150 213 150 213 150 380 c 2,17,-1
 150 1050 l 1,18,-1
 340 1140 l 1,19,-1
 350 1140 l 1,20,-1
 350 380 l 2,21,22
 350 265 350 265 412.5 211.5 c 128,-1,23
 475 158 475 158 565 158 c 128,-1,24
 655 158 655 158 717.5 211.5 c 128,-1,25
 780 265 780 265 780 380 c 2,26,-1
 780 1050 l 1,27,-1
 970 1140 l 1,28,-1
 980 1140 l 1,29,-1
 980 380 l 2,30,31
 980 265 980 265 1042.5 211.5 c 128,-1,32
 1105 158 1105 158 1195 158 c 128,-1,33
 1285 158 1285 158 1347.5 211.5 c 128,-1,34
 1410 265 1410 265 1410 380 c 2,35,-1
 1410 1050 l 1,36,-1
 1600 1140 l 1,37,-1
 1610 1140 l 1,0,-1
829 1566 m 1,38,-1
 839 1566 l 1,39,-1
 1001 1221 l 1,40,-1
 884 1166 l 1,41,-1
 874 1166 l 1,42,-1
 653 1482 l 1,43,-1
 829 1566 l 1,38,-1
EndSplineSet
Validated: 1
EndChar

StartChar: Wacute
Encoding: 7810 7810 214
Width: 2220
Flags: W
HStem: -20 180<540.794 869.784 1350.87 1680.16> 1530 20G<347.778 400 1157.78 1210 1967.78 2020>
VStem: 200 200<303.277 1460> 1010 200<301.753 1460> 1820 200<301.753 1460>
CounterMasks: 1 38
LayerCount: 2
Fore
SplineSet
2020 1550 m 1,0,-1
 2020 480 l 2,1,2
 2020 264 2020 264 1885 125 c 0,3,4
 1743 -20 1743 -20 1515 -20 c 0,5,6
 1309 -20 1309 -20 1164 125 c 0,7,8
 1128 161 1128 161 1110 195 c 1,9,10
 1087 160 1087 160 1054 128 c 0,11,12
 903 -20 903 -20 705 -20 c 0,13,14
 481 -20 481 -20 335 125 c 0,15,16
 200 259 200 259 200 480 c 2,17,-1
 200 1460 l 1,18,-1
 390 1550 l 1,19,-1
 400 1550 l 1,20,-1
 400 480 l 2,21,22
 400 346 400 346 472 263 c 0,23,24
 561 160 561 160 705 160 c 128,-1,25
 849 160 849 160 938 263 c 0,26,27
 1010 346 1010 346 1010 480 c 2,28,-1
 1010 1460 l 1,29,-1
 1200 1550 l 1,30,-1
 1210 1550 l 1,31,-1
 1210 480 l 2,32,33
 1210 346 1210 346 1282 263 c 0,34,35
 1371 160 1371 160 1515 160 c 128,-1,36
 1659 160 1659 160 1748 263 c 0,37,38
 1820 346 1820 346 1820 480 c 2,39,-1
 1820 1460 l 1,40,-1
 2010 1550 l 1,41,-1
 2020 1550 l 1,0,-1
1153 1966 m 1,42,-1
 1163 1966 l 1,43,-1
 1339 1882 l 1,44,-1
 1118 1566 l 1,45,-1
 1108 1566 l 1,46,-1
 991 1621 l 1,47,-1
 1153 1966 l 1,42,-1
EndSplineSet
Validated: 1
EndChar

StartChar: wacute
Encoding: 7811 7811 215
Width: 1760
Flags: W
HStem: -20 178<424.306 704.993 1054.92 1336.19> 1120 20G<297.778 350 927.778 980 1557.78 1610>
VStem: 150 200<229.72 1050> 780 200<229.72 1050> 1410 200<230.245 1050>
CounterMasks: 1 38
LayerCount: 2
Fore
SplineSet
1610 1140 m 1,0,-1
 1610 380 l 2,1,2
 1610 215 1610 215 1486 93 c 0,3,4
 1370 -20 1370 -20 1195 -20 c 0,5,6
 1036 -20 1036 -20 920 96 c 0,7,8
 898 118 898 118 880 148 c 1,9,10
 862 119 862 119 840 97 c 0,11,12
 715 -20 715 -20 565 -20 c 0,13,14
 392 -20 392 -20 274 93 c 0,15,16
 150 213 150 213 150 380 c 2,17,-1
 150 1050 l 1,18,-1
 340 1140 l 1,19,-1
 350 1140 l 1,20,-1
 350 380 l 2,21,22
 350 265 350 265 412.5 211.5 c 128,-1,23
 475 158 475 158 565 158 c 128,-1,24
 655 158 655 158 717.5 211.5 c 128,-1,25
 780 265 780 265 780 380 c 2,26,-1
 780 1050 l 1,27,-1
 970 1140 l 1,28,-1
 980 1140 l 1,29,-1
 980 380 l 2,30,31
 980 265 980 265 1042.5 211.5 c 128,-1,32
 1105 158 1105 158 1195 158 c 128,-1,33
 1285 158 1285 158 1347.5 211.5 c 128,-1,34
 1410 265 1410 265 1410 380 c 2,35,-1
 1410 1050 l 1,36,-1
 1600 1140 l 1,37,-1
 1610 1140 l 1,0,-1
917 1566 m 1,38,-1
 927 1566 l 1,39,-1
 1103 1482 l 1,40,-1
 882 1166 l 1,41,-1
 872 1166 l 1,42,-1
 755 1221 l 1,43,-1
 917 1566 l 1,38,-1
EndSplineSet
Validated: 1
EndChar

StartChar: Wdieresis
Encoding: 7812 7812 216
Width: 2220
Flags: W
HStem: -20 180<540.794 869.784 1350.87 1680.16> 1530 20G<347.778 400 1157.78 1210 1967.78 2020> 1680 245<864.097 1031.9 1164.1 1331.9>
VStem: 200 200<303.277 1460> 828 240<1717.13 1887.87> 1010 200<301.753 1460> 1128 240<1717.13 1887.87> 1820 200<301.753 1460>
LayerCount: 2
Fore
SplineSet
2020 1550 m 1,0,-1
 2020 480 l 2,1,2
 2020 264 2020 264 1885 125 c 0,3,4
 1743 -20 1743 -20 1515 -20 c 0,5,6
 1309 -20 1309 -20 1164 125 c 0,7,8
 1128 161 1128 161 1110 195 c 1,9,10
 1087 160 1087 160 1054 128 c 0,11,12
 903 -20 903 -20 705 -20 c 0,13,14
 481 -20 481 -20 335 125 c 0,15,16
 200 259 200 259 200 480 c 2,17,-1
 200 1460 l 1,18,-1
 390 1550 l 1,19,-1
 400 1550 l 1,20,-1
 400 480 l 2,21,22
 400 346 400 346 472 263 c 0,23,24
 561 160 561 160 705 160 c 128,-1,25
 849 160 849 160 938 263 c 0,26,27
 1010 346 1010 346 1010 480 c 2,28,-1
 1010 1460 l 1,29,-1
 1200 1550 l 1,30,-1
 1210 1550 l 1,31,-1
 1210 480 l 2,32,33
 1210 346 1210 346 1282 263 c 0,34,35
 1371 160 1371 160 1515 160 c 128,-1,36
 1659 160 1659 160 1748 263 c 0,37,38
 1820 346 1820 346 1820 480 c 2,39,-1
 1820 1460 l 1,40,-1
 2010 1550 l 1,41,-1
 2020 1550 l 1,0,-1
1128 1802.5 m 128,-1,43
 1128 1853 1128 1853 1163 1889 c 128,-1,44
 1198 1925 1198 1925 1248 1925 c 128,-1,45
 1298 1925 1298 1925 1333 1889 c 128,-1,46
 1368 1853 1368 1853 1368 1802.5 c 128,-1,47
 1368 1752 1368 1752 1333 1716 c 128,-1,48
 1298 1680 1298 1680 1248 1680 c 128,-1,49
 1198 1680 1198 1680 1163 1716 c 128,-1,42
 1128 1752 1128 1752 1128 1802.5 c 128,-1,43
828 1802.5 m 128,-1,51
 828 1853 828 1853 863 1889 c 128,-1,52
 898 1925 898 1925 948 1925 c 128,-1,53
 998 1925 998 1925 1033 1889 c 128,-1,54
 1068 1853 1068 1853 1068 1802.5 c 128,-1,55
 1068 1752 1068 1752 1033 1716 c 128,-1,56
 998 1680 998 1680 948 1680 c 128,-1,57
 898 1680 898 1680 863 1716 c 128,-1,50
 828 1752 828 1752 828 1802.5 c 128,-1,51
EndSplineSet
Validated: 1
EndChar

StartChar: wdieresis
Encoding: 7813 7813 217
Width: 1760
Flags: W
HStem: -20 178<424.306 704.993 1054.92 1336.19> 1120 20G<297.778 350 927.778 980 1557.78 1610> 1285 245<638.097 805.903 938.097 1105.9>
VStem: 150 200<229.72 1050> 602 240<1322.13 1492.87> 780 200<229.72 1050> 902 240<1322.13 1492.87> 1410 200<230.245 1050>
LayerCount: 2
Fore
SplineSet
1610 1140 m 1,0,-1
 1610 380 l 2,1,2
 1610 215 1610 215 1486 93 c 0,3,4
 1370 -20 1370 -20 1195 -20 c 0,5,6
 1036 -20 1036 -20 920 96 c 0,7,8
 898 118 898 118 880 148 c 1,9,10
 862 119 862 119 840 97 c 0,11,12
 715 -20 715 -20 565 -20 c 0,13,14
 392 -20 392 -20 274 93 c 0,15,16
 150 213 150 213 150 380 c 2,17,-1
 150 1050 l 1,18,-1
 340 1140 l 1,19,-1
 350 1140 l 1,20,-1
 350 380 l 2,21,22
 350 265 350 265 412.5 211.5 c 128,-1,23
 475 158 475 158 565 158 c 128,-1,24
 655 158 655 158 717.5 211.5 c 128,-1,25
 780 265 780 265 780 380 c 2,26,-1
 780 1050 l 1,27,-1
 970 1140 l 1,28,-1
 980 1140 l 1,29,-1
 980 380 l 2,30,31
 980 265 980 265 1042.5 211.5 c 128,-1,32
 1105 158 1105 158 1195 158 c 128,-1,33
 1285 158 1285 158 1347.5 211.5 c 128,-1,34
 1410 265 1410 265 1410 380 c 2,35,-1
 1410 1050 l 1,36,-1
 1600 1140 l 1,37,-1
 1610 1140 l 1,0,-1
902 1407.5 m 128,-1,39
 902 1458 902 1458 937 1494 c 128,-1,40
 972 1530 972 1530 1022 1530 c 128,-1,41
 1072 1530 1072 1530 1107 1494 c 128,-1,42
 1142 1458 1142 1458 1142 1407.5 c 128,-1,43
 1142 1357 1142 1357 1107 1321 c 128,-1,44
 1072 1285 1072 1285 1022 1285 c 128,-1,45
 972 1285 972 1285 937 1321 c 128,-1,38
 902 1357 902 1357 902 1407.5 c 128,-1,39
602 1407.5 m 128,-1,47
 602 1458 602 1458 637 1494 c 128,-1,48
 672 1530 672 1530 722 1530 c 128,-1,49
 772 1530 772 1530 807 1494 c 128,-1,50
 842 1458 842 1458 842 1407.5 c 128,-1,51
 842 1357 842 1357 807 1321 c 128,-1,52
 772 1285 772 1285 722 1285 c 128,-1,53
 672 1285 672 1285 637 1321 c 128,-1,46
 602 1357 602 1357 602 1407.5 c 128,-1,47
EndSplineSet
Validated: 1
EndChar

StartChar: Ygrave
Encoding: 7922 7922 218
Width: 1310
Flags: W
HStem: -40 21G<555 607.222> 484 172<493.034 555 755 822.949> 1530 20G<297.778 350 1107.78 1160>
VStem: 150 200<798.785 1460> 555 200<50 491.828> 960 200<801.738 1460>
CounterMasks: 1 1c
LayerCount: 2
Fore
SplineSet
596 1966 m 1,0,-1
 606 1966 l 1,1,-1
 768 1621 l 1,2,-1
 651 1566 l 1,3,-1
 641 1566 l 1,4,-1
 420 1882 l 1,5,-1
 596 1966 l 1,0,-1
555 -40 m 1,6,-1
 555 484 l 1,7,8
 398 510 398 510 285 621 c 0,9,10
 150 754 150 754 150 976 c 2,11,-1
 150 1460 l 1,12,-1
 340 1550 l 1,13,-1
 350 1550 l 1,14,-1
 350 976 l 2,15,16
 350 842 350 842 422 759 c 0,17,18
 511 656 511 656 655 656 c 0,19,20
 807 656 807 656 888 759 c 0,21,22
 960 851 960 851 960 976 c 2,23,-1
 960 1460 l 1,24,-1
 1150 1550 l 1,25,-1
 1160 1550 l 1,26,-1
 1160 976 l 2,27,28
 1160 760 1160 760 1025 621 c 0,29,30
 916 509 916 509 755 484 c 1,31,-1
 755 50 l 1,32,-1
 565 -40 l 1,33,-1
 555 -40 l 1,6,-1
EndSplineSet
Validated: 19457
EndChar

StartChar: ygrave
Encoding: 7923 7923 219
Width: 1180
Flags: W
HStem: -430 178<337 705.95> -20 178<424.799 705.589> 1120 20G<297.778 350 927.778 980>
VStem: 150 200<232.769 1050> 780 200<-179.66 65 229.72 1050>
LayerCount: 2
Fore
SplineSet
150 380 m 2,0,-1
 150 1050 l 1,1,-1
 340 1140 l 1,2,-1
 350 1140 l 1,3,-1
 350 380 l 2,4,5
 350 265 350 265 412.5 211.5 c 128,-1,6
 475 158 475 158 565 158 c 128,-1,7
 655 158 655 158 717.5 211.5 c 128,-1,8
 780 265 780 265 780 380 c 2,9,-1
 780 1050 l 1,10,-1
 970 1140 l 1,11,-1
 980 1140 l 1,12,-1
 980 -30 l 2,13,14
 980 -195 980 -195 856 -317 c 0,15,16
 740 -430 740 -430 565 -430 c 2,17,-1
 257 -430 l 1,18,-1
 257 -420 l 1,19,-1
 337 -252 l 1,20,-1
 565 -252 l 2,21,22
 655 -252 655 -252 718 -198 c 0,23,24
 780 -144 780 -144 780 -30 c 2,25,-1
 780 65 l 1,26,27
 706 -20 706 -20 565 -20 c 0,28,29
 394 -20 394 -20 274 93 c 0,30,31
 150 211 150 211 150 380 c 2,0,-1
473 1566 m 1,32,-1
 483 1566 l 1,33,-1
 645 1221 l 1,34,-1
 528 1166 l 1,35,-1
 518 1166 l 1,36,-1
 297 1482 l 1,37,-1
 473 1566 l 1,32,-1
EndSplineSet
Validated: 1
EndChar

StartChar: Agrave
Encoding: 192 192 220
Width: 1410
Flags: W
HStem: -40 21G<200 252.222 1010 1062.22> 664 182<400 1010> 1350 180<539.842 869.206>
VStem: 200 200<50 664 846 1208.25> 1010 200<50 664 846 1206.72>
LayerCount: 2
Fore
SplineSet
596 1966 m 1,0,-1
 606 1966 l 1,1,-1
 768 1621 l 1,2,-1
 651 1566 l 1,3,-1
 641 1566 l 1,4,-1
 420 1882 l 1,5,-1
 596 1966 l 1,0,-1
200 -40 m 1,6,-1
 200 1030 l 2,7,8
 200 1246 200 1246 335 1385 c 0,9,10
 477 1530 477 1530 705 1530 c 0,11,12
 929 1530 929 1530 1075 1385 c 0,13,14
 1210 1251 1210 1251 1210 1030 c 2,15,-1
 1210 50 l 1,16,-1
 1020 -40 l 1,17,-1
 1010 -40 l 1,18,-1
 1010 664 l 1,19,-1
 400 664 l 1,20,-1
 400 50 l 1,21,-1
 210 -40 l 1,22,-1
 200 -40 l 1,6,-1
400 846 m 1,23,-1
 1010 846 l 1,24,-1
 1010 1030 l 2,25,26
 1010 1164 1010 1164 938 1247 c 0,27,28
 849 1350 849 1350 705 1350 c 128,-1,29
 561 1350 561 1350 472 1247 c 0,30,31
 400 1164 400 1164 400 1030 c 2,32,-1
 400 846 l 1,23,-1
EndSplineSet
Validated: 1
EndChar

StartChar: Aacute
Encoding: 193 193 221
Width: 1410
Flags: W
HStem: -40 21G<200 252.222 1010 1062.22> 664 182<400 1010> 1350 180<539.842 869.206>
VStem: 200 200<50 664 846 1208.25> 1010 200<50 664 846 1206.72>
LayerCount: 2
Fore
SplineSet
817 1966 m 1,0,-1
 827 1966 l 1,1,-1
 1003 1882 l 1,2,-1
 782 1566 l 1,3,-1
 772 1566 l 1,4,-1
 655 1621 l 1,5,-1
 817 1966 l 1,0,-1
200 -40 m 1,6,-1
 200 1030 l 2,7,8
 200 1246 200 1246 335 1385 c 0,9,10
 477 1530 477 1530 705 1530 c 0,11,12
 929 1530 929 1530 1075 1385 c 0,13,14
 1210 1251 1210 1251 1210 1030 c 2,15,-1
 1210 50 l 1,16,-1
 1020 -40 l 1,17,-1
 1010 -40 l 1,18,-1
 1010 664 l 1,19,-1
 400 664 l 1,20,-1
 400 50 l 1,21,-1
 210 -40 l 1,22,-1
 200 -40 l 1,6,-1
400 846 m 1,23,-1
 1010 846 l 1,24,-1
 1010 1030 l 2,25,26
 1010 1164 1010 1164 938 1247 c 0,27,28
 849 1350 849 1350 705 1350 c 128,-1,29
 561 1350 561 1350 472 1247 c 0,30,31
 400 1164 400 1164 400 1030 c 2,32,-1
 400 846 l 1,23,-1
EndSplineSet
Validated: 1
EndChar

StartChar: Acircumflex
Encoding: 194 194 222
Width: 1410
Flags: W
HStem: -40 21G<200 252.222 1010 1062.22> 664 182<400 1010> 1350 180<539.842 869.206>
VStem: 200 200<50 664 846 1208.25> 1010 200<50 664 846 1206.72>
LayerCount: 2
Fore
SplineSet
434 1621 m 1,0,-1
 587 1882 l 1,1,-1
 763 1966 l 1,2,-1
 773 1966 l 1,3,-1
 986 1621 l 1,4,-1
 870 1566 l 1,5,-1
 860 1566 l 1,6,-1
 710 1774 l 1,7,-1
 562 1566 l 1,8,-1
 552 1566 l 1,9,-1
 434 1621 l 1,0,-1
200 -40 m 1,10,-1
 200 1030 l 2,11,12
 200 1246 200 1246 335 1385 c 0,13,14
 477 1530 477 1530 705 1530 c 0,15,16
 929 1530 929 1530 1075 1385 c 0,17,18
 1210 1251 1210 1251 1210 1030 c 2,19,-1
 1210 50 l 1,20,-1
 1020 -40 l 1,21,-1
 1010 -40 l 1,22,-1
 1010 664 l 1,23,-1
 400 664 l 1,24,-1
 400 50 l 1,25,-1
 210 -40 l 1,26,-1
 200 -40 l 1,10,-1
400 846 m 1,27,-1
 1010 846 l 1,28,-1
 1010 1030 l 2,29,30
 1010 1164 1010 1164 938 1247 c 0,31,32
 849 1350 849 1350 705 1350 c 128,-1,33
 561 1350 561 1350 472 1247 c 0,34,35
 400 1164 400 1164 400 1030 c 2,36,-1
 400 846 l 1,27,-1
EndSplineSet
Validated: 1
EndChar

StartChar: Atilde
Encoding: 195 195 223
Width: 1410
Flags: W
HStem: -40 21G<200 252.222 1010 1062.22> 664 182<400 1010> 1350 180<539.842 869.206> 1638 167<753.775 855.272> 1757 167<589.728 691.225>
VStem: 200 200<50 664 846 1208.25> 471 116<1685 1756.35> 858 116<1805.65 1877> 1010 200<50 664 846 1206.72>
LayerCount: 2
Fore
SplineSet
471 1638 m 1,0,1
 471 1924 471 1924 612 1924 c 0,2,3
 676 1924 676 1924 749 1854 c 0,4,5
 800 1805 800 1805 824 1805 c 0,6,7
 858 1805 858 1805 858 1877 c 1,8,-1
 968 1924 l 1,9,-1
 974 1924 l 1,10,11
 974 1638 974 1638 833 1638 c 0,12,13
 769 1638 769 1638 696 1708 c 0,14,15
 645 1757 645 1757 621 1757 c 0,16,17
 587 1757 587 1757 587 1685 c 1,18,-1
 477 1638 l 1,19,-1
 471 1638 l 1,0,1
200 -40 m 1,20,-1
 200 1030 l 2,21,22
 200 1246 200 1246 335 1385 c 0,23,24
 477 1530 477 1530 705 1530 c 0,25,26
 929 1530 929 1530 1075 1385 c 0,27,28
 1210 1251 1210 1251 1210 1030 c 2,29,-1
 1210 50 l 1,30,-1
 1020 -40 l 1,31,-1
 1010 -40 l 1,32,-1
 1010 664 l 1,33,-1
 400 664 l 1,34,-1
 400 50 l 1,35,-1
 210 -40 l 1,36,-1
 200 -40 l 1,20,-1
400 846 m 1,37,-1
 1010 846 l 1,38,-1
 1010 1030 l 2,39,40
 1010 1164 1010 1164 938 1247 c 0,41,42
 849 1350 849 1350 705 1350 c 128,-1,43
 561 1350 561 1350 472 1247 c 0,44,45
 400 1164 400 1164 400 1030 c 2,46,-1
 400 846 l 1,37,-1
EndSplineSet
Validated: 1
EndChar

StartChar: Adieresis
Encoding: 196 196 224
Width: 1410
Flags: W
HStem: -40 21G<200 252.222 1010 1062.22> 664 182<400 1010> 1350 180<539.842 869.206> 1680 245<478.097 645.903 778.097 945.903>
VStem: 200 200<50 664 846 1208.25> 442 240<1717.13 1887.87> 742 240<1717.13 1887.87> 1010 200<50 664 846 1206.72>
LayerCount: 2
Fore
SplineSet
742 1802.5 m 128,-1,1
 742 1853 742 1853 777 1889 c 128,-1,2
 812 1925 812 1925 862 1925 c 128,-1,3
 912 1925 912 1925 947 1889 c 128,-1,4
 982 1853 982 1853 982 1802.5 c 128,-1,5
 982 1752 982 1752 947 1716 c 128,-1,6
 912 1680 912 1680 862 1680 c 128,-1,7
 812 1680 812 1680 777 1716 c 128,-1,0
 742 1752 742 1752 742 1802.5 c 128,-1,1
442 1802.5 m 128,-1,9
 442 1853 442 1853 477 1889 c 128,-1,10
 512 1925 512 1925 562 1925 c 128,-1,11
 612 1925 612 1925 647 1889 c 128,-1,12
 682 1853 682 1853 682 1802.5 c 128,-1,13
 682 1752 682 1752 647 1716 c 128,-1,14
 612 1680 612 1680 562 1680 c 128,-1,15
 512 1680 512 1680 477 1716 c 128,-1,8
 442 1752 442 1752 442 1802.5 c 128,-1,9
200 -40 m 1,16,-1
 200 1030 l 2,17,18
 200 1246 200 1246 335 1385 c 0,19,20
 477 1530 477 1530 705 1530 c 0,21,22
 929 1530 929 1530 1075 1385 c 0,23,24
 1210 1251 1210 1251 1210 1030 c 2,25,-1
 1210 50 l 1,26,-1
 1020 -40 l 1,27,-1
 1010 -40 l 1,28,-1
 1010 664 l 1,29,-1
 400 664 l 1,30,-1
 400 50 l 1,31,-1
 210 -40 l 1,32,-1
 200 -40 l 1,16,-1
400 846 m 1,33,-1
 1010 846 l 1,34,-1
 1010 1030 l 2,35,36
 1010 1164 1010 1164 938 1247 c 0,37,38
 849 1350 849 1350 705 1350 c 128,-1,39
 561 1350 561 1350 472 1247 c 0,40,41
 400 1164 400 1164 400 1030 c 2,42,-1
 400 846 l 1,33,-1
EndSplineSet
Validated: 1
EndChar

StartChar: Aring
Encoding: 197 197 225
Width: 1410
Flags: W
HStem: -40 21G<200 252.222 1010 1062.22> 664 182<400 1010> 1350 180<539.842 869.206> 1588 104<645.161 763.263> 1862 104<645.215 762.294>
VStem: 200 200<50 664 846 1208.25> 508 123<1704.96 1848.01> 777 125<1705.96 1849.51> 1010 200<50 664 846 1206.72>
LayerCount: 2
Fore
SplineSet
705 1588 m 128,-1,1
 625 1588 625 1588 570 1637 c 0,2,3
 508 1692 508 1692 508 1777 c 0,4,5
 508 1860 508 1860 570 1917 c 0,6,7
 623 1966 623 1966 705 1966 c 0,8,9
 785 1966 785 1966 840 1917 c 0,10,11
 902 1862 902 1862 902 1777 c 128,-1,12
 902 1692 902 1692 840 1637 c 0,13,0
 785 1588 785 1588 705 1588 c 128,-1,1
705 1862 m 0,14,15
 671 1862 671 1862 651 1841 c 128,-1,16
 631 1820 631 1820 631 1777 c 0,17,18
 631 1731 631 1731 652 1712 c 0,19,20
 674 1692 674 1692 704 1692 c 0,21,22
 735 1692 735 1692 757 1714 c 0,23,24
 777 1733 777 1733 777 1777 c 0,25,26
 777 1822 777 1822 755 1843 c 0,27,28
 735 1862 735 1862 705 1862 c 0,14,15
200 -40 m 1,29,-1
 200 1030 l 2,30,31
 200 1246 200 1246 335 1385 c 0,32,33
 477 1530 477 1530 705 1530 c 0,34,35
 929 1530 929 1530 1075 1385 c 0,36,37
 1210 1251 1210 1251 1210 1030 c 2,38,-1
 1210 50 l 1,39,-1
 1020 -40 l 1,40,-1
 1010 -40 l 1,41,-1
 1010 664 l 1,42,-1
 400 664 l 1,43,-1
 400 50 l 1,44,-1
 210 -40 l 1,45,-1
 200 -40 l 1,29,-1
400 846 m 1,46,-1
 1010 846 l 1,47,-1
 1010 1030 l 2,48,49
 1010 1164 1010 1164 938 1247 c 0,50,51
 849 1350 849 1350 705 1350 c 128,-1,52
 561 1350 561 1350 472 1247 c 0,53,54
 400 1164 400 1164 400 1030 c 2,55,-1
 400 846 l 1,46,-1
EndSplineSet
Validated: 1
EndChar

StartChar: AE
Encoding: 198 198 226
Width: 1967
Flags: W
HStem: -40 21G<200 252.222> 0 182<1210 1836> 664 182<400 1010 1210 1669> 1328 182<1210 1669> 1350 180<539.842 868.526>
VStem: 200 200<50 664 846 1208.25> 1010 200<182 664 846 1208.25>
LayerCount: 2
Fore
SplineSet
200 -40 m 1,0,-1
 200 1030 l 2,1,2
 200 1246 200 1246 335 1385 c 0,3,4
 477 1530 477 1530 705 1530 c 0,5,6
 915 1530 915 1530 1010 1410 c 1,7,-1
 1010 1460 l 1,8,-1
 1116 1510 l 1,9,-1
 1750 1510 l 1,10,-1
 1750 1500 l 1,11,-1
 1669 1328 l 1,12,-1
 1210 1328 l 1,13,-1
 1210 846 l 1,14,-1
 1750 846 l 1,15,-1
 1750 836 l 1,16,-1
 1669 664 l 1,17,-1
 1210 664 l 1,18,-1
 1210 182 l 1,19,-1
 1917 182 l 1,20,-1
 1917 172 l 1,21,-1
 1836 0 l 1,22,-1
 1010 0 l 1,23,-1
 1010 664 l 1,24,-1
 400 664 l 1,25,-1
 400 50 l 1,26,-1
 210 -40 l 1,27,-1
 200 -40 l 1,0,-1
400 846 m 1,28,-1
 1010 846 l 1,29,-1
 1010 1030 l 2,30,31
 1010 1164 1010 1164 938 1247 c 0,32,33
 849 1350 849 1350 705 1350 c 128,-1,34
 561 1350 561 1350 472 1247 c 0,35,36
 400 1164 400 1164 400 1030 c 2,37,-1
 400 846 l 1,28,-1
EndSplineSet
Validated: 1
EndChar

StartChar: Amacron
Encoding: 256 256 227
Width: 1410
Flags: W
HStem: -40 21G<200 252.222 1010 1062.22> 664 182<400 1010> 1350 180<539.842 869.206> 1638 182<548 925>
VStem: 200 200<50 664 846 1208.25> 1010 200<50 664 846 1206.72>
LayerCount: 2
Fore
SplineSet
467 1638 m 1,0,-1
 467 1648 l 1,1,-1
 548 1820 l 1,2,-1
 1006 1820 l 1,3,-1
 1006 1810 l 1,4,-1
 925 1638 l 1,5,-1
 467 1638 l 1,0,-1
200 -40 m 1,6,-1
 200 1030 l 2,7,8
 200 1246 200 1246 335 1385 c 0,9,10
 477 1530 477 1530 705 1530 c 0,11,12
 929 1530 929 1530 1075 1385 c 0,13,14
 1210 1251 1210 1251 1210 1030 c 2,15,-1
 1210 50 l 1,16,-1
 1020 -40 l 1,17,-1
 1010 -40 l 1,18,-1
 1010 664 l 1,19,-1
 400 664 l 1,20,-1
 400 50 l 1,21,-1
 210 -40 l 1,22,-1
 200 -40 l 1,6,-1
400 846 m 1,23,-1
 1010 846 l 1,24,-1
 1010 1030 l 2,25,26
 1010 1164 1010 1164 938 1247 c 0,27,28
 849 1350 849 1350 705 1350 c 128,-1,29
 561 1350 561 1350 472 1247 c 0,30,31
 400 1164 400 1164 400 1030 c 2,32,-1
 400 846 l 1,23,-1
EndSplineSet
Validated: 1
EndChar

StartChar: Abreve
Encoding: 258 258 228
Width: 1410
Flags: W
HStem: -40 21G<200 252.222 1010 1062.22> 664 182<400 1010> 1350 180<539.842 869.206> 1638 175<608.656 818.399>
VStem: 200 200<50 664 846 1208.25> 1010 200<50 664 846 1206.72>
LayerCount: 2
Fore
SplineSet
468 1788 m 1,0,-1
 468 1798 l 1,1,-1
 542 1947 l 1,2,3
 614 1813 614 1813 714 1813 c 128,-1,4
 814 1813 814 1813 886 1947 c 1,5,-1
 962 1798 l 1,6,-1
 962 1788 l 1,7,8
 860 1638 860 1638 712 1638 c 0,9,10
 558 1638 558 1638 468 1788 c 1,0,-1
200 -40 m 1,11,-1
 200 1030 l 2,12,13
 200 1246 200 1246 335 1385 c 0,14,15
 477 1530 477 1530 705 1530 c 0,16,17
 929 1530 929 1530 1075 1385 c 0,18,19
 1210 1251 1210 1251 1210 1030 c 2,20,-1
 1210 50 l 1,21,-1
 1020 -40 l 1,22,-1
 1010 -40 l 1,23,-1
 1010 664 l 1,24,-1
 400 664 l 1,25,-1
 400 50 l 1,26,-1
 210 -40 l 1,27,-1
 200 -40 l 1,11,-1
400 846 m 1,28,-1
 1010 846 l 1,29,-1
 1010 1030 l 2,30,31
 1010 1164 1010 1164 938 1247 c 0,32,33
 849 1350 849 1350 705 1350 c 128,-1,34
 561 1350 561 1350 472 1247 c 0,35,36
 400 1164 400 1164 400 1030 c 2,37,-1
 400 846 l 1,28,-1
EndSplineSet
Validated: 1
EndChar

StartChar: Aogonek
Encoding: 260 260 229
Width: 1410
Flags: W
HStem: -450 21G<875.5 982.222> -40 21G<200 252.222> 664 182<400 1010> 1350 180<539.842 869.206>
VStem: 200 200<50 664 846 1208.25> 821 175<-280.616 -54.0942> 1010 200<51.25 664 846 1206.72>
LayerCount: 2
Fore
SplineSet
400 846 m 1,0,-1
 1010 846 l 1,1,-1
 1010 1030 l 2,2,3
 1010 1164 1010 1164 938 1247 c 0,4,5
 849 1350 849 1350 705 1350 c 128,-1,6
 561 1350 561 1350 472 1247 c 0,7,8
 400 1164 400 1164 400 1030 c 2,9,-1
 400 846 l 1,0,-1
200 -40 m 1,10,-1
 200 1030 l 2,11,12
 200 1246 200 1246 335 1385 c 0,13,14
 477 1530 477 1530 705 1530 c 0,15,16
 929 1530 929 1530 1075 1385 c 0,17,18
 1210 1251 1210 1251 1210 1030 c 2,19,-1
 1210 50 l 1,20,-1
 1031 -35 l 1,21,22
 996 -95 996 -95 996 -152 c 0,23,24
 996 -273 996 -273 1130 -360 c 1,25,-1
 940 -450 l 1,26,-1
 930 -450 l 1,27,28
 821 -343 821 -343 821 -206 c 0,29,30
 821 -38 821 -38 1010 82 c 1,31,-1
 1010 664 l 1,32,-1
 400 664 l 1,33,-1
 400 50 l 1,34,-1
 210 -40 l 1,35,-1
 200 -40 l 1,10,-1
EndSplineSet
Validated: 1
EndChar

StartChar: Ccedilla
Encoding: 199 199 230
Width: 1410
Flags: W
HStem: -450 21G<687.778 794.5> 1350 180<539.842 869.02>
VStem: 200 200<304.754 1204.75> 674 175<-280.616 -54.7163> 1010 200<300.796 460 1050 1207.64>
LayerCount: 2
Fore
SplineSet
1210 550 m 1,0,-1
 1210 480 l 2,1,2
 1210 263 1210 263 1075 125 c 0,3,4
 956 3 956 3 776 -16 c 1,5,6
 849 -102 849 -102 849 -206 c 0,7,8
 849 -343 849 -343 740 -450 c 1,9,-1
 730 -450 l 1,10,-1
 540 -360 l 1,11,12
 674 -273 674 -273 674 -152 c 0,13,14
 674 -87 674 -87 627 -15 c 1,15,16
 452 6 452 6 335 125 c 0,17,18
 200 262 200 262 200 480 c 2,19,-1
 200 1030 l 2,20,21
 200 1247 200 1247 335 1385 c 0,22,23
 477 1530 477 1530 705 1530 c 0,24,25
 941 1530 941 1530 1075.5 1385 c 128,-1,26
 1210 1240 1210 1240 1210 1050 c 1,27,-1
 1020 960 l 1,28,-1
 1010 960 l 1,29,-1
 1010 1030 l 2,30,31
 1010 1164 1010 1164 938 1247 c 0,32,33
 849 1350 849 1350 705 1350 c 128,-1,34
 561 1350 561 1350 472 1247 c 0,35,36
 400 1164 400 1164 400 1030 c 2,37,-1
 400 480 l 2,38,39
 400 346 400 346 472 263 c 0,40,41
 561 160 561 160 705 160 c 128,-1,42
 849 160 849 160 938 263 c 0,43,44
 1010 346 1010 346 1010 460 c 1,45,-1
 1200 550 l 1,46,-1
 1210 550 l 1,0,-1
EndSplineSet
Validated: 1
EndChar

StartChar: Cacute
Encoding: 262 262 231
Width: 1410
Flags: W
HStem: -20 180<539.842 870.158> 1350 180<539.842 869.02>
VStem: 200 200<305.246 1204.75> 1010 200<300.796 460 1050 1207.64>
LayerCount: 2
Fore
SplineSet
817 1966 m 1,0,-1
 827 1966 l 1,1,-1
 1003 1882 l 1,2,-1
 782 1566 l 1,3,-1
 772 1566 l 1,4,-1
 655 1621 l 1,5,-1
 817 1966 l 1,0,-1
1210 550 m 1,6,-1
 1210 480 l 2,7,8
 1210 263 1210 263 1075 125 c 0,9,10
 933 -20 933 -20 705 -20 c 128,-1,11
 477 -20 477 -20 335 125 c 0,12,13
 200 263 200 263 200 480 c 2,14,-1
 200 1030 l 2,15,16
 200 1247 200 1247 335 1385 c 0,17,18
 477 1530 477 1530 705 1530 c 0,19,20
 941 1530 941 1530 1075.5 1385 c 128,-1,21
 1210 1240 1210 1240 1210 1050 c 1,22,-1
 1020 960 l 1,23,-1
 1010 960 l 1,24,-1
 1010 1030 l 18,25,26
 1010 1164 1010 1164 938 1247 c 0,27,28
 849 1350 849 1350 705 1350 c 128,-1,29
 561 1350 561 1350 472 1247 c 0,30,31
 400 1164 400 1164 400 1030 c 2,32,-1
 400 480 l 2,33,34
 400 346 400 346 472 263 c 0,35,36
 561 160 561 160 705 160 c 128,-1,37
 849 160 849 160 938 263 c 0,38,39
 1010 346 1010 346 1010 460 c 1,40,-1
 1200 550 l 1,41,-1
 1210 550 l 1,6,-1
EndSplineSet
Validated: 1
EndChar

StartChar: Ccircumflex
Encoding: 264 264 232
Width: 1410
Flags: W
HStem: -20 180<539.842 870.158> 1350 180<539.842 869.02>
VStem: 200 200<305.246 1204.75> 1010 200<300.796 460 1050 1207.64>
LayerCount: 2
Fore
SplineSet
434 1621 m 1,0,-1
 587 1882 l 1,1,-1
 763 1966 l 1,2,-1
 773 1966 l 1,3,-1
 986 1621 l 1,4,-1
 870 1566 l 1,5,-1
 860 1566 l 1,6,-1
 710 1774 l 1,7,-1
 562 1566 l 1,8,-1
 552 1566 l 1,9,-1
 434 1621 l 1,0,-1
1210 550 m 1,10,-1
 1210 480 l 2,11,12
 1210 263 1210 263 1075 125 c 0,13,14
 933 -20 933 -20 705 -20 c 128,-1,15
 477 -20 477 -20 335 125 c 0,16,17
 200 263 200 263 200 480 c 2,18,-1
 200 1030 l 2,19,20
 200 1247 200 1247 335 1385 c 0,21,22
 477 1530 477 1530 705 1530 c 0,23,24
 941 1530 941 1530 1075.5 1385 c 128,-1,25
 1210 1240 1210 1240 1210 1050 c 1,26,-1
 1020 960 l 1,27,-1
 1010 960 l 1,28,-1
 1010 1030 l 18,29,30
 1010 1164 1010 1164 938 1247 c 0,31,32
 849 1350 849 1350 705 1350 c 128,-1,33
 561 1350 561 1350 472 1247 c 0,34,35
 400 1164 400 1164 400 1030 c 2,36,-1
 400 480 l 2,37,38
 400 346 400 346 472 263 c 0,39,40
 561 160 561 160 705 160 c 128,-1,41
 849 160 849 160 938 263 c 0,42,43
 1010 346 1010 346 1010 460 c 1,44,-1
 1200 550 l 1,45,-1
 1210 550 l 1,10,-1
EndSplineSet
Validated: 1
EndChar

